NuosuSIL-Regular.ufo
<glyph name="quotesingle" format="2">
  <advance width="385"/>
  <unicode hex="0027"/>
  <outline>
    <contour>
      <point x="166" y="837" type="line"/>
      <point x="213" y="837" type="line"/>
      <point x="269" y="1143" type="line" smooth="yes"/>
      <point x="287" y="1247"/>
      <point x="297" y="1311"/>
      <point x="297" y="1333" type="curve" smooth="yes"/>
      <point x="297" y="1388"/>
      <point x="262" y="1443"/>
      <point x="186" y="1443" type="curve" smooth="yes"/>
      <point x="122" y="1443"/>
      <point x="89" y="1401"/>
      <point x="89" y="1318" type="curve" smooth="yes"/>
      <point x="89" y="1286"/>
      <point x="96" y="1227"/>
      <point x="110" y="1144" type="curve" smooth="yes"/>
    </contour>
  </outline>
</glyph>
<glyph name="parenright" format="2">
  <advance width="709"/>
  <unicode hex="0029"/>
  <outline>
    <contour>
      <point x="47" y="-458" type="line"/>
      <point x="216" y="-383"/>
      <point x="355" y="-257"/>
      <point x="462" y="-77" type="curve" smooth="yes"/>
      <point x="569" y="102"/>
      <point x="623" y="296"/>
      <point x="623" y="509" type="curve" smooth="yes"/>
      <point x="623" y="721"/>
      <point x="572" y="912"/>
      <point x="472" y="1085" type="curve" smooth="yes"/>
      <point x="370" y="1258"/>
      <point x="229" y="1390"/>
      <point x="47" y="1480" type="curve"/>
      <point x="47" y="1439" type="line"/>
      <point x="206" y="1336"/>
      <point x="313" y="1180"/>
      <point x="370" y="974" type="curve" smooth="yes"/>
      <point x="406" y="848"/>
      <point x="425" y="684"/>
      <point x="425" y="482" type="curve" smooth="yes"/>
      <point x="425" y="16"/>
      <point x="299" y="-285"/>
      <point x="47" y="-418" type="curve"/>
    </contour>
  </outline>
</glyph>
<glyph name="plus" format="2">
  <advance width="2051"/>
  <unicode hex="002B"/>
  <outline>
    <contour>
      <point x="961" y="0" type="line"/>
      <point x="1088" y="0" type="line"/>
      <point x="1088" y="552" type="line"/>
      <point x="1640" y="552" type="line"/>
      <point x="1640" y="679" type="line"/>
      <point x="1088" y="679" type="line"/>
      <point x="1088" y="1230" type="line"/>
      <point x="961" y="1230" type="line"/>
      <point x="961" y="679" type="line"/>
      <point x="410" y="679" type="line"/>
      <point x="410" y="552" type="line"/>
      <point x="961" y="552" type="line"/>
    </contour>
  </outline>
</glyph>
<glyph name="slash" format="2">
  <advance width="592"/>
  <unicode hex="002F"/>
  <outline>
    <contour>
      <point x="1" y="-31" type="line"/>
      <point x="89" y="-31" type="line"/>
      <point x="596" y="1480" type="line"/>
      <point x="515" y="1480" type="line"/>
    </contour>
  </outline>
</glyph>
<glyph name="zero" format="2">
  <advance width="1065"/>
  <unicode hex="0030"/>
  <outline>
    <contour>
      <point x="526" y="-24" type="curve" smooth="yes"/>
      <point x="671" y="-24"/>
      <point x="785" y="51"/>
      <point x="871" y="204" type="curve" smooth="yes"/>
      <point x="950" y="345"/>
      <point x="990" y="515"/>
      <point x="990" y="718" type="curve" smooth="yes"/>
      <point x="990" y="934"/>
      <point x="944" y="1110"/>
      <point x="852" y="1247" type="curve" smooth="yes"/>
      <point x="766" y="1376"/>
      <point x="662" y="1441"/>
      <point x="538" y="1441" type="curve" smooth="yes"/>
      <point x="412" y="1441"/>
      <point x="303" y="1374"/>
      <point x="216" y="1238" type="curve" smooth="yes"/>
      <point x="122" y="1095"/>
      <point x="76" y="914"/>
      <point x="76" y="696" type="curve" smooth="yes"/>
      <point x="76" y="505"/>
      <point x="116" y="337"/>
      <point x="197" y="199" type="curve" smooth="yes"/>
      <point x="283" y="50"/>
      <point x="395" y="-24"/>
    </contour>
    <contour>
      <point x="531" y="41" type="curve" smooth="yes"/>
      <point x="453" y="41"/>
      <point x="392" y="93"/>
      <point x="349" y="199" type="curve" smooth="yes"/>
      <point x="303" y="309"/>
      <point x="280" y="468"/>
      <point x="280" y="672" type="curve" smooth="yes"/>
      <point x="280" y="929"/>
      <point x="309" y="1117"/>
      <point x="365" y="1236" type="curve" smooth="yes"/>
      <point x="408" y="1327"/>
      <point x="463" y="1374"/>
      <point x="535" y="1374" type="curve" smooth="yes"/>
      <point x="616" y="1374"/>
      <point x="678" y="1320"/>
      <point x="722" y="1211" type="curve" smooth="yes"/>
      <point x="765" y="1104"/>
      <point x="786" y="955"/>
      <point x="786" y="765" type="curve" smooth="yes"/>
      <point x="786" y="282"/>
      <point x="702" y="41"/>
    </contour>
  </outline>
</glyph>
<glyph name="four" format="2">
  <advance width="1065"/>
  <unicode hex="0034"/>
  <outline>
    <contour>
      <point x="632" y="0" type="line"/>
      <point x="804" y="0" type="line"/>
      <point x="804" y="373" type="line"/>
      <point x="990" y="373" type="line"/>
      <point x="990" y="521" type="line"/>
      <point x="804" y="521" type="line"/>
      <point x="804" y="1441" type="line"/>
      <point x="689" y="1441" type="line"/>
      <point x="33" y="505" type="line"/>
      <point x="33" y="373" type="line"/>
      <point x="632" y="373" type="line"/>
    </contour>
    <contour>
      <point x="136" y="521" type="line"/>
      <point x="632" y="1221" type="line"/>
      <point x="632" y="521" type="line"/>
    </contour>
  </outline>
</glyph>
<glyph name="seven" format="2">
  <advance width="1065"/>
  <unicode hex="0037"/>
  <outline>
    <contour>
      <point x="383" y="-31" type="line"/>
      <point x="498" y="-31" type="line"/>
      <point x="968" y="1374" type="line"/>
      <point x="968" y="1410" type="line"/>
      <point x="216" y="1410" type="line"/>
      <point x="77" y="1078" type="line"/>
      <point x="109" y="1068" type="line"/>
      <point x="143" y="1127"/>
      <point x="170" y="1165"/>
      <point x="193" y="1183" type="curve" smooth="yes"/>
      <point x="243" y="1221"/>
      <point x="319" y="1240"/>
      <point x="418" y="1240" type="curve" smooth="yes"/>
      <point x="805" y="1240" type="line"/>
    </contour>
  </outline>
</glyph>
<glyph name="nine" format="2">
  <advance width="1065"/>
  <unicode hex="0039"/>
  <outline>
    <contour>
      <point x="113" y="-31" type="line"/>
      <point x="172" y="-31" type="line" smooth="yes"/>
      <point x="380" y="-31"/>
      <point x="568" y="63"/>
      <point x="736" y="247" type="curve" smooth="yes"/>
      <point x="894" y="423"/>
      <point x="974" y="626"/>
      <point x="974" y="859" type="curve" smooth="yes"/>
      <point x="974" y="1007"/>
      <point x="935" y="1138"/>
      <point x="857" y="1253" type="curve" smooth="yes"/>
      <point x="771" y="1379"/>
      <point x="661" y="1441"/>
      <point x="525" y="1441" type="curve" smooth="yes"/>
      <point x="406" y="1441"/>
      <point x="305" y="1394"/>
      <point x="219" y="1300" type="curve" smooth="yes"/>
      <point x="130" y="1201"/>
      <point x="86" y="1080"/>
      <point x="86" y="935" type="curve" smooth="yes"/>
      <point x="86" y="821"/>
      <point x="117" y="725"/>
      <point x="179" y="646" type="curve" smooth="yes"/>
      <point x="246" y="559"/>
      <point x="335" y="515"/>
      <point x="445" y="515" type="curve" smooth="yes"/>
      <point x="536" y="515"/>
      <point x="635" y="551"/>
      <point x="741" y="621" type="curve"/>
      <point x="699" y="453"/>
      <point x="618" y="305"/>
      <point x="498" y="174" type="curve" smooth="yes"/>
      <point x="399" y="67"/>
      <point x="272" y="13"/>
      <point x="113" y="9" type="curve"/>
    </contour>
    <contour>
      <point x="529" y="609" type="curve" smooth="yes"/>
      <point x="450" y="609"/>
      <point x="389" y="649"/>
      <point x="342" y="729" type="curve" smooth="yes"/>
      <point x="295" y="809"/>
      <point x="270" y="914"/>
      <point x="270" y="1044" type="curve" smooth="yes"/>
      <point x="270" y="1145"/>
      <point x="293" y="1227"/>
      <point x="339" y="1287" type="curve" smooth="yes"/>
      <point x="379" y="1343"/>
      <point x="433" y="1371"/>
      <point x="500" y="1374" type="curve" smooth="yes"/>
      <point x="569" y="1376"/>
      <point x="631" y="1338"/>
      <point x="685" y="1258" type="curve" smooth="yes"/>
      <point x="746" y="1170"/>
      <point x="776" y="1054"/>
      <point x="776" y="912" type="curve" smooth="yes"/>
      <point x="776" y="868"/>
      <point x="771" y="797"/>
      <point x="756" y="696" type="curve"/>
      <point x="742" y="678"/>
      <point x="711" y="658"/>
      <point x="662" y="639" type="curve" smooth="yes"/>
      <point x="613" y="619"/>
      <point x="569" y="609"/>
    </contour>
  </outline>
</glyph>
<glyph name="less" format="2">
  <advance width="2051"/>
  <unicode hex="003C"/>
  <outline>
    <contour>
      <point x="1640" y="80" type="line"/>
      <point x="1640" y="207" type="line"/>
      <point x="541" y="615" type="line"/>
      <point x="1640" y="1022" type="line"/>
      <point x="1640" y="1150" type="line"/>
      <point x="410" y="679" type="line"/>
      <point x="410" y="552" type="line"/>
    </contour>
  </outline>
</glyph>
<glyph name="equal" format="2">
  <advance width="2051"/>
  <unicode hex="003D"/>
  <outline>
    <contour>
      <point x="410" y="738" type="line"/>
      <point x="1640" y="738" type="line"/>
      <point x="1640" y="865" type="line"/>
      <point x="410" y="865" type="line"/>
    </contour>
    <contour>
      <point x="410" y="365" type="line"/>
      <point x="1640" y="365" type="line"/>
      <point x="1640" y="492" type="line"/>
      <point x="410" y="492" type="line"/>
    </contour>
  </outline>
</glyph>
<glyph name="C" format="2">
  <advance width="1423"/>
  <unicode hex="0043"/>
  <outline>
    <contour>
      <point x="762" y="-33" type="curve" smooth="yes"/>
      <point x="1015" y="-33"/>
      <point x="1210" y="89"/>
      <point x="1347" y="330" type="curve"/>
      <point x="1316" y="353" type="line"/>
      <point x="1236" y="239"/>
      <point x="1160" y="160"/>
      <point x="1087" y="117" type="curve" smooth="yes"/>
      <point x="1021" y="79"/>
      <point x="940" y="60"/>
      <point x="842" y="60" type="curve" smooth="yes"/>
      <point x="679" y="60"/>
      <point x="552" y="113"/>
      <point x="459" y="219" type="curve" smooth="yes"/>
      <point x="362" y="330"/>
      <point x="313" y="485"/>
      <point x="313" y="682" type="curve" smooth="yes"/>
      <point x="313" y="909"/>
      <point x="362" y="1081"/>
      <point x="455" y="1201" type="curve" smooth="yes"/>
      <point x="542" y="1313"/>
      <point x="661" y="1370"/>
      <point x="812" y="1370" type="curve" smooth="yes"/>
      <point x="1045" y="1370"/>
      <point x="1203" y="1234"/>
      <point x="1283" y="964" type="curve"/>
      <point x="1316" y="964" type="line"/>
      <point x="1283" y="1443" type="line"/>
      <point x="1247" y="1443" type="line"/>
      <point x="1230" y="1377"/>
      <point x="1201" y="1344"/>
      <point x="1160" y="1344" type="curve"/>
      <point x="1160" y="1344"/>
      <point x="1121" y="1361"/>
      <point x="1041" y="1394" type="curve" smooth="yes"/>
      <point x="962" y="1427"/>
      <point x="879" y="1443"/>
      <point x="795" y="1443" type="curve" smooth="yes"/>
      <point x="583" y="1443"/>
      <point x="409" y="1369"/>
      <point x="273" y="1218" type="curve" smooth="yes"/>
      <point x="142" y="1072"/>
      <point x="76" y="895"/>
      <point x="76" y="685" type="curve" smooth="yes"/>
      <point x="76" y="483"/>
      <point x="136" y="316"/>
      <point x="256" y="183" type="curve" smooth="yes"/>
      <point x="385" y="39"/>
      <point x="553" y="-33"/>
    </contour>
  </outline>
</glyph>
<glyph name="h" format="2">
  <advance width="1065"/>
  <unicode hex="0068"/>
  <outline>
    <contour>
      <point x="29" y="0" type="line"/>
      <point x="500" y="0" type="line"/>
      <point x="500" y="39" type="line"/>
      <point x="433" y="39"/>
      <point x="390" y="50"/>
      <point x="370" y="71" type="curve"/>
      <point x="356" y="90"/>
      <point x="349" y="130"/>
      <point x="349" y="194" type="curve" smooth="yes"/>
      <point x="349" y="718" type="line"/>
      <point x="428" y="809"/>
      <point x="506" y="855"/>
      <point x="585" y="855" type="curve" smooth="yes"/>
      <point x="656" y="855"/>
      <point x="704" y="821"/>
      <point x="724" y="751" type="curve" smooth="yes"/>
      <point x="734" y="716"/>
      <point x="738" y="649"/>
      <point x="738" y="552" type="curve" smooth="yes"/>
      <point x="738" y="194" type="line" smooth="yes"/>
      <point x="738" y="130"/>
      <point x="728" y="89"/>
      <point x="708" y="69" type="curve" smooth="yes"/>
      <point x="686" y="49"/>
      <point x="646" y="39"/>
      <point x="585" y="39" type="curve"/>
      <point x="585" y="0" type="line"/>
      <point x="1055" y="0" type="line"/>
      <point x="1055" y="39" type="line"/>
      <point x="992" y="39"/>
      <point x="954" y="51"/>
      <point x="935" y="76" type="curve" smooth="yes"/>
      <point x="921" y="94"/>
      <point x="912" y="133"/>
      <point x="912" y="194" type="curve" smooth="yes"/>
      <point x="912" y="552" type="line" smooth="yes"/>
      <point x="912" y="682"/>
      <point x="902" y="778"/>
      <point x="879" y="837" type="curve" smooth="yes"/>
      <point x="844" y="932"/>
      <point x="771" y="980"/>
      <point x="664" y="980" type="curve" smooth="yes"/>
      <point x="541" y="980"/>
      <point x="436" y="914"/>
      <point x="349" y="784" type="curve"/>
      <point x="349" y="1480" type="line"/>
      <point x="299" y="1480" type="line"/>
      <point x="13" y="1366" type="line"/>
      <point x="29" y="1328" type="line"/>
      <point x="54" y="1340"/>
      <point x="80" y="1344"/>
      <point x="104" y="1344" type="curve" smooth="yes"/>
      <point x="152" y="1344"/>
      <point x="174" y="1297"/>
      <point x="174" y="1201" type="curve" smooth="yes"/>
      <point x="174" y="194" type="line" smooth="yes"/>
      <point x="174" y="136"/>
      <point x="166" y="96"/>
      <point x="150" y="76" type="curve" smooth="yes"/>
      <point x="130" y="51"/>
      <point x="90" y="39"/>
      <point x="29" y="39" type="curve"/>
    </contour>
  </outline>
</glyph>
<glyph name="w" format="2">
  <advance width="1540"/>
  <unicode hex="0077"/>
  <outline>
    <contour>
      <point x="472" y="-31" type="line"/>
      <point x="511" y="-31" type="line"/>
      <point x="786" y="581" type="line"/>
      <point x="1025" y="-31" type="line"/>
      <point x="1068" y="-31" type="line"/>
      <point x="1386" y="794" type="line" smooth="yes"/>
      <point x="1414" y="865"/>
      <point x="1459" y="907"/>
      <point x="1522" y="914" type="curve"/>
      <point x="1522" y="954" type="line"/>
      <point x="1220" y="954" type="line"/>
      <point x="1220" y="914" type="line"/>
      <point x="1287" y="914"/>
      <point x="1320" y="897"/>
      <point x="1320" y="861" type="curve" smooth="yes"/>
      <point x="1320" y="841"/>
      <point x="1313" y="811"/>
      <point x="1297" y="771" type="curve" smooth="yes"/>
      <point x="1098" y="246" type="line"/>
      <point x="881" y="794" type="line"/>
      <point x="875" y="804"/>
      <point x="871" y="817"/>
      <point x="871" y="831" type="curve" smooth="yes"/>
      <point x="871" y="858"/>
      <point x="879" y="878"/>
      <point x="895" y="891" type="curve" smooth="yes"/>
      <point x="912" y="904"/>
      <point x="947" y="911"/>
      <point x="1001" y="914" type="curve"/>
      <point x="1001" y="954" type="line"/>
      <point x="545" y="954" type="line"/>
      <point x="545" y="914" type="line"/>
      <point x="588" y="912"/>
      <point x="616" y="908"/>
      <point x="632" y="898" type="curve" smooth="yes"/>
      <point x="661" y="879"/>
      <point x="682" y="851"/>
      <point x="696" y="812" type="curve" smooth="yes"/>
      <point x="751" y="671" type="line"/>
      <point x="545" y="223" type="line"/>
      <point x="340" y="771" type="line" smooth="yes"/>
      <point x="329" y="802"/>
      <point x="325" y="828"/>
      <point x="325" y="849" type="curve" smooth="yes"/>
      <point x="325" y="869"/>
      <point x="330" y="885"/>
      <point x="342" y="895" type="curve"/>
      <point x="353" y="907"/>
      <point x="378" y="912"/>
      <point x="415" y="914" type="curve"/>
      <point x="415" y="954" type="line"/>
      <point x="13" y="954" type="line"/>
      <point x="13" y="914" type="line"/>
      <point x="57" y="907"/>
      <point x="89" y="892"/>
      <point x="107" y="874" type="curve" smooth="yes"/>
      <point x="126" y="857"/>
      <point x="144" y="821"/>
      <point x="164" y="771" type="curve" smooth="yes"/>
    </contour>
  </outline>
</glyph>
<glyph name="braceleft" format="2">
  <advance width="1018"/>
  <unicode hex="007B"/>
  <outline>
    <contour>
      <point x="805" y="-459" type="curve"/>
      <point x="805" y="-422" type="line"/>
      <point x="651" y="-385"/>
      <point x="573" y="-293"/>
      <point x="573" y="-147" type="curve" smooth="yes"/>
      <point x="573" y="-114"/>
      <point x="582" y="-67"/>
      <point x="596" y="-6" type="curve" smooth="yes"/>
      <point x="612" y="57"/>
      <point x="619" y="104"/>
      <point x="619" y="137" type="curve" smooth="yes"/>
      <point x="619" y="316"/>
      <point x="525" y="440"/>
      <point x="335" y="511" type="curve"/>
      <point x="525" y="581"/>
      <point x="619" y="704"/>
      <point x="619" y="879" type="curve" smooth="yes"/>
      <point x="619" y="912"/>
      <point x="612" y="961"/>
      <point x="596" y="1024" type="curve" smooth="yes"/>
      <point x="582" y="1088"/>
      <point x="573" y="1135"/>
      <point x="573" y="1168" type="curve" smooth="yes"/>
      <point x="573" y="1313"/>
      <point x="651" y="1404"/>
      <point x="805" y="1443" type="curve"/>
      <point x="805" y="1480" type="line"/>
      <point x="706" y="1469"/>
      <point x="616" y="1429"/>
      <point x="539" y="1356" type="curve" smooth="yes"/>
      <point x="458" y="1278"/>
      <point x="418" y="1191"/>
      <point x="418" y="1095" type="curve" smooth="yes"/>
      <point x="418" y="1054"/>
      <point x="426" y="995"/>
      <point x="442" y="919" type="curve" smooth="yes"/>
      <point x="458" y="844"/>
      <point x="465" y="791"/>
      <point x="465" y="761" type="curve" smooth="yes"/>
      <point x="465" y="701"/>
      <point x="438" y="649"/>
      <point x="383" y="605" type="curve" smooth="yes"/>
      <point x="336" y="566"/>
      <point x="285" y="543"/>
      <point x="227" y="538" type="curve"/>
      <point x="227" y="483" type="line"/>
      <point x="285" y="478"/>
      <point x="336" y="453"/>
      <point x="383" y="415" type="curve" smooth="yes"/>
      <point x="438" y="369"/>
      <point x="465" y="317"/>
      <point x="465" y="256" type="curve" smooth="yes"/>
      <point x="465" y="227"/>
      <point x="458" y="177"/>
      <point x="442" y="106" type="curve" smooth="yes"/>
      <point x="426" y="34"/>
      <point x="418" y="-21"/>
      <point x="418" y="-60" type="curve" smooth="yes"/>
      <point x="418" y="-160"/>
      <point x="458" y="-250"/>
      <point x="535" y="-327" type="curve" smooth="yes"/>
      <point x="613" y="-405"/>
      <point x="704" y="-448"/>
    </contour>
  </outline>
</glyph>
<glyph name="exclamdown" format="2">
  <advance width="709"/>
  <unicode hex="00A1"/>
  <outline>
    <contour>
      <point x="352" y="-459" type="curve" smooth="yes"/>
      <point x="420" y="-459"/>
      <point x="473" y="-406"/>
      <point x="473" y="-313" type="curve" smooth="yes"/>
      <point x="473" y="-297"/>
      <point x="471" y="-282"/>
      <point x="465" y="-232" type="curve" smooth="yes"/>
      <point x="375" y="610" type="line"/>
      <point x="333" y="610" type="line"/>
      <point x="240" y="-232" type="line" smooth="yes"/>
      <point x="236" y="-262"/>
      <point x="236" y="-287"/>
      <point x="236" y="-303" type="curve" smooth="yes"/>
      <point x="236" y="-418"/>
      <point x="301" y="-459"/>
    </contour>
    <contour>
      <point x="354" y="783" type="curve" smooth="yes"/>
      <point x="408" y="783"/>
      <point x="471" y="821"/>
      <point x="471" y="895" type="curve" smooth="yes"/>
      <point x="471" y="979"/>
      <point x="401" y="1015"/>
      <point x="354" y="1015" type="curve" smooth="yes"/>
      <point x="293" y="1015"/>
      <point x="240" y="962"/>
      <point x="240" y="895" type="curve" smooth="yes"/>
      <point x="240" y="825"/>
      <point x="301" y="783"/>
    </contour>
  </outline>
</glyph>
<glyph name="cent" format="2">
  <advance width="1066"/>
  <unicode hex="00A2"/>
  <outline>
    <contour>
      <point x="175" y="-393" type="line"/>
      <point x="250" y="-393" type="line"/>
      <point x="321" y="-197" type="line" smooth="yes"/>
      <point x="350" y="-119"/>
      <point x="369" y="-64"/>
      <point x="391" y="0" type="curve"/>
      <point x="436" y="-19"/>
      <point x="484" y="-31"/>
      <point x="537" y="-31" type="curve" smooth="yes"/>
      <point x="722" y="-31"/>
      <point x="898" y="132"/>
      <point x="934" y="361" type="curve"/>
      <point x="905" y="377" type="line"/>
      <point x="822" y="179"/>
      <point x="726" y="135"/>
      <point x="610" y="135" type="curve" smooth="yes"/>
      <point x="552" y="135"/>
      <point x="502" y="153"/>
      <point x="459" y="182" type="curve"/>
      <point x="690" y="819" type="line"/>
      <point x="694" y="810"/>
      <point x="696" y="799"/>
      <point x="696" y="786" type="curve"/>
      <point x="705" y="672"/>
      <point x="770" y="664"/>
      <point x="812" y="664" type="curve" smooth="yes"/>
      <point x="878" y="664"/>
      <point x="910" y="704"/>
      <point x="910" y="752" type="curve" smooth="yes"/>
      <point x="910" y="807"/>
      <point x="878" y="858"/>
      <point x="817" y="905" type="curve" smooth="yes"/>
      <point x="794" y="925"/>
      <point x="768" y="941"/>
      <point x="739" y="952" type="curve"/>
      <point x="893" y="1379" type="line"/>
      <point x="819" y="1379" type="line"/>
      <point x="672" y="971" type="line"/>
      <point x="644" y="978"/>
      <point x="616" y="979"/>
      <point x="586" y="979" type="curve" smooth="yes"/>
      <point x="338" y="979"/>
      <point x="131" y="777"/>
      <point x="131" y="475" type="curve" smooth="yes"/>
      <point x="131" y="269"/>
      <point x="213" y="116"/>
      <point x="332" y="33" type="curve"/>
    </contour>
    <contour>
      <point x="403" y="236" type="curve"/>
      <point x="335" y="315"/>
      <point x="301" y="437"/>
      <point x="301" y="565" type="curve" smooth="yes"/>
      <point x="301" y="762"/>
      <point x="393" y="912"/>
      <point x="551" y="912" type="curve" smooth="yes"/>
      <point x="591" y="912"/>
      <point x="617" y="903"/>
      <point x="641" y="890" type="curve"/>
      <point x="615" y="815"/>
      <point x="596" y="761"/>
      <point x="567" y="682" type="curve" smooth="yes"/>
      <point x="480" y="443" type="line" smooth="yes"/>
      <point x="439" y="328"/>
      <point x="404" y="236"/>
    </contour>
  </outline>
</glyph>
<glyph name="sterling" format="2">
  <advance width="1066"/>
  <unicode hex="00A3"/>
  <outline>
    <contour>
      <point x="184" y="-24" type="curve" smooth="yes"/>
      <point x="289" y="-24"/>
      <point x="352" y="88"/>
      <point x="379" y="143" type="curve"/>
      <point x="526" y="35"/>
      <point x="586" y="-24"/>
      <point x="717" y="-24" type="curve" smooth="yes"/>
      <point x="901" y="-24"/>
      <point x="998" y="156"/>
      <point x="1017" y="315" type="curve"/>
      <point x="977" y="326" type="line"/>
      <point x="962" y="266"/>
      <point x="924" y="158"/>
      <point x="758" y="158" type="curve" smooth="yes"/>
      <point x="659" y="158"/>
      <point x="555" y="199"/>
      <point x="420" y="244" type="curve"/>
      <point x="500" y="453"/>
      <point x="483" y="637"/>
      <point x="483" y="686" type="curve"/>
      <point x="752" y="686" type="line"/>
      <point x="752" y="785" type="line"/>
      <point x="483" y="785" type="line"/>
      <point x="481" y="808"/>
      <point x="461" y="998"/>
      <point x="461" y="1090" type="curve" smooth="yes"/>
      <point x="461" y="1312"/>
      <point x="541" y="1383"/>
      <point x="650" y="1383" type="curve" smooth="yes"/>
      <point x="739" y="1383"/>
      <point x="776" y="1326"/>
      <point x="776" y="1263" type="curve" smooth="yes"/>
      <point x="776" y="1177"/>
      <point x="815" y="1141"/>
      <point x="859" y="1141" type="curve" smooth="yes"/>
      <point x="899" y="1141"/>
      <point x="939" y="1186"/>
      <point x="939" y="1228" type="curve" smooth="yes"/>
      <point x="939" y="1334"/>
      <point x="837" y="1441"/>
      <point x="677" y="1441" type="curve" smooth="yes"/>
      <point x="500" y="1441"/>
      <point x="289" y="1301"/>
      <point x="289" y="992" type="curve" smooth="yes"/>
      <point x="289" y="956"/>
      <point x="297" y="890"/>
      <point x="303" y="785" type="curve"/>
      <point x="101" y="785" type="line"/>
      <point x="101" y="686" type="line"/>
      <point x="303" y="686" type="line"/>
      <point x="317" y="518"/>
      <point x="332" y="369"/>
      <point x="322" y="262" type="curve"/>
      <point x="303" y="266"/>
      <point x="276" y="270"/>
      <point x="232" y="270" type="curve" smooth="yes"/>
      <point x="175" y="270"/>
      <point x="63" y="242"/>
      <point x="63" y="109" type="curve" smooth="yes"/>
      <point x="63" y="44"/>
      <point x="95" y="-24"/>
    </contour>
    <contour>
      <point x="193" y="37" type="curve" smooth="yes"/>
      <point x="156" y="37"/>
      <point x="122" y="59"/>
      <point x="122" y="117" type="curve" smooth="yes"/>
      <point x="122" y="168"/>
      <point x="156" y="206"/>
      <point x="221" y="206" type="curve" smooth="yes"/>
      <point x="266" y="206"/>
      <point x="297" y="188"/>
      <point x="310" y="177" type="curve"/>
      <point x="289" y="92"/>
      <point x="248" y="37"/>
    </contour>
  </outline>
</glyph>
<glyph name="brokenbar" format="2">
  <advance width="707"/>
  <unicode hex="00A6"/>
  <outline>
    <contour>
      <point x="301" y="688" type="line"/>
      <point x="405" y="688" type="line"/>
      <point x="405" y="1508" type="line"/>
      <point x="301" y="1508" type="line"/>
    </contour>
    <contour>
      <point x="301" y="-406" type="line"/>
      <point x="405" y="-406" type="line"/>
      <point x="405" y="413" type="line"/>
      <point x="301" y="413" type="line"/>
    </contour>
  </outline>
</glyph>
<glyph name="macron" format="2">
  <advance width="668"/>
  <unicode hex="00AF"/>
  <outline>
    <contour>
      <point x="0" y="1170" type="line"/>
      <point x="668" y="1170" type="line"/>
      <point x="668" y="1285" type="line"/>
      <point x="0" y="1285" type="line"/>
    </contour>
  </outline>
</glyph>
<glyph name="mu" format="2">
  <advance width="1207"/>
  <unicode hex="00B5"/>
  <outline>
    <contour>
      <point x="219" y="-461" type="curve" smooth="yes"/>
      <point x="270" y="-461"/>
      <point x="317" y="-412"/>
      <point x="317" y="-344" type="curve" smooth="yes"/>
      <point x="317" y="-260"/>
      <point x="268" y="-120"/>
      <point x="268" y="10" type="curve" smooth="yes"/>
      <point x="268" y="59" type="line"/>
      <point x="319" y="-27"/>
      <point x="399" y="-31"/>
      <point x="430" y="-31" type="curve" smooth="yes"/>
      <point x="539" y="-31"/>
      <point x="639" y="33"/>
      <point x="757" y="168" type="curve"/>
      <point x="776" y="13"/>
      <point x="838" y="-31"/>
      <point x="920" y="-31" type="curve" smooth="yes"/>
      <point x="1026" y="-31"/>
      <point x="1114" y="39"/>
      <point x="1127" y="215" type="curve"/>
      <point x="1085" y="215" type="line"/>
      <point x="1066" y="115"/>
      <point x="1043" y="86"/>
      <point x="999" y="86" type="curve" smooth="yes"/>
      <point x="962" y="86"/>
      <point x="930" y="90"/>
      <point x="930" y="274" type="curve" smooth="yes"/>
      <point x="930" y="950" type="line"/>
      <point x="757" y="950" type="line"/>
      <point x="757" y="238" type="line"/>
      <point x="674" y="145"/>
      <point x="592" y="97"/>
      <point x="512" y="97" type="curve" smooth="yes"/>
      <point x="446" y="97"/>
      <point x="399" y="141"/>
      <point x="383" y="193" type="curve" smooth="yes"/>
      <point x="371" y="228"/>
      <point x="365" y="295"/>
      <point x="365" y="397" type="curve" smooth="yes"/>
      <point x="365" y="950" type="line"/>
      <point x="195" y="950" type="line"/>
      <point x="195" y="199" type="line" smooth="yes"/>
      <point x="195" y="-195"/>
      <point x="128" y="-219"/>
      <point x="128" y="-348" type="curve" smooth="yes"/>
      <point x="128" y="-413"/>
      <point x="172" y="-461"/>
    </contour>
  </outline>
</glyph>
<glyph name="paragraph" format="2">
  <advance width="1600"/>
  <unicode hex="00B6"/>
  <outline>
    <contour>
      <point x="801" y="-392" type="line"/>
      <point x="887" y="-392" type="line"/>
      <point x="887" y="1682" type="line"/>
      <point x="1107" y="1682" type="line"/>
      <point x="1107" y="-392" type="line"/>
      <point x="1197" y="-392" type="line"/>
      <point x="1197" y="1682" type="line"/>
      <point x="1353" y="1682" type="line"/>
      <point x="1353" y="1747" type="line"/>
      <point x="765" y="1747" type="line" smooth="yes"/>
      <point x="511" y="1747"/>
      <point x="229" y="1647"/>
      <point x="229" y="1303" type="curve" smooth="yes"/>
      <point x="229" y="929"/>
      <point x="526" y="859"/>
      <point x="801" y="852" type="curve"/>
    </contour>
  </outline>
</glyph>
<glyph name="onehalf" format="2">
  <advance width="1578"/>
  <unicode hex="00BD"/>
  <outline>
    <contour>
      <point x="244" y="-15" type="line"/>
      <point x="346" y="-15" type="line"/>
      <point x="1241" y="1437" type="line"/>
      <point x="1141" y="1437" type="line"/>
    </contour>
    <contour>
      <point x="156" y="546" type="line"/>
      <point x="479" y="546" type="line"/>
      <point x="479" y="569" type="line"/>
      <point x="371" y="569"/>
      <point x="371" y="586"/>
      <point x="371" y="696" type="curve" smooth="yes"/>
      <point x="371" y="1418" type="line"/>
      <point x="348" y="1418" type="line"/>
      <point x="141" y="1317" type="line"/>
      <point x="149" y="1294" type="line"/>
      <point x="279" y="1355"/>
      <point x="266" y="1270"/>
      <point x="266" y="1156" type="curve" smooth="yes"/>
      <point x="266" y="696" type="line" smooth="yes"/>
      <point x="266" y="586"/>
      <point x="262" y="569"/>
      <point x="156" y="569" type="curve"/>
    </contour>
    <contour>
      <point x="870" y="-8" type="line"/>
      <point x="1374" y="-8" type="line"/>
      <point x="1437" y="156" type="line"/>
      <point x="1412" y="156" type="line"/>
      <point x="1372" y="99"/>
      <point x="1359" y="88"/>
      <point x="1230" y="88" type="curve" smooth="yes"/>
      <point x="1006" y="88" type="line"/>
      <point x="1032" y="111"/>
      <point x="1097" y="179"/>
      <point x="1201" y="293" type="curve" smooth="yes"/>
      <point x="1272" y="371"/>
      <point x="1383" y="506"/>
      <point x="1383" y="639" type="curve" smooth="yes"/>
      <point x="1383" y="781"/>
      <point x="1261" y="865"/>
      <point x="1139" y="865" type="curve" smooth="yes"/>
      <point x="950" y="865"/>
      <point x="905" y="700"/>
      <point x="897" y="625" type="curve"/>
      <point x="918" y="625" type="line"/>
      <point x="934" y="672"/>
      <point x="985" y="768"/>
      <point x="1106" y="768" type="curve" smooth="yes"/>
      <point x="1159" y="768"/>
      <point x="1275" y="728"/>
      <point x="1275" y="582" type="curve" smooth="yes"/>
      <point x="1275" y="510"/>
      <point x="1243" y="432"/>
      <point x="1184" y="346" type="curve" smooth="yes"/>
      <point x="1123" y="260"/>
      <point x="1019" y="151"/>
      <point x="870" y="15" type="curve"/>
    </contour>
  </outline>
</glyph>
<glyph name="Eth" format="2">
  <advance width="1539"/>
  <unicode hex="00D0"/>
  <anchor x="745" y="-104" name="L"/>
  <anchor x="745" y="1492" name="U"/>
  <outline>
    <component base="D"/>
    <contour>
      <point x="36" y="705" type="line"/>
      <point x="849" y="705" type="line"/>
      <point x="849" y="823" type="line"/>
      <point x="36" y="823" type="line"/>
    </contour>
  </outline>
</glyph>
<glyph name="pi" format="2">
  <advance width="1217"/>
  <unicode hex="03C0"/>
  <anchor x="609" y="-104" name="L"/>
  <anchor x="609" y="1040" name="U"/>
  <outline>
    <contour>
      <point x="186" y="-24" type="curve" smooth="yes"/>
      <point x="352" y="-24"/>
      <point x="444" y="141"/>
      <point x="444" y="352" type="curve" smooth="yes"/>
      <point x="444" y="821" type="line"/>
      <point x="723" y="821" type="line"/>
      <point x="723" y="242" type="line" smooth="yes"/>
      <point x="723" y="124"/>
      <point x="745" y="-24"/>
      <point x="945" y="-24" type="curve" smooth="yes"/>
      <point x="1070" y="-24"/>
      <point x="1177" y="88"/>
      <point x="1177" y="310" type="curve"/>
      <point x="1099" y="310" type="line"/>
      <point x="1099" y="137"/>
      <point x="1036" y="57"/>
      <point x="973" y="57" type="curve" smooth="yes"/>
      <point x="886" y="57"/>
      <point x="897" y="139"/>
      <point x="897" y="276" type="curve" smooth="yes"/>
      <point x="897" y="821" type="line"/>
      <point x="1023" y="821" type="line" smooth="yes"/>
      <point x="1137" y="821"/>
      <point x="1177" y="905"/>
      <point x="1177" y="1006" type="curve"/>
      <point x="1125" y="1006" type="line"/>
      <point x="1116" y="977"/>
      <point x="1072" y="952"/>
      <point x="1026" y="952" type="curve" smooth="yes"/>
      <point x="289" y="952" type="line" smooth="yes"/>
      <point x="117" y="952"/>
      <point x="50" y="797"/>
      <point x="50" y="705" type="curve"/>
      <point x="111" y="705" type="line"/>
      <point x="122" y="739"/>
      <point x="126" y="821"/>
      <point x="266" y="821" type="curve" smooth="yes"/>
      <point x="352" y="821" type="line"/>
      <point x="352" y="563" type="line" smooth="yes"/>
      <point x="352" y="179"/>
      <point x="248" y="126"/>
      <point x="186" y="126" type="curve" smooth="yes"/>
      <point x="139" y="126"/>
      <point x="109" y="182"/>
      <point x="109" y="262" type="curve"/>
      <point x="40" y="262" type="line"/>
      <point x="40" y="120"/>
      <point x="67" y="-24"/>
    </contour>
  </outline>
</glyph>
<glyph name="uni2010" format="2">
  <advance width="840"/>
  <unicode hex="2010"/>
  <anchor x="420" y="1040" name="U"/>
  <outline>
    <contour>
      <point x="104" y="469" type="line"/>
      <point x="736" y="469" type="line"/>
      <point x="736" y="549" type="line"/>
      <point x="104" y="549" type="line"/>
    </contour>
  </outline>
</glyph>
<glyph name="quoteleft" format="2">
  <advance width="1600"/>
  <unicode hex="2018"/>
  <outline>
    <component base="uniFF0C" xScale="0.1" yScale="0.1" xOffset="1440" yOffset="1936"/>
    <contour>
      <point x="448" y="1223" type="curve" smooth="yes"/>
      <point x="484" y="1223"/>
      <point x="518" y="1234"/>
      <point x="550" y="1257" type="curve" smooth="yes"/>
      <point x="582" y="1280"/>
      <point x="598" y="1313"/>
      <point x="598" y="1356" type="curve" smooth="yes"/>
      <point x="598" y="1393"/>
      <point x="586" y="1422"/>
      <point x="562" y="1445" type="curve" smooth="yes"/>
      <point x="538" y="1468"/>
      <point x="512" y="1479"/>
      <point x="483" y="1479" type="curve" smooth="yes"/>
      <point x="472" y="1479"/>
      <point x="457" y="1476"/>
      <point x="437" y="1469" type="curve" smooth="yes"/>
      <point x="417" y="1463"/>
      <point x="404" y="1460"/>
      <point x="397" y="1460" type="curve" smooth="yes"/>
      <point x="368" y="1460"/>
      <point x="354" y="1483"/>
      <point x="354" y="1530" type="curve" smooth="yes"/>
      <point x="354" y="1612"/>
      <point x="418" y="1690"/>
      <point x="547" y="1765" type="curve"/>
      <point x="547" y="1817" type="line"/>
      <point x="349" y="1750"/>
      <point x="250" y="1627"/>
      <point x="250" y="1450" type="curve" smooth="yes"/>
      <point x="250" y="1385"/>
      <point x="272" y="1329"/>
      <point x="315" y="1284" type="curve" smooth="yes"/>
      <point x="353" y="1243"/>
      <point x="397" y="1223"/>
    </contour>
  </outline>
</glyph>
<glyph name="guilsinglright" format="2">
  <advance width="709"/>
  <unicode hex="203A"/>
  <outline>
    <contour>
      <point x="126" y="-8" type="line"/>
      <point x="182" y="-8" type="line"/>
      <point x="586" y="479" type="line"/>
      <point x="182" y="971" type="line"/>
      <point x="126" y="971" type="line"/>
      <point x="381" y="479" type="line"/>
    </contour>
  </outline>
</glyph>
<glyph name="uni2219" format="2">
  <advance width="1573"/>
  <unicode hex="2219"/>
  <outline>
    <contour>
      <point x="275" y="745" type="curve" smooth="yes"/>
      <point x="336" y="745"/>
      <point x="390" y="766"/>
      <point x="435" y="811" type="curve" smooth="yes"/>
      <point x="479" y="854"/>
      <point x="499" y="907"/>
      <point x="499" y="968" type="curve" smooth="yes"/>
      <point x="499" y="1031"/>
      <point x="478" y="1084"/>
      <point x="435" y="1128" type="curve" smooth="yes"/>
      <point x="390" y="1171"/>
      <point x="337" y="1193"/>
      <point x="275" y="1193" type="curve" smooth="yes"/>
      <point x="213" y="1193"/>
      <point x="160" y="1171"/>
      <point x="117" y="1128" type="curve" smooth="yes"/>
      <point x="73" y="1084"/>
      <point x="51" y="1031"/>
      <point x="51" y="968" type="curve" smooth="yes"/>
      <point x="51" y="907"/>
      <point x="73" y="854"/>
      <point x="117" y="811" type="curve" smooth="yes"/>
      <point x="160" y="766"/>
      <point x="213" y="745"/>
    </contour>
  </outline>
</glyph>
<glyph name="uni2423" format="2">
  <advance width="471"/>
  <unicode hex="2423"/>
  <outline>
    <contour>
      <point x="0" y="-266" type="line"/>
      <point x="471" y="-266" type="line"/>
      <point x="471" y="0" type="line"/>
      <point x="388" y="0" type="line"/>
      <point x="388" y="-184" type="line"/>
      <point x="82" y="-184" type="line"/>
      <point x="82" y="0" type="line"/>
      <point x="0" y="0" type="line"/>
    </contour>
  </outline>
</glyph>
<glyph name="uni246C" format="2">
  <advance width="1600"/>
  <unicode hex="246C"/>
  <outline>
    <contour>
      <point x="799" y="182" type="curve" smooth="yes"/>
      <point x="1143" y="182"/>
      <point x="1423" y="462"/>
      <point x="1423" y="806" type="curve" smooth="yes"/>
      <point x="1423" y="1150"/>
      <point x="1143" y="1429"/>
      <point x="799" y="1429" type="curve" smooth="yes"/>
      <point x="456" y="1429"/>
      <point x="176" y="1150"/>
      <point x="176" y="806" type="curve" smooth="yes"/>
      <point x="176" y="462"/>
      <point x="456" y="182"/>
    </contour>
    <contour>
      <point x="462" y="464" type="line"/>
      <point x="714" y="464" type="line"/>
      <point x="714" y="482" type="line"/>
      <point x="673" y="482"/>
      <point x="650" y="489"/>
      <point x="641" y="501" type="curve" smooth="yes"/>
      <point x="634" y="511"/>
      <point x="631" y="538"/>
      <point x="631" y="583" type="curve" smooth="yes"/>
      <point x="631" y="1150" type="line"/>
      <point x="613" y="1150" type="line"/>
      <point x="450" y="1070" type="line"/>
      <point x="457" y="1054" type="line"/>
      <point x="478" y="1064"/>
      <point x="496" y="1069"/>
      <point x="509" y="1069" type="curve" smooth="yes"/>
      <point x="528" y="1069"/>
      <point x="541" y="1057"/>
      <point x="546" y="1033" type="curve" smooth="yes"/>
      <point x="548" y="1021"/>
      <point x="548" y="992"/>
      <point x="548" y="945" type="curve" smooth="yes"/>
      <point x="548" y="583" type="line" smooth="yes"/>
      <point x="548" y="539"/>
      <point x="545" y="512"/>
      <point x="537" y="501" type="curve" smooth="yes"/>
      <point x="527" y="489"/>
      <point x="502" y="482"/>
      <point x="462" y="482" type="curve"/>
    </contour>
    <contour>
      <point x="799" y="265" type="curve" smooth="yes"/>
      <point x="501" y="265"/>
      <point x="259" y="507"/>
      <point x="259" y="806" type="curve" smooth="yes"/>
      <point x="259" y="1104"/>
      <point x="501" y="1346"/>
      <point x="799" y="1346" type="curve" smooth="yes"/>
      <point x="1098" y="1346"/>
      <point x="1340" y="1104"/>
      <point x="1340" y="806" type="curve" smooth="yes"/>
      <point x="1340" y="507"/>
      <point x="1098" y="265"/>
    </contour>
    <contour>
      <point x="890" y="458" type="curve" smooth="yes"/>
      <point x="971" y="458"/>
      <point x="1035" y="480"/>
      <point x="1083" y="522" type="curve" smooth="yes"/>
      <point x="1132" y="566"/>
      <point x="1155" y="622"/>
      <point x="1155" y="691" type="curve" smooth="yes"/>
      <point x="1155" y="778"/>
      <point x="1114" y="837"/>
      <point x="1030" y="868" type="curve"/>
      <point x="1091" y="920"/>
      <point x="1121" y="970"/>
      <point x="1121" y="1019" type="curve" smooth="yes"/>
      <point x="1121" y="1047"/>
      <point x="1111" y="1075"/>
      <point x="1091" y="1101" type="curve" smooth="yes"/>
      <point x="1064" y="1136"/>
      <point x="1021" y="1154"/>
      <point x="965" y="1154" type="curve" smooth="yes"/>
      <point x="913" y="1154"/>
      <point x="870" y="1136"/>
      <point x="836" y="1100" type="curve" smooth="yes"/>
      <point x="820" y="1082"/>
      <point x="802" y="1053"/>
      <point x="783" y="1013" type="curve"/>
      <point x="799" y="1004" type="line"/>
      <point x="834" y="1059"/>
      <point x="877" y="1086"/>
      <point x="929" y="1086" type="curve" smooth="yes"/>
      <point x="955" y="1086"/>
      <point x="979" y="1078"/>
      <point x="999" y="1063" type="curve" smooth="yes"/>
      <point x="1026" y="1042"/>
      <point x="1039" y="1013"/>
      <point x="1039" y="973" type="curve" smooth="yes"/>
      <point x="1039" y="921"/>
      <point x="1016" y="881"/>
      <point x="972" y="851" type="curve" smooth="yes"/>
      <point x="943" y="832"/>
      <point x="915" y="821"/>
      <point x="886" y="818" type="curve"/>
      <point x="886" y="802" type="line"/>
      <point x="924" y="801"/>
      <point x="957" y="795"/>
      <point x="984" y="783" type="curve" smooth="yes"/>
      <point x="1049" y="756"/>
      <point x="1082" y="706"/>
      <point x="1082" y="632" type="curve" smooth="yes"/>
      <point x="1082" y="594"/>
      <point x="1068" y="563"/>
      <point x="1042" y="538" type="curve" smooth="yes"/>
      <point x="1016" y="513"/>
      <point x="988" y="501"/>
      <point x="955" y="501" type="curve" smooth="yes"/>
      <point x="932" y="501"/>
      <point x="905" y="508"/>
      <point x="878" y="524" type="curve" smooth="yes"/>
      <point x="849" y="539"/>
      <point x="828" y="546"/>
      <point x="813" y="546" type="curve" smooth="yes"/>
      <point x="802" y="546"/>
      <point x="794" y="543"/>
      <point x="785" y="537" type="curve"/>
      <point x="778" y="530"/>
      <point x="773" y="521"/>
      <point x="773" y="512" type="curve" smooth="yes"/>
      <point x="773" y="476"/>
      <point x="813" y="458"/>
    </contour>
  </outline>
</glyph>
<glyph name="uni2472" format="2">
  <advance width="1600"/>
  <unicode hex="2472"/>
  <outline>
    <contour>
      <point x="799" y="182" type="curve" smooth="yes"/>
      <point x="1143" y="182"/>
      <point x="1423" y="462"/>
      <point x="1423" y="806" type="curve" smooth="yes"/>
      <point x="1423" y="1150"/>
      <point x="1143" y="1429"/>
      <point x="799" y="1429" type="curve" smooth="yes"/>
      <point x="456" y="1429"/>
      <point x="176" y="1150"/>
      <point x="176" y="806" type="curve" smooth="yes"/>
      <point x="176" y="462"/>
      <point x="456" y="182"/>
    </contour>
    <contour>
      <point x="462" y="464" type="line"/>
      <point x="714" y="464" type="line"/>
      <point x="714" y="482" type="line"/>
      <point x="673" y="482"/>
      <point x="650" y="489"/>
      <point x="641" y="501" type="curve" smooth="yes"/>
      <point x="634" y="511"/>
      <point x="631" y="538"/>
      <point x="631" y="583" type="curve" smooth="yes"/>
      <point x="631" y="1150" type="line"/>
      <point x="613" y="1150" type="line"/>
      <point x="450" y="1070" type="line"/>
      <point x="457" y="1054" type="line"/>
      <point x="478" y="1064"/>
      <point x="496" y="1069"/>
      <point x="509" y="1069" type="curve" smooth="yes"/>
      <point x="528" y="1069"/>
      <point x="541" y="1057"/>
      <point x="546" y="1033" type="curve" smooth="yes"/>
      <point x="548" y="1021"/>
      <point x="548" y="992"/>
      <point x="548" y="945" type="curve" smooth="yes"/>
      <point x="548" y="583" type="line" smooth="yes"/>
      <point x="548" y="539"/>
      <point x="545" y="512"/>
      <point x="537" y="501" type="curve" smooth="yes"/>
      <point x="527" y="489"/>
      <point x="502" y="482"/>
      <point x="462" y="482" type="curve"/>
    </contour>
    <contour>
      <point x="799" y="265" type="curve" smooth="yes"/>
      <point x="501" y="265"/>
      <point x="259" y="507"/>
      <point x="259" y="806" type="curve" smooth="yes"/>
      <point x="259" y="1104"/>
      <point x="501" y="1346"/>
      <point x="799" y="1346" type="curve" smooth="yes"/>
      <point x="1098" y="1346"/>
      <point x="1340" y="1104"/>
      <point x="1340" y="806" type="curve" smooth="yes"/>
      <point x="1340" y="507"/>
      <point x="1098" y="265"/>
    </contour>
    <contour>
      <point x="779" y="452" type="line"/>
      <point x="807" y="452" type="line" smooth="yes"/>
      <point x="905" y="452"/>
      <point x="996" y="497"/>
      <point x="1076" y="585" type="curve" smooth="yes"/>
      <point x="1151" y="669"/>
      <point x="1189" y="765"/>
      <point x="1189" y="876" type="curve" smooth="yes"/>
      <point x="1189" y="946"/>
      <point x="1170" y="1008"/>
      <point x="1133" y="1063" type="curve" smooth="yes"/>
      <point x="1092" y="1123"/>
      <point x="1039" y="1153"/>
      <point x="974" y="1153" type="curve" smooth="yes"/>
      <point x="918" y="1153"/>
      <point x="870" y="1130"/>
      <point x="829" y="1085" type="curve" smooth="yes"/>
      <point x="788" y="1039"/>
      <point x="766" y="981"/>
      <point x="766" y="912" type="curve" smooth="yes"/>
      <point x="766" y="858"/>
      <point x="780" y="813"/>
      <point x="810" y="775" type="curve" smooth="yes"/>
      <point x="842" y="733"/>
      <point x="884" y="712"/>
      <point x="936" y="712" type="curve" smooth="yes"/>
      <point x="980" y="712"/>
      <point x="1027" y="729"/>
      <point x="1077" y="763" type="curve"/>
      <point x="1058" y="683"/>
      <point x="1020" y="612"/>
      <point x="963" y="550" type="curve" smooth="yes"/>
      <point x="915" y="500"/>
      <point x="854" y="474"/>
      <point x="779" y="471" type="curve"/>
    </contour>
    <contour>
      <point x="977" y="757" type="curve" smooth="yes"/>
      <point x="940" y="757"/>
      <point x="910" y="776"/>
      <point x="888" y="814" type="curve" smooth="yes"/>
      <point x="865" y="852"/>
      <point x="854" y="902"/>
      <point x="854" y="964" type="curve" smooth="yes"/>
      <point x="854" y="1013"/>
      <point x="865" y="1051"/>
      <point x="886" y="1079" type="curve" smooth="yes"/>
      <point x="905" y="1106"/>
      <point x="932" y="1119"/>
      <point x="964" y="1121" type="curve" smooth="yes"/>
      <point x="996" y="1122"/>
      <point x="1024" y="1103"/>
      <point x="1051" y="1066" type="curve" smooth="yes"/>
      <point x="1080" y="1023"/>
      <point x="1095" y="969"/>
      <point x="1095" y="901" type="curve" smooth="yes"/>
      <point x="1095" y="881"/>
      <point x="1091" y="846"/>
      <point x="1085" y="798" type="curve"/>
      <point x="1078" y="790"/>
      <point x="1064" y="781"/>
      <point x="1040" y="771" type="curve" smooth="yes"/>
      <point x="1017" y="762"/>
      <point x="996" y="757"/>
    </contour>
  </outline>
</glyph>
<glyph name="uni25CC" format="2">
  <advance width="1108"/>
  <unicode hex="25CC"/>
  <anchor x="554" y="0" name="H"/>
  <anchor x="554" y="-104" name="L"/>
  <anchor x="606" y="0" name="O"/>
  <anchor x="554" y="1040" name="U"/>
  <outline>
    <contour>
      <point x="159" y="589" type="curve" smooth="yes"/>
      <point x="184" y="589"/>
      <point x="210" y="610"/>
      <point x="210" y="637" type="curve" smooth="yes"/>
      <point x="210" y="657"/>
      <point x="197" y="677"/>
      <point x="177" y="685" type="curve" smooth="yes"/>
      <point x="171" y="687"/>
      <point x="165" y="689"/>
      <point x="159" y="689" type="curve" smooth="yes"/>
      <point x="134" y="689"/>
      <point x="110" y="667"/>
      <point x="110" y="639" type="curve" smooth="yes"/>
      <point x="110" y="614"/>
      <point x="130" y="589"/>
    </contour>
    <contour>
      <point x="252" y="124" type="curve" smooth="yes"/>
      <point x="279" y="124"/>
      <point x="301" y="148"/>
      <point x="301" y="174" type="curve" smooth="yes"/>
      <point x="301" y="202"/>
      <point x="279" y="223"/>
      <point x="250" y="223" type="curve" smooth="yes"/>
      <point x="238" y="223"/>
      <point x="226" y="217"/>
      <point x="217" y="208" type="curve" smooth="yes"/>
      <point x="208" y="198"/>
      <point x="202" y="187"/>
      <point x="202" y="174" type="curve" smooth="yes"/>
      <point x="202" y="148"/>
      <point x="226" y="124"/>
    </contour>
    <contour>
      <point x="160" y="263" type="curve" smooth="yes"/>
      <point x="188" y="263"/>
      <point x="210" y="288"/>
      <point x="210" y="314" type="curve" smooth="yes"/>
      <point x="210" y="341"/>
      <point x="187" y="361"/>
      <point x="160" y="361" type="curve" smooth="yes"/>
      <point x="153" y="361"/>
      <point x="146" y="360"/>
      <point x="140" y="357" type="curve" smooth="yes"/>
      <point x="120" y="350"/>
      <point x="110" y="332"/>
      <point x="110" y="314" type="curve" smooth="yes"/>
      <point x="110" y="286"/>
      <point x="134" y="263"/>
    </contour>
    <contour>
      <point x="391" y="32" type="curve" smooth="yes"/>
      <point x="416" y="32"/>
      <point x="440" y="53"/>
      <point x="440" y="81" type="curve" smooth="yes"/>
      <point x="440" y="106"/>
      <point x="420" y="131"/>
      <point x="392" y="131" type="curve" smooth="yes"/>
      <point x="375" y="131"/>
      <point x="353" y="118"/>
      <point x="345" y="99" type="curve" smooth="yes"/>
      <point x="343" y="93"/>
      <point x="341" y="87"/>
      <point x="341" y="81" type="curve" smooth="yes"/>
      <point x="341" y="57"/>
      <point x="364" y="32"/>
    </contour>
    <contour>
      <point x="125" y="426" type="curve" smooth="yes"/>
      <point x="127" y="426" type="line" smooth="yes"/>
      <point x="152" y="426"/>
      <point x="177" y="449"/>
      <point x="177" y="477" type="curve" smooth="yes"/>
      <point x="177" y="503"/>
      <point x="152" y="525"/>
      <point x="126" y="525" type="curve" smooth="yes"/>
      <point x="98" y="525"/>
      <point x="78" y="503"/>
      <point x="78" y="476" type="curve" smooth="yes"/>
      <point x="78" y="450"/>
      <point x="98" y="426"/>
    </contour>
    <contour>
      <point x="554" y="0" type="curve" smooth="yes"/>
      <point x="581" y="0"/>
      <point x="604" y="21"/>
      <point x="604" y="48" type="curve" smooth="yes"/>
      <point x="604" y="75"/>
      <point x="581" y="98"/>
      <point x="554" y="98" type="curve" smooth="yes"/>
      <point x="527" y="98"/>
      <point x="505" y="75"/>
      <point x="505" y="48" type="curve" smooth="yes"/>
      <point x="505" y="21"/>
      <point x="527" y="0"/>
    </contour>
    <contour>
      <point x="717" y="32" type="curve" smooth="yes"/>
      <point x="745" y="32"/>
      <point x="767" y="57"/>
      <point x="767" y="82" type="curve" smooth="yes"/>
      <point x="767" y="88"/>
      <point x="765" y="94"/>
      <point x="763" y="100" type="curve" smooth="yes"/>
      <point x="754" y="119"/>
      <point x="734" y="132"/>
      <point x="714" y="132" type="curve" smooth="yes"/>
      <point x="688" y="132"/>
      <point x="667" y="107"/>
      <point x="667" y="83" type="curve" smooth="yes"/>
      <point x="667" y="54"/>
      <point x="692" y="32"/>
    </contour>
    <contour>
      <point x="252" y="729" type="curve" smooth="yes"/>
      <point x="281" y="729"/>
      <point x="301" y="748"/>
      <point x="301" y="778" type="curve" smooth="yes"/>
      <point x="301" y="792"/>
      <point x="295" y="804"/>
      <point x="286" y="813" type="curve" smooth="yes"/>
      <point x="276" y="822"/>
      <point x="264" y="827"/>
      <point x="251" y="827" type="curve" smooth="yes"/>
      <point x="225" y="827"/>
      <point x="202" y="804"/>
      <point x="202" y="776" type="curve" smooth="yes"/>
      <point x="202" y="750"/>
      <point x="224" y="729"/>
    </contour>
    <contour>
      <point x="855" y="125" type="curve" smooth="yes"/>
      <point x="885" y="125"/>
      <point x="905" y="148"/>
      <point x="905" y="174" type="curve" smooth="yes"/>
      <point x="905" y="187"/>
      <point x="900" y="200"/>
      <point x="891" y="210" type="curve"/>
      <point x="880" y="218"/>
      <point x="867" y="223"/>
      <point x="853" y="223" type="curve" smooth="yes"/>
      <point x="826" y="223"/>
      <point x="806" y="201"/>
      <point x="806" y="174" type="curve" smooth="yes"/>
      <point x="806" y="148"/>
      <point x="827" y="125"/>
    </contour>
    <contour>
      <point x="393" y="820" type="curve" smooth="yes"/>
      <point x="421" y="820"/>
      <point x="439" y="844"/>
      <point x="439" y="870" type="curve" smooth="yes"/>
      <point x="439" y="876"/>
      <point x="438" y="884"/>
      <point x="435" y="890" type="curve" smooth="yes"/>
      <point x="427" y="910"/>
      <point x="410" y="920"/>
      <point x="392" y="920" type="curve" smooth="yes"/>
      <point x="364" y="920"/>
      <point x="341" y="895"/>
      <point x="341" y="870" type="curve" smooth="yes"/>
      <point x="341" y="841"/>
      <point x="366" y="820"/>
    </contour>
    <contour>
      <point x="948" y="264" type="curve" smooth="yes"/>
      <point x="974" y="264"/>
      <point x="998" y="284"/>
      <point x="998" y="313" type="curve" smooth="yes"/>
      <point x="998" y="332"/>
      <point x="985" y="350"/>
      <point x="967" y="358" type="curve" smooth="yes"/>
      <point x="962" y="360"/>
      <point x="955" y="361"/>
      <point x="949" y="361" type="curve" smooth="yes"/>
      <point x="924" y="361"/>
      <point x="898" y="345"/>
      <point x="898" y="313" type="curve" smooth="yes"/>
      <point x="898" y="288"/>
      <point x="917" y="264"/>
    </contour>
    <contour>
      <point x="977" y="427" type="curve" smooth="yes"/>
      <point x="981" y="427" type="line" smooth="yes"/>
      <point x="1008" y="427"/>
      <point x="1030" y="450"/>
      <point x="1030" y="476" type="curve" smooth="yes"/>
      <point x="1030" y="503"/>
      <point x="1007" y="526"/>
      <point x="980" y="526" type="curve" smooth="yes"/>
      <point x="955" y="524"/>
      <point x="930" y="503"/>
      <point x="930" y="475" type="curve" smooth="yes"/>
      <point x="930" y="450"/>
      <point x="952" y="427"/>
    </contour>
    <contour>
      <point x="554" y="853" type="curve" smooth="yes"/>
      <point x="581" y="853"/>
      <point x="604" y="875"/>
      <point x="604" y="902" type="curve" smooth="yes"/>
      <point x="604" y="929"/>
      <point x="581" y="952"/>
      <point x="554" y="952" type="curve" smooth="yes"/>
      <point x="527" y="952"/>
      <point x="505" y="929"/>
      <point x="505" y="902" type="curve" smooth="yes"/>
      <point x="505" y="875"/>
      <point x="527" y="853"/>
    </contour>
    <contour>
      <point x="947" y="589" type="curve" smooth="yes"/>
      <point x="976" y="589"/>
      <point x="998" y="614"/>
      <point x="998" y="639" type="curve" smooth="yes"/>
      <point x="998" y="667"/>
      <point x="973" y="689"/>
      <point x="948" y="689" type="curve" smooth="yes"/>
      <point x="942" y="689"/>
      <point x="936" y="687"/>
      <point x="929" y="685" type="curve"/>
      <point x="911" y="677"/>
      <point x="899" y="658"/>
      <point x="899" y="638" type="curve" smooth="yes"/>
      <point x="899" y="611"/>
      <point x="922" y="589"/>
    </contour>
    <contour>
      <point x="717" y="820" type="curve" smooth="yes"/>
      <point x="742" y="820"/>
      <point x="767" y="841"/>
      <point x="767" y="869" type="curve" smooth="yes"/>
      <point x="767" y="895"/>
      <point x="745" y="920"/>
      <point x="717" y="920" type="curve" smooth="yes"/>
      <point x="697" y="920"/>
      <point x="680" y="907"/>
      <point x="671" y="889" type="curve"/>
      <point x="669" y="882"/>
      <point x="668" y="877"/>
      <point x="668" y="871" type="curve" smooth="yes"/>
      <point x="668" y="846"/>
      <point x="689" y="820"/>
    </contour>
    <contour>
      <point x="855" y="728" type="curve" smooth="yes"/>
      <point x="882" y="728"/>
      <point x="904" y="750"/>
      <point x="904" y="777" type="curve" smooth="yes"/>
      <point x="904" y="804"/>
      <point x="884" y="827"/>
      <point x="855" y="827" type="curve" smooth="yes"/>
      <point x="843" y="827"/>
      <point x="830" y="822"/>
      <point x="820" y="813" type="curve"/>
      <point x="812" y="803"/>
      <point x="807" y="790"/>
      <point x="807" y="777" type="curve" smooth="yes"/>
      <point x="807" y="752"/>
      <point x="828" y="728"/>
    </contour>
  </outline>
</glyph>
<glyph name="uni3003" format="2">
  <advance width="1600"/>
  <unicode hex="3003"/>
  <outline>
    <contour>
      <point x="901" y="1000" type="curve" smooth="yes"/>
      <point x="909" y="1004"/>
      <point x="909" y="1007"/>
      <point x="913" y="1014" type="curve"/>
      <point x="921" y="1024"/>
      <point x="956" y="1094"/>
      <point x="1145" y="1549" type="curve"/>
      <point x="1163" y="1586"/>
      <point x="1179" y="1629"/>
      <point x="1176" y="1663" type="curve" smooth="yes"/>
      <point x="1172" y="1699"/>
      <point x="1153" y="1725"/>
      <point x="1113" y="1722" type="curve" smooth="yes"/>
      <point x="1057" y="1717"/>
      <point x="1029" y="1660"/>
      <point x="1011" y="1588" type="curve" smooth="yes"/>
      <point x="885" y="1079"/>
      <point x="881" y="1028"/>
      <point x="884" y="1016" type="curve" smooth="yes"/>
      <point x="885" y="1010"/>
      <point x="892" y="997"/>
    </contour>
    <contour>
      <point x="441" y="1000" type="curve" smooth="yes"/>
      <point x="449" y="1004"/>
      <point x="449" y="1007"/>
      <point x="453" y="1014" type="curve"/>
      <point x="461" y="1024"/>
      <point x="496" y="1094"/>
      <point x="685" y="1549" type="curve"/>
      <point x="703" y="1586"/>
      <point x="719" y="1629"/>
      <point x="716" y="1663" type="curve" smooth="yes"/>
      <point x="712" y="1699"/>
      <point x="693" y="1725"/>
      <point x="653" y="1722" type="curve" smooth="yes"/>
      <point x="597" y="1717"/>
      <point x="569" y="1660"/>
      <point x="551" y="1588" type="curve" smooth="yes"/>
      <point x="425" y="1079"/>
      <point x="421" y="1028"/>
      <point x="424" y="1016" type="curve" smooth="yes"/>
      <point x="425" y="1010"/>
      <point x="432" y="997"/>
    </contour>
  </outline>
</glyph>
<glyph name="uniA000" format="2">
  <advance width="1600"/>
  <unicode hex="A000"/>
  <outline>
    <contour>
      <point x="1283" y="1354" type="line"/>
      <point x="1283" y="1458" type="line"/>
      <point x="563" y="1458" type="line"/>
      <point x="563" y="1354" type="line"/>
    </contour>
    <contour>
      <point x="210" y="660" type="line"/>
      <point x="839" y="660" type="line"/>
      <point x="839" y="764" type="line"/>
      <point x="210" y="764" type="line"/>
    </contour>
    <contour>
      <point x="922" y="85" type="curve" smooth="yes"/>
      <point x="645" y="85"/>
      <point x="577" y="342"/>
      <point x="577" y="714" type="curve" smooth="yes"/>
      <point x="577" y="1800" type="line"/>
      <point x="470" y="1800" type="line"/>
      <point x="470" y="714" type="line" smooth="yes"/>
      <point x="470" y="357"/>
      <point x="533" y="-20"/>
      <point x="922" y="-20" type="curve" smooth="yes"/>
      <point x="1311" y="-20"/>
      <point x="1374" y="357"/>
      <point x="1374" y="714" type="curve" smooth="yes"/>
      <point x="1374" y="1800" type="line"/>
      <point x="1267" y="1800" type="line"/>
      <point x="1267" y="714" type="line" smooth="yes"/>
      <point x="1267" y="342"/>
      <point x="1199" y="85"/>
    </contour>
  </outline>
</glyph>
<glyph name="uniA002" format="2">
  <advance width="1600"/>
  <unicode hex="A002"/>
  <anchor x="800" y="1900" name="top"/>
  <outline>
    <contour>
      <point x="263" y="1026" type="curve"/>
      <point x="263" y="923" type="line"/>
      <point x="594" y="923"/>
      <point x="795" y="805"/>
      <point x="795" y="636" type="curve" smooth="yes"/>
      <point x="795" y="467"/>
      <point x="594" y="349"/>
      <point x="263" y="349" type="curve"/>
      <point x="263" y="246" type="line"/>
      <point x="651" y="246"/>
      <point x="903" y="408"/>
      <point x="903" y="636" type="curve" smooth="yes"/>
      <point x="903" y="864"/>
      <point x="651" y="1026"/>
    </contour>
    <contour>
      <point x="1216" y="1354" type="line"/>
      <point x="1216" y="1458" type="line"/>
      <point x="496" y="1458" type="line"/>
      <point x="496" y="1354" type="line"/>
    </contour>
    <contour>
      <point x="856" y="85" type="curve" smooth="yes"/>
      <point x="579" y="85"/>
      <point x="511" y="342"/>
      <point x="511" y="714" type="curve" smooth="yes"/>
      <point x="511" y="1800" type="line"/>
      <point x="404" y="1800" type="line"/>
      <point x="404" y="714" type="line" smooth="yes"/>
      <point x="404" y="357"/>
      <point x="467" y="-20"/>
      <point x="856" y="-20" type="curve" smooth="yes"/>
      <point x="1245" y="-20"/>
      <point x="1308" y="357"/>
      <point x="1308" y="714" type="curve" smooth="yes"/>
      <point x="1308" y="1800" type="line"/>
      <point x="1201" y="1800" type="line"/>
      <point x="1201" y="714" type="line" smooth="yes"/>
      <point x="1201" y="342"/>
      <point x="1133" y="85"/>
    </contour>
  </outline>
</glyph>
<glyph name="uniA003" format="2">
  <advance width="1600"/>
  <unicode hex="A003"/>
  <outline>
    <contour>
      <point x="210" y="-27" type="line"/>
      <point x="282" y="-27"/>
      <point x="425" y="26"/>
      <point x="553" y="116" type="curve"/>
      <point x="662" y="40"/>
      <point x="800" y="0"/>
      <point x="944" y="0" type="curve" smooth="yes"/>
      <point x="1119" y="0" type="line"/>
      <point x="1119" y="1623" type="line"/>
      <point x="1339" y="1458" type="line"/>
      <point x="1405" y="1541" type="line"/>
      <point x="1012" y="1835" type="line"/>
      <point x="1012" y="1103" type="line"/>
      <point x="944" y="1103" type="line" smooth="yes"/>
      <point x="812" y="1103"/>
      <point x="685" y="1068"/>
      <point x="582" y="1004" type="curve"/>
      <point x="448" y="1106"/>
      <point x="294" y="1167"/>
      <point x="210" y="1167" type="curve"/>
      <point x="210" y="1064" type="line"/>
      <point x="273" y="1064"/>
      <point x="386" y="1015"/>
      <point x="494" y="938" type="curve"/>
      <point x="393" y="844"/>
      <point x="328" y="713"/>
      <point x="328" y="552" type="curve" smooth="yes"/>
      <point x="328" y="401"/>
      <point x="383" y="279"/>
      <point x="471" y="186" type="curve"/>
      <point x="371" y="120"/>
      <point x="265" y="77"/>
      <point x="210" y="77" type="curve"/>
    </contour>
    <contour>
      <point x="560" y="246" type="line"/>
      <point x="552" y="247" type="line"/>
      <point x="555" y="250" type="line"/>
    </contour>
    <contour>
      <point x="555" y="250" type="curve"/>
      <point x="481" y="325"/>
      <point x="435" y="427"/>
      <point x="435" y="552" type="curve" smooth="yes"/>
      <point x="435" y="685"/>
      <point x="490" y="795"/>
      <point x="577" y="871" type="curve"/>
      <point x="669" y="785"/>
      <point x="741" y="675"/>
      <point x="739" y="560" type="curve" smooth="yes"/>
      <point x="736" y="443"/>
      <point x="655" y="334"/>
    </contour>
    <contour>
      <point x="944" y="104" type="line" smooth="yes"/>
      <point x="832" y="104"/>
      <point x="724" y="134"/>
      <point x="640" y="185" type="curve"/>
      <point x="753" y="283"/>
      <point x="843" y="411"/>
      <point x="845" y="558" type="curve" smooth="yes"/>
      <point x="848" y="702"/>
      <point x="769" y="829"/>
      <point x="664" y="932" type="curve"/>
      <point x="745" y="977"/>
      <point x="839" y="999"/>
      <point x="944" y="999" type="curve" smooth="yes"/>
      <point x="1012" y="999" type="line"/>
      <point x="1012" y="104" type="line"/>
    </contour>
  </outline>
</glyph>
<glyph name="uniA004" format="2">
  <advance width="1600"/>
  <unicode hex="A004"/>
  <outline>
    <contour>
      <point x="176" y="407" type="line"/>
      <point x="636" y="407" type="line"/>
      <point x="636" y="511" type="line"/>
      <point x="176" y="511" type="line"/>
    </contour>
    <contour>
      <point x="806" y="-20" type="curve" smooth="yes"/>
      <point x="1106" y="-20"/>
      <point x="1315" y="254"/>
      <point x="1315" y="900" type="curve" smooth="yes"/>
      <point x="1315" y="1546"/>
      <point x="1106" y="1820"/>
      <point x="806" y="1820" type="curve" smooth="yes"/>
      <point x="505" y="1820"/>
      <point x="296" y="1546"/>
      <point x="296" y="900" type="curve" smooth="yes"/>
      <point x="296" y="254"/>
      <point x="505" y="-20"/>
    </contour>
    <contour>
      <point x="806" y="1716" type="curve" smooth="yes"/>
      <point x="1012" y="1716"/>
      <point x="1209" y="1532"/>
      <point x="1209" y="900" type="curve" smooth="yes"/>
      <point x="1209" y="268"/>
      <point x="1012" y="84"/>
      <point x="806" y="84" type="curve" smooth="yes"/>
      <point x="600" y="84"/>
      <point x="402" y="268"/>
      <point x="402" y="900" type="curve" smooth="yes"/>
      <point x="402" y="1532"/>
      <point x="600" y="1716"/>
    </contour>
    <contour>
      <point x="806" y="1079" type="curve" smooth="yes"/>
      <point x="1183" y="1079"/>
      <point x="1369" y="1396"/>
      <point x="1369" y="1758" type="curve"/>
      <point x="1263" y="1758" type="line"/>
      <point x="1263" y="1460"/>
      <point x="1131" y="1183"/>
      <point x="806" y="1183" type="curve" smooth="yes"/>
      <point x="481" y="1183"/>
      <point x="349" y="1460"/>
      <point x="349" y="1758" type="curve"/>
      <point x="243" y="1758" type="line"/>
      <point x="243" y="1396"/>
      <point x="429" y="1079"/>
    </contour>
  </outline>
</glyph>
<glyph name="uniA007" format="2">
  <advance width="1600"/>
  <unicode hex="A007"/>
  <outline>
    <contour>
      <point x="584" y="-27" type="curve" smooth="yes"/>
      <point x="735" y="-27"/>
      <point x="830" y="95"/>
      <point x="879" y="344" type="curve"/>
      <point x="994" y="287"/>
      <point x="1113" y="259"/>
      <point x="1199" y="251" type="curve"/>
      <point x="1199" y="59" type="line"/>
      <point x="1305" y="59" type="line"/>
      <point x="1305" y="545" type="line"/>
      <point x="1199" y="545" type="line"/>
      <point x="1199" y="357" type="line"/>
      <point x="1117" y="366"/>
      <point x="1001" y="392"/>
      <point x="897" y="454" type="curve"/>
      <point x="913" y="576"/>
      <point x="921" y="723"/>
      <point x="921" y="896" type="curve" smooth="yes"/>
      <point x="921" y="1070"/>
      <point x="914" y="1217"/>
      <point x="898" y="1340" type="curve"/>
      <point x="1001" y="1402"/>
      <point x="1116" y="1427"/>
      <point x="1199" y="1436" type="curve"/>
      <point x="1199" y="1248" type="line"/>
      <point x="1305" y="1248" type="line"/>
      <point x="1305" y="1734" type="line"/>
      <point x="1199" y="1734" type="line"/>
      <point x="1199" y="1542" type="line"/>
      <point x="1113" y="1534"/>
      <point x="994" y="1506"/>
      <point x="879" y="1449" type="curve"/>
      <point x="830" y="1698"/>
      <point x="735" y="1820"/>
      <point x="584" y="1820" type="curve" smooth="yes"/>
      <point x="346" y="1820"/>
      <point x="247" y="1518"/>
      <point x="247" y="896" type="curve" smooth="yes"/>
      <point x="247" y="266"/>
      <point x="346" y="-27"/>
    </contour>
    <contour>
      <point x="786" y="402" type="line"/>
      <point x="782" y="404" type="line"/>
      <point x="783" y="408" type="line"/>
    </contour>
    <contour>
      <point x="584" y="77" type="curve" smooth="yes"/>
      <point x="466" y="77"/>
      <point x="353" y="233"/>
      <point x="353" y="896" type="curve" smooth="yes"/>
      <point x="353" y="1552"/>
      <point x="466" y="1716"/>
      <point x="584" y="1716" type="curve" smooth="yes"/>
      <point x="663" y="1716"/>
      <point x="741" y="1643"/>
      <point x="782" y="1390" type="curve"/>
      <point x="643" y="1290"/>
      <point x="534" y="1133"/>
      <point x="534" y="896" type="curve" smooth="yes"/>
      <point x="534" y="661"/>
      <point x="644" y="503"/>
      <point x="782" y="404" type="curve"/>
      <point x="741" y="149"/>
      <point x="662" y="77"/>
    </contour>
    <contour>
      <point x="797" y="525" type="curve"/>
      <point x="707" y="608"/>
      <point x="641" y="726"/>
      <point x="641" y="896" type="curve" smooth="yes"/>
      <point x="641" y="1066"/>
      <point x="707" y="1184"/>
      <point x="797" y="1267" type="curve"/>
      <point x="808" y="1165"/>
      <point x="814" y="1043"/>
      <point x="814" y="896" type="curve" smooth="yes"/>
      <point x="814" y="749"/>
      <point x="807" y="627"/>
    </contour>
    <contour>
      <point x="797" y="1267" type="line"/>
      <point x="797" y="1271"/>
      <point x="796" y="1275"/>
      <point x="796" y="1279" type="curve"/>
      <point x="806" y="1275" type="line"/>
    </contour>
  </outline>
</glyph>
<glyph name="uniA00A" format="2">
  <advance width="1600"/>
  <unicode hex="A00A"/>
  <anchor x="800" y="1900" name="top"/>
  <outline>
    <contour>
      <point x="752" y="858" type="line"/>
      <point x="752" y="986" type="line"/>
      <point x="309" y="1288" type="line"/>
      <point x="247" y="1202" type="line"/>
    </contour>
    <contour>
      <point x="1199" y="1800" type="line"/>
      <point x="1199" y="0" type="line"/>
      <point x="1305" y="0" type="line"/>
      <point x="1305" y="1800" type="line"/>
    </contour>
    <contour>
      <point x="1212" y="1374" type="line"/>
      <point x="1212" y="1502" type="line"/>
      <point x="739" y="1826" type="line"/>
      <point x="739" y="119" type="line"/>
      <point x="776" y="140" type="line"/>
      <point x="310" y="454" type="line"/>
      <point x="248" y="368" type="line"/>
      <point x="845" y="-34" type="line"/>
      <point x="845" y="1673" type="line"/>
      <point x="808" y="1650" type="line"/>
    </contour>
  </outline>
</glyph>
<glyph name="uniA00B" format="2">
  <advance width="1600"/>
  <unicode hex="A00B"/>
  <outline>
    <contour>
      <point x="752" y="860" type="line"/>
      <point x="752" y="986" type="line"/>
      <point x="309" y="1288" type="line"/>
      <point x="248" y="1203" type="line"/>
    </contour>
    <contour>
      <point x="1063" y="1423" type="line"/>
      <point x="1099" y="1529" type="line"/>
      <point x="739" y="1827" type="line"/>
      <point x="739" y="123" type="line"/>
      <point x="776" y="143" type="line"/>
      <point x="308" y="454" type="line"/>
      <point x="247" y="369" type="line"/>
      <point x="845" y="-28" type="line"/>
      <point x="845" y="1647" type="line"/>
      <point x="810" y="1631" type="line"/>
    </contour>
    <contour>
      <point x="1035" y="1308" type="curve" smooth="yes"/>
      <point x="1035" y="1094"/>
      <point x="1152" y="903"/>
      <point x="1333" y="784" type="curve"/>
      <point x="1394" y="870" type="line"/>
      <point x="1239" y="971"/>
      <point x="1141" y="1132"/>
      <point x="1141" y="1308" type="curve" smooth="yes"/>
      <point x="1141" y="1483"/>
      <point x="1239" y="1643"/>
      <point x="1395" y="1745" type="curve"/>
      <point x="1333" y="1829" type="line"/>
      <point x="1152" y="1710"/>
      <point x="1035" y="1520"/>
    </contour>
  </outline>
</glyph>
<glyph name="uniA00D" format="2">
  <advance width="1600"/>
  <unicode hex="A00D"/>
  <anchor x="800" y="1900" name="top"/>
  <outline>
    <contour>
      <point x="1200" y="1793" type="line"/>
      <point x="1200" y="0" type="line"/>
      <point x="1306" y="0" type="line"/>
      <point x="1306" y="1793" type="line"/>
    </contour>
    <contour>
      <point x="740" y="146" type="line"/>
      <point x="846" y="146" type="line"/>
      <point x="846" y="505" type="line"/>
      <point x="740" y="505" type="line"/>
    </contour>
    <contour>
      <point x="740" y="1287" type="line"/>
      <point x="846" y="1287" type="line"/>
      <point x="846" y="1646" type="line"/>
      <point x="740" y="1646" type="line"/>
    </contour>
    <contour>
      <point x="386" y="0" type="line"/>
      <point x="386" y="1793" type="line"/>
      <point x="279" y="1793" type="line"/>
      <point x="279" y="0" type="line"/>
    </contour>
    <contour>
      <point x="370" y="948" type="line"/>
      <point x="370" y="843" type="line"/>
      <point x="1216" y="843" type="line"/>
      <point x="1216" y="948" type="line"/>
    </contour>
  </outline>
</glyph>
<glyph name="uniA00E" format="2">
  <advance width="1600"/>
  <unicode hex="A00E"/>
  <outline>
    <contour>
      <point x="871" y="1464" type="curve" smooth="yes"/>
      <point x="871" y="1233"/>
      <point x="946" y="1108"/>
      <point x="1118" y="1108" type="curve" smooth="yes"/>
      <point x="1290" y="1108"/>
      <point x="1365" y="1233"/>
      <point x="1365" y="1464" type="curve" smooth="yes"/>
      <point x="1365" y="1695"/>
      <point x="1290" y="1820"/>
      <point x="1118" y="1820" type="curve" smooth="yes"/>
      <point x="946" y="1820"/>
      <point x="871" y="1695"/>
    </contour>
    <contour>
      <point x="1118" y="1715" type="curve" smooth="yes"/>
      <point x="1208" y="1715"/>
      <point x="1259" y="1659"/>
      <point x="1259" y="1464" type="curve" smooth="yes"/>
      <point x="1259" y="1268"/>
      <point x="1208" y="1213"/>
      <point x="1118" y="1213" type="curve" smooth="yes"/>
      <point x="1029" y="1213"/>
      <point x="977" y="1268"/>
      <point x="977" y="1464" type="curve" smooth="yes"/>
      <point x="977" y="1659"/>
      <point x="1029" y="1715"/>
    </contour>
    <contour>
      <point x="235" y="1464" type="curve" smooth="yes"/>
      <point x="235" y="1233"/>
      <point x="310" y="1108"/>
      <point x="482" y="1108" type="curve" smooth="yes"/>
      <point x="654" y="1108"/>
      <point x="729" y="1233"/>
      <point x="729" y="1464" type="curve" smooth="yes"/>
      <point x="729" y="1695"/>
      <point x="654" y="1820"/>
      <point x="482" y="1820" type="curve" smooth="yes"/>
      <point x="310" y="1820"/>
      <point x="235" y="1695"/>
    </contour>
    <contour>
      <point x="482" y="1715" type="curve" smooth="yes"/>
      <point x="572" y="1715"/>
      <point x="623" y="1659"/>
      <point x="623" y="1464" type="curve" smooth="yes"/>
      <point x="623" y="1268"/>
      <point x="572" y="1213"/>
      <point x="482" y="1213" type="curve" smooth="yes"/>
      <point x="393" y="1213"/>
      <point x="341" y="1268"/>
      <point x="341" y="1464" type="curve" smooth="yes"/>
      <point x="341" y="1659"/>
      <point x="393" y="1715"/>
    </contour>
    <contour>
      <point x="800" y="85" type="curve" smooth="yes"/>
      <point x="588" y="85"/>
      <point x="536" y="342"/>
      <point x="536" y="714" type="curve" smooth="yes"/>
      <point x="536" y="1140" type="line"/>
      <point x="429" y="1140" type="line"/>
      <point x="429" y="714" type="line" smooth="yes"/>
      <point x="429" y="357"/>
      <point x="481" y="-20"/>
      <point x="800" y="-20" type="curve" smooth="yes"/>
      <point x="1119" y="-20"/>
      <point x="1171" y="357"/>
      <point x="1171" y="714" type="curve" smooth="yes"/>
      <point x="1171" y="1140" type="line"/>
      <point x="1064" y="1140" type="line"/>
      <point x="1064" y="714" type="line" smooth="yes"/>
      <point x="1064" y="342"/>
      <point x="1012" y="85"/>
    </contour>
  </outline>
</glyph>
<glyph name="uniA012" format="2">
  <advance width="1600"/>
  <unicode hex="A012"/>
  <outline>
    <contour>
      <point x="1026" y="-20" type="curve" smooth="yes"/>
      <point x="1209" y="-22"/>
      <point x="1348" y="184"/>
      <point x="1348" y="900" type="curve" smooth="yes"/>
      <point x="1348" y="1616"/>
      <point x="1209" y="1822"/>
      <point x="1026" y="1820" type="curve" smooth="yes"/>
      <point x="843" y="1822"/>
      <point x="704" y="1616"/>
      <point x="704" y="900" type="curve" smooth="yes"/>
      <point x="704" y="184"/>
      <point x="843" y="-22"/>
    </contour>
    <contour>
      <point x="1026" y="1715" type="curve" smooth="yes"/>
      <point x="1134" y="1717"/>
      <point x="1241" y="1535"/>
      <point x="1241" y="900" type="curve" smooth="yes"/>
      <point x="1241" y="265"/>
      <point x="1134" y="83"/>
      <point x="1026" y="85" type="curve" smooth="yes"/>
      <point x="916" y="83"/>
      <point x="810" y="265"/>
      <point x="810" y="900" type="curve" smooth="yes"/>
      <point x="810" y="1535"/>
      <point x="916" y="1717"/>
    </contour>
    <contour>
      <point x="537" y="239" type="line"/>
      <point x="537" y="1418" type="line"/>
      <point x="502" y="1401" type="line"/>
      <point x="740" y="1211" type="line"/>
      <point x="783" y="1312" type="line"/>
      <point x="430" y="1593" type="line"/>
      <point x="430" y="414" type="line"/>
      <point x="465" y="431" type="line"/>
      <point x="251" y="603" type="line"/>
      <point x="183" y="521" type="line"/>
    </contour>
  </outline>
</glyph>
<glyph name="uniA014" format="2">
  <advance width="1600"/>
  <unicode hex="A014"/>
  <anchor x="800" y="1900" name="top"/>
  <outline>
    <contour>
      <point x="503" y="1044" type="curve"/>
      <point x="503" y="1010" type="line"/>
      <point x="598" y="1075"/>
      <point x="656" y="1157"/>
      <point x="656" y="1262" type="curve" smooth="yes"/>
      <point x="656" y="1469"/>
      <point x="517" y="1590"/>
      <point x="214" y="1590" type="curve"/>
      <point x="214" y="1485" type="line"/>
      <point x="476" y="1485"/>
      <point x="549" y="1393"/>
      <point x="549" y="1262" type="curve" smooth="yes"/>
      <point x="549" y="1153"/>
      <point x="443" y="1079"/>
      <point x="342" y="1079" type="curve"/>
      <point x="342" y="976" type="line"/>
      <point x="440" y="976"/>
      <point x="550" y="893"/>
      <point x="550" y="782" type="curve" smooth="yes"/>
      <point x="550" y="677"/>
      <point x="473" y="569"/>
      <point x="208" y="569" type="curve"/>
      <point x="208" y="464" type="line"/>
      <point x="514" y="464"/>
      <point x="657" y="602"/>
      <point x="657" y="782" type="curve" smooth="yes"/>
      <point x="657" y="886"/>
      <point x="594" y="976"/>
    </contour>
    <contour>
      <point x="520" y="1079" type="line"/>
      <point x="520" y="976" type="line"/>
      <point x="972" y="976" type="line"/>
      <point x="972" y="1079" type="line"/>
    </contour>
    <contour>
      <point x="955" y="1827" type="line"/>
      <point x="955" y="119" type="line"/>
      <point x="994" y="138" type="line"/>
      <point x="645" y="369" type="line"/>
      <point x="584" y="284" type="line"/>
      <point x="1062" y="-33" type="line"/>
      <point x="1062" y="1676" type="line"/>
      <point x="1024" y="1656" type="line"/>
      <point x="1371" y="1424" type="line"/>
      <point x="1433" y="1509" type="line"/>
    </contour>
  </outline>
</glyph>
<glyph name="uniA015" format="2">
  <advance width="1600"/>
  <unicode hex="A015"/>
  <outline>
    <contour>
      <point x="441" y="0" type="line"/>
      <point x="547" y="0" type="line"/>
      <point x="547" y="660" type="line"/>
      <point x="441" y="660" type="line"/>
    </contour>
    <contour>
      <point x="1037" y="0" type="line"/>
      <point x="1143" y="0" type="line"/>
      <point x="1143" y="660" type="line"/>
      <point x="1037" y="660" type="line"/>
    </contour>
    <contour>
      <point x="1072" y="949" type="curve" smooth="yes"/>
      <point x="1381" y="949"/>
      <point x="1404" y="1524"/>
      <point x="1404" y="1800" type="curve"/>
      <point x="1298" y="1800" type="line"/>
      <point x="1298" y="1599"/>
      <point x="1278" y="1054"/>
      <point x="1072" y="1054" type="curve" smooth="yes"/>
      <point x="863" y="1054"/>
      <point x="845" y="1679"/>
      <point x="845" y="1800" type="curve"/>
      <point x="739" y="1800" type="line"/>
      <point x="739" y="1678"/>
      <point x="721" y="1054"/>
      <point x="512" y="1054" type="curve" smooth="yes"/>
      <point x="306" y="1054"/>
      <point x="286" y="1599"/>
      <point x="286" y="1800" type="curve"/>
      <point x="180" y="1800" type="line"/>
      <point x="180" y="1524"/>
      <point x="203" y="949"/>
      <point x="512" y="949" type="curve" smooth="yes"/>
      <point x="694" y="949"/>
      <point x="767" y="1168"/>
      <point x="798" y="1301" type="curve"/>
      <point x="786" y="1301" type="line"/>
      <point x="817" y="1169"/>
      <point x="893" y="949"/>
    </contour>
  </outline>
</glyph>
<glyph name="uniA016" format="2">
  <advance width="1600"/>
  <unicode hex="A016"/>
  <outline>
    <contour>
      <point x="1398" y="1178" type="line"/>
      <point x="1321" y="1252" type="line"/>
      <point x="1003" y="941" type="line"/>
      <point x="677" y="622" type="line"/>
      <point x="753" y="549" type="line"/>
      <point x="1076" y="864" type="line"/>
    </contour>
    <contour>
      <point x="685" y="-20" type="curve" smooth="yes"/>
      <point x="990" y="-20"/>
      <point x="1090" y="438"/>
      <point x="1090" y="900" type="curve" smooth="yes"/>
      <point x="1090" y="1362"/>
      <point x="990" y="1820"/>
      <point x="685" y="1820" type="curve" smooth="yes"/>
      <point x="380" y="1820"/>
      <point x="280" y="1362"/>
      <point x="280" y="900" type="curve" smooth="yes"/>
      <point x="280" y="438"/>
      <point x="380" y="-20"/>
    </contour>
    <contour>
      <point x="685" y="1716" type="curve" smooth="yes"/>
      <point x="869" y="1716"/>
      <point x="984" y="1396"/>
      <point x="984" y="900" type="curve" smooth="yes"/>
      <point x="984" y="404"/>
      <point x="869" y="84"/>
      <point x="685" y="84" type="curve" smooth="yes"/>
      <point x="501" y="84"/>
      <point x="386" y="404"/>
      <point x="386" y="900" type="curve" smooth="yes"/>
      <point x="386" y="1396"/>
      <point x="501" y="1716"/>
    </contour>
    <contour>
      <point x="677" y="1178" type="line"/>
      <point x="998" y="864" type="line"/>
      <point x="1321" y="549" type="line"/>
      <point x="1398" y="622" type="line"/>
      <point x="1074" y="938" type="line"/>
      <point x="753" y="1252" type="line"/>
    </contour>
  </outline>
</glyph>
<glyph name="uniA017" format="2">
  <advance width="1600"/>
  <unicode hex="A017"/>
  <outline>
    <contour>
      <point x="278" y="0" type="line"/>
      <point x="385" y="0" type="line"/>
      <point x="385" y="844" type="line"/>
      <point x="655" y="844" type="line"/>
      <point x="675" y="488"/>
      <point x="927" y="186"/>
      <point x="1283" y="18" type="curve"/>
      <point x="1329" y="112" type="line"/>
      <point x="1005" y="266"/>
      <point x="787" y="540"/>
      <point x="763" y="844" type="curve"/>
      <point x="1305" y="844" type="line"/>
      <point x="1305" y="948" type="line"/>
      <point x="763" y="948" type="line"/>
      <point x="787" y="1252"/>
      <point x="1005" y="1526"/>
      <point x="1329" y="1680" type="curve"/>
      <point x="1283" y="1774" type="line"/>
      <point x="928" y="1606"/>
      <point x="675" y="1304"/>
      <point x="655" y="948" type="curve"/>
      <point x="385" y="948" type="line"/>
      <point x="385" y="1793" type="line"/>
      <point x="278" y="1793" type="line"/>
    </contour>
    <contour>
      <point x="568" y="1945" type="line"/>
      <point x="601" y="1983"/>
      <point x="700" y="2045"/>
      <point x="793" y="2045" type="curve" smooth="yes"/>
      <point x="892" y="2045"/>
      <point x="993" y="1982"/>
      <point x="1016" y="1951" type="curve"/>
      <point x="1104" y="2012" type="line"/>
      <point x="1061" y="2071"/>
      <point x="924" y="2150"/>
      <point x="793" y="2150" type="curve" smooth="yes"/>
      <point x="664" y="2150"/>
      <point x="535" y="2071"/>
      <point x="485" y="2012" type="curve"/>
    </contour>
  </outline>
</glyph>
<glyph name="uniA018" format="2">
  <advance width="1600"/>
  <unicode hex="A018"/>
  <anchor x="800" y="1900" name="top"/>
  <outline>
    <contour>
      <point x="385" y="0" type="line"/>
      <point x="385" y="1793" type="line"/>
      <point x="278" y="1793" type="line"/>
      <point x="278" y="0" type="line"/>
    </contour>
    <contour>
      <point x="369" y="948" type="line"/>
      <point x="369" y="844" type="line"/>
      <point x="1305" y="844" type="line"/>
      <point x="1305" y="948" type="line"/>
    </contour>
    <contour>
      <point x="659" y="896" type="curve" smooth="yes"/>
      <point x="659" y="542"/>
      <point x="898" y="171"/>
      <point x="1279" y="18" type="curve"/>
      <point x="1325" y="106" type="line"/>
      <point x="975" y="234"/>
      <point x="772" y="560"/>
      <point x="772" y="896" type="curve" smooth="yes"/>
      <point x="772" y="1232"/>
      <point x="975" y="1558"/>
      <point x="1325" y="1686" type="curve"/>
      <point x="1279" y="1774" type="line"/>
      <point x="898" y="1621"/>
      <point x="659" y="1250"/>
    </contour>
  </outline>
</glyph>
<glyph name="uniA019" format="2">
  <advance width="1600"/>
  <unicode hex="A019"/>
  <outline>
    <contour>
      <point x="386" y="0" type="line"/>
      <point x="386" y="1619" type="line"/>
      <point x="344" y="1592" type="line"/>
      <point x="1224" y="1194" type="line"/>
      <point x="1224" y="1800" type="line"/>
      <point x="1117" y="1800" type="line"/>
      <point x="1117" y="1312" type="line"/>
      <point x="1158" y="1339" type="line"/>
      <point x="279" y="1737" type="line"/>
      <point x="279" y="0" type="line"/>
    </contour>
    <contour>
      <point x="369" y="668" type="line"/>
      <point x="369" y="563" type="line"/>
      <point x="1374" y="563" type="line"/>
      <point x="1374" y="668" type="line"/>
    </contour>
    <contour>
      <point x="1303" y="150" type="curve"/>
      <point x="1303" y="255" type="line"/>
      <point x="971" y="255"/>
      <point x="770" y="433"/>
      <point x="770" y="618" type="curve" smooth="yes"/>
      <point x="770" y="803"/>
      <point x="971" y="982"/>
      <point x="1303" y="982" type="curve"/>
      <point x="1303" y="1087" type="line"/>
      <point x="915" y="1086"/>
      <point x="663" y="866"/>
      <point x="663" y="618" type="curve" smooth="yes"/>
      <point x="663" y="370"/>
      <point x="915" y="149"/>
    </contour>
  </outline>
</glyph>
<glyph name="uniA01A" format="2">
  <advance width="1600"/>
  <unicode hex="A01A"/>
  <outline>
    <contour>
      <point x="204" y="900" type="curve" smooth="yes"/>
      <point x="204" y="250"/>
      <point x="311" y="-22"/>
      <point x="494" y="-20" type="curve" smooth="yes"/>
      <point x="677" y="-22"/>
      <point x="785" y="250"/>
      <point x="785" y="900" type="curve" smooth="yes"/>
      <point x="785" y="1550"/>
      <point x="677" y="1822"/>
      <point x="494" y="1820" type="curve" smooth="yes"/>
      <point x="311" y="1822"/>
      <point x="204" y="1550"/>
    </contour>
    <contour>
      <point x="1275" y="1744" type="line"/>
      <point x="1028" y="1560"/>
      <point x="879" y="1231"/>
      <point x="879" y="900" type="curve" smooth="yes"/>
      <point x="879" y="569"/>
      <point x="1028" y="240"/>
      <point x="1275" y="56" type="curve"/>
      <point x="1336" y="134" type="line"/>
      <point x="1113" y="295"/>
      <point x="986" y="594"/>
      <point x="986" y="900" type="curve" smooth="yes"/>
      <point x="986" y="1206"/>
      <point x="1113" y="1505"/>
      <point x="1336" y="1666" type="curve"/>
    </contour>
    <contour>
      <point x="494" y="1715" type="curve" smooth="yes"/>
      <point x="587" y="1716"/>
      <point x="678" y="1496"/>
      <point x="678" y="900" type="curve" smooth="yes"/>
      <point x="678" y="304"/>
      <point x="587" y="84"/>
      <point x="494" y="85" type="curve" smooth="yes"/>
      <point x="401" y="84"/>
      <point x="310" y="304"/>
      <point x="310" y="900" type="curve" smooth="yes"/>
      <point x="310" y="1496"/>
      <point x="401" y="1716"/>
    </contour>
    <contour>
      <point x="769" y="844" type="line"/>
      <point x="1305" y="844" type="line"/>
      <point x="1305" y="949" type="line"/>
      <point x="769" y="949" type="line"/>
    </contour>
  </outline>
</glyph>
<glyph name="uniA01C" format="2">
  <advance width="1600"/>
  <unicode hex="A01C"/>
  <anchor x="800" y="1900" name="top"/>
  <outline>
    <contour>
      <point x="1259" y="1671" type="line"/>
      <point x="376" y="477" type="line"/>
      <point x="411" y="346" type="line"/>
      <point x="1344" y="1608" type="line"/>
    </contour>
    <contour>
      <point x="244" y="900" type="curve" smooth="yes"/>
      <point x="244" y="250"/>
      <point x="441" y="-24"/>
      <point x="725" y="-20" type="curve" smooth="yes"/>
      <point x="1009" y="-24"/>
      <point x="1207" y="250"/>
      <point x="1207" y="900" type="curve" smooth="yes"/>
      <point x="1207" y="1550"/>
      <point x="1009" y="1824"/>
      <point x="725" y="1820" type="curve" smooth="yes"/>
      <point x="441" y="1824"/>
      <point x="244" y="1550"/>
    </contour>
    <contour>
      <point x="725" y="85" type="curve" smooth="yes"/>
      <point x="535" y="81"/>
      <point x="350" y="265"/>
      <point x="350" y="900" type="curve" smooth="yes"/>
      <point x="350" y="1535"/>
      <point x="535" y="1719"/>
      <point x="725" y="1715" type="curve" smooth="yes"/>
      <point x="914" y="1719"/>
      <point x="1100" y="1535"/>
      <point x="1100" y="900" type="curve" smooth="yes"/>
      <point x="1100" y="265"/>
      <point x="914" y="81"/>
    </contour>
  </outline>
</glyph>
<glyph name="uniA01D" format="2">
  <advance width="1600"/>
  <unicode hex="A01D"/>
  <outline>
    <contour>
      <point x="1095" y="909" type="curve"/>
      <point x="1095" y="882" type="line"/>
      <point x="1243" y="954"/>
      <point x="1353" y="1108"/>
      <point x="1353" y="1286" type="curve" smooth="yes"/>
      <point x="1353" y="1447"/>
      <point x="1264" y="1588"/>
      <point x="1128" y="1667" type="curve"/>
      <point x="1074" y="1579" type="line"/>
      <point x="1178" y="1517"/>
      <point x="1246" y="1409"/>
      <point x="1246" y="1286" type="curve" smooth="yes"/>
      <point x="1246" y="1097"/>
      <point x="1088" y="948"/>
      <point x="925" y="948" type="curve" smooth="yes"/>
      <point x="885" y="948" type="line"/>
      <point x="885" y="844" type="line"/>
      <point x="925" y="844" type="line" smooth="yes"/>
      <point x="1087" y="844"/>
      <point x="1246" y="695"/>
      <point x="1246" y="505" type="curve" smooth="yes"/>
      <point x="1246" y="383"/>
      <point x="1178" y="275"/>
      <point x="1074" y="213" type="curve"/>
      <point x="1128" y="125" type="line"/>
      <point x="1264" y="204"/>
      <point x="1353" y="345"/>
      <point x="1353" y="505" type="curve" smooth="yes"/>
      <point x="1353" y="686"/>
      <point x="1243" y="839"/>
    </contour>
    <contour>
      <point x="228" y="900" type="curve" smooth="yes"/>
      <point x="228" y="208"/>
      <point x="367" y="-22"/>
      <point x="565" y="-20" type="curve" smooth="yes"/>
      <point x="763" y="-22"/>
      <point x="902" y="208"/>
      <point x="902" y="900" type="curve" smooth="yes"/>
      <point x="902" y="1592"/>
      <point x="763" y="1822"/>
      <point x="565" y="1820" type="curve" smooth="yes"/>
      <point x="367" y="1822"/>
      <point x="228" y="1592"/>
    </contour>
    <contour>
      <point x="565" y="85" type="curve" smooth="yes"/>
      <point x="448" y="83"/>
      <point x="334" y="265"/>
      <point x="334" y="900" type="curve" smooth="yes"/>
      <point x="334" y="1535"/>
      <point x="448" y="1717"/>
      <point x="565" y="1715" type="curve" smooth="yes"/>
      <point x="681" y="1717"/>
      <point x="795" y="1535"/>
      <point x="795" y="900" type="curve" smooth="yes"/>
      <point x="795" y="265"/>
      <point x="681" y="83"/>
    </contour>
  </outline>
</glyph>
<glyph name="uniA01E" format="2">
  <advance width="1600"/>
  <unicode hex="A01E"/>
  <outline>
    <contour>
      <point x="1207" y="1793" type="line"/>
      <point x="1207" y="721" type="line"/>
      <point x="1313" y="721" type="line"/>
      <point x="1313" y="1793" type="line"/>
    </contour>
    <contour>
      <point x="394" y="721" type="line"/>
      <point x="394" y="1793" type="line"/>
      <point x="287" y="1793" type="line"/>
      <point x="287" y="721" type="line"/>
    </contour>
    <contour>
      <point x="378" y="1310" type="line"/>
      <point x="378" y="1206" type="line"/>
      <point x="1223" y="1206" type="line"/>
      <point x="1223" y="1310" type="line"/>
    </contour>
    <contour>
      <point x="409" y="379" type="curve" smooth="yes"/>
      <point x="409" y="149"/>
      <point x="555" y="-27"/>
      <point x="801" y="-27" type="curve" smooth="yes"/>
      <point x="1047" y="-27"/>
      <point x="1193" y="149"/>
      <point x="1193" y="379" type="curve" smooth="yes"/>
      <point x="1193" y="609"/>
      <point x="1047" y="785"/>
      <point x="801" y="785" type="curve" smooth="yes"/>
      <point x="555" y="785"/>
      <point x="409" y="609"/>
    </contour>
    <contour>
      <point x="1088" y="379" type="curve" smooth="yes"/>
      <point x="1088" y="224"/>
      <point x="980" y="76"/>
      <point x="801" y="76" type="curve" smooth="yes"/>
      <point x="622" y="76"/>
      <point x="514" y="224"/>
      <point x="514" y="379" type="curve" smooth="yes"/>
      <point x="514" y="534"/>
      <point x="622" y="682"/>
      <point x="801" y="682" type="curve" smooth="yes"/>
      <point x="980" y="682"/>
      <point x="1088" y="534"/>
    </contour>
  </outline>
</glyph>
<glyph name="uniA020" format="2">
  <advance width="1600"/>
  <unicode hex="A020"/>
  <anchor x="800" y="1900" name="top"/>
  <outline>
    <contour>
      <point x="339" y="721" type="line"/>
      <point x="445" y="721" type="line"/>
      <point x="445" y="1206" type="line"/>
      <point x="1138" y="1206" type="line"/>
      <point x="1138" y="721" type="line"/>
      <point x="1245" y="721" type="line"/>
      <point x="1245" y="1793" type="line"/>
      <point x="1138" y="1793" type="line"/>
      <point x="1138" y="1310" type="line"/>
      <point x="445" y="1310" type="line"/>
      <point x="445" y="1793" type="line"/>
      <point x="339" y="1793" type="line"/>
    </contour>
    <contour>
      <point x="537" y="-27" type="curve" smooth="yes"/>
      <point x="675" y="-27"/>
      <point x="753" y="87"/>
      <point x="792" y="195" type="curve"/>
      <point x="830" y="85"/>
      <point x="906" y="-27"/>
      <point x="1046" y="-27" type="curve" smooth="yes"/>
      <point x="1318" y="-27"/>
      <point x="1353" y="390"/>
      <point x="1353" y="572" type="curve"/>
      <point x="1246" y="572" type="line"/>
      <point x="1246" y="459"/>
      <point x="1227" y="77"/>
      <point x="1046" y="77" type="curve" smooth="yes"/>
      <point x="865" y="77"/>
      <point x="845" y="459"/>
      <point x="845" y="572" type="curve"/>
      <point x="739" y="572" type="line"/>
      <point x="739" y="459"/>
      <point x="719" y="77"/>
      <point x="537" y="77" type="curve" smooth="yes"/>
      <point x="356" y="77"/>
      <point x="338" y="459"/>
      <point x="338" y="572" type="curve"/>
      <point x="231" y="572" type="line"/>
      <point x="231" y="391"/>
      <point x="267" y="-27"/>
    </contour>
  </outline>
</glyph>
<glyph name="uniA021" format="2">
  <advance width="1600"/>
  <unicode hex="A021"/>
  <outline>
    <contour>
      <point x="295" y="-26" type="line"/>
      <point x="659" y="574" type="line"/>
      <point x="568" y="628" type="line"/>
      <point x="204" y="28" type="line"/>
    </contour>
    <contour>
      <point x="1305" y="-26" type="line"/>
      <point x="1396" y="28" type="line"/>
      <point x="1034" y="628" type="line"/>
      <point x="943" y="574" type="line"/>
    </contour>
    <contour>
      <point x="1146" y="1800" type="line"/>
      <point x="1146" y="728" type="line"/>
      <point x="1253" y="728" type="line"/>
      <point x="1253" y="1800" type="line"/>
    </contour>
    <contour>
      <point x="453" y="728" type="line"/>
      <point x="453" y="1800" type="line"/>
      <point x="347" y="1800" type="line"/>
      <point x="347" y="728" type="line"/>
    </contour>
    <contour>
      <point x="437" y="1317" type="line"/>
      <point x="437" y="1213" type="line"/>
      <point x="1162" y="1213" type="line"/>
      <point x="1162" y="1317" type="line"/>
    </contour>
  </outline>
</glyph>
<glyph name="uniA023" format="2">
  <advance width="1600"/>
  <unicode hex="A023"/>
  <anchor x="800" y="1900" name="top"/>
  <outline>
    <contour>
      <point x="534" y="1290" type="line"/>
      <point x="913" y="1290" type="line"/>
      <point x="913" y="1394" type="line"/>
      <point x="534" y="1394" type="line"/>
    </contour>
    <contour>
      <point x="393" y="0" type="line"/>
      <point x="500" y="0" type="line"/>
      <point x="500" y="506" type="line"/>
      <point x="457" y="485" type="line"/>
      <point x="991" y="272" type="line" smooth="yes"/>
      <point x="1043" y="251"/>
      <point x="1090" y="238"/>
      <point x="1129" y="238" type="curve" smooth="yes"/>
      <point x="1227" y="238"/>
      <point x="1283" y="305"/>
      <point x="1283" y="425" type="curve" smooth="yes"/>
      <point x="1283" y="1396" type="line" smooth="yes"/>
      <point x="1283" y="1704"/>
      <point x="1063" y="1820"/>
      <point x="868" y="1820" type="curve" smooth="yes"/>
      <point x="594" y="1820"/>
      <point x="399" y="1695"/>
      <point x="279" y="1481" type="curve"/>
      <point x="373" y="1434" type="line"/>
      <point x="479" y="1616"/>
      <point x="639" y="1716"/>
      <point x="868" y="1716" type="curve" smooth="yes"/>
      <point x="1013" y="1716"/>
      <point x="1176" y="1637"/>
      <point x="1176" y="1396" type="curve" smooth="yes"/>
      <point x="1176" y="425" type="line" smooth="yes"/>
      <point x="1176" y="369"/>
      <point x="1161" y="342"/>
      <point x="1123" y="342" type="curve" smooth="yes"/>
      <point x="1102" y="342"/>
      <point x="1072" y="353"/>
      <point x="1034" y="368" type="curve" smooth="yes"/>
      <point x="393" y="624" type="line"/>
    </contour>
    <contour>
      <point x="913" y="844" type="line"/>
      <point x="534" y="844" type="line"/>
      <point x="534" y="741" type="line"/>
      <point x="913" y="741" type="line"/>
    </contour>
    <contour>
      <point x="671" y="828" type="line"/>
      <point x="778" y="828" type="line"/>
      <point x="778" y="1306" type="line"/>
      <point x="671" y="1306" type="line"/>
    </contour>
  </outline>
</glyph>
<glyph name="uniA024" format="2">
  <advance width="1600"/>
  <unicode hex="A024"/>
  <outline>
    <contour>
      <point x="286" y="1689" type="line"/>
      <point x="1313" y="1689" type="line"/>
      <point x="1313" y="1793" type="line"/>
      <point x="286" y="1793" type="line"/>
    </contour>
    <contour>
      <point x="1313" y="104" type="line"/>
      <point x="286" y="104" type="line"/>
      <point x="286" y="0" type="line"/>
      <point x="1313" y="0" type="line"/>
    </contour>
    <contour>
      <point x="853" y="1705" type="line"/>
      <point x="747" y="1705" type="line"/>
      <point x="747" y="88" type="line"/>
      <point x="853" y="88" type="line"/>
    </contour>
  </outline>
</glyph>
<glyph name="uniA025" format="2">
  <advance width="1600"/>
  <unicode hex="A025"/>
  <outline>
    <contour>
      <point x="259" y="1468" type="line"/>
      <point x="700" y="973" type="line"/>
      <point x="778" y="1042" type="line"/>
      <point x="339" y="1540" type="line"/>
    </contour>
    <contour>
      <point x="1415" y="85" type="line"/>
      <point x="1092" y="85"/>
      <point x="897" y="271"/>
      <point x="897" y="465" type="curve" smooth="yes"/>
      <point x="897" y="660"/>
      <point x="1092" y="847"/>
      <point x="1415" y="847" type="curve"/>
      <point x="1415" y="953" type="line"/>
      <point x="1092" y="953"/>
      <point x="897" y="1140"/>
      <point x="897" y="1335" type="curve" smooth="yes"/>
      <point x="897" y="1529"/>
      <point x="1092" y="1715"/>
      <point x="1415" y="1715" type="curve"/>
      <point x="1415" y="1820" type="line"/>
      <point x="1036" y="1820"/>
      <point x="790" y="1585"/>
      <point x="790" y="1335" type="curve" smooth="yes"/>
      <point x="790" y="1145"/>
      <point x="931" y="963"/>
      <point x="1165" y="886" type="curve"/>
      <point x="1165" y="914" type="line"/>
      <point x="931" y="837"/>
      <point x="790" y="655"/>
      <point x="790" y="465" type="curve" smooth="yes"/>
      <point x="790" y="215"/>
      <point x="1036" y="-20"/>
      <point x="1415" y="-20" type="curve"/>
    </contour>
    <contour>
      <point x="895" y="306" type="curve"/>
      <point x="895" y="410" type="line"/>
      <point x="610" y="410"/>
      <point x="437" y="648"/>
      <point x="437" y="896" type="curve" smooth="yes"/>
      <point x="437" y="1144"/>
      <point x="610" y="1382"/>
      <point x="895" y="1382" type="curve"/>
      <point x="895" y="1486" type="line"/>
      <point x="550" y="1486"/>
      <point x="330" y="1206"/>
      <point x="330" y="896" type="curve" smooth="yes"/>
      <point x="330" y="586"/>
      <point x="550" y="306"/>
    </contour>
    <contour>
      <point x="259" y="332" type="line"/>
      <point x="339" y="260" type="line"/>
      <point x="778" y="758" type="line"/>
      <point x="700" y="827" type="line"/>
    </contour>
  </outline>
</glyph>
<glyph name="uniA027" format="2">
  <advance width="1600"/>
  <unicode hex="A027"/>
  <anchor x="800" y="1900" name="top"/>
  <outline>
    <contour>
      <point x="541" y="1264" type="line"/>
      <point x="1059" y="1264" type="line"/>
      <point x="1059" y="1369" type="line"/>
      <point x="541" y="1369" type="line"/>
    </contour>
    <contour>
      <point x="252" y="900" type="curve" smooth="yes"/>
      <point x="252" y="254"/>
      <point x="477" y="-20"/>
      <point x="800" y="-20" type="curve" smooth="yes"/>
      <point x="1123" y="-20"/>
      <point x="1348" y="254"/>
      <point x="1348" y="900" type="curve" smooth="yes"/>
      <point x="1348" y="1546"/>
      <point x="1123" y="1820"/>
      <point x="800" y="1820" type="curve" smooth="yes"/>
      <point x="477" y="1820"/>
      <point x="252" y="1546"/>
    </contour>
    <contour>
      <point x="1241" y="900" type="curve" smooth="yes"/>
      <point x="1241" y="268"/>
      <point x="1025" y="84"/>
      <point x="800" y="84" type="curve" smooth="yes"/>
      <point x="575" y="84"/>
      <point x="358" y="268"/>
      <point x="358" y="900" type="curve" smooth="yes"/>
      <point x="358" y="1532"/>
      <point x="575" y="1716"/>
      <point x="800" y="1716" type="curve" smooth="yes"/>
      <point x="1025" y="1716"/>
      <point x="1241" y="1532"/>
    </contour>
    <contour>
      <point x="1059" y="527" type="line"/>
      <point x="541" y="527" type="line"/>
      <point x="541" y="423" type="line"/>
      <point x="1059" y="423" type="line"/>
    </contour>
    <contour>
      <point x="852" y="1280" type="line"/>
      <point x="746" y="1280" type="line"/>
      <point x="746" y="511" type="line"/>
      <point x="852" y="511" type="line"/>
    </contour>
  </outline>
</glyph>
<glyph name="uniA028" format="2">
  <advance width="1600"/>
  <unicode hex="A028"/>
  <outline>
    <contour>
      <point x="287" y="1689" type="line"/>
      <point x="1314" y="1689" type="line"/>
      <point x="1314" y="1793" type="line"/>
      <point x="287" y="1793" type="line"/>
    </contour>
    <contour>
      <point x="287" y="657" type="line"/>
      <point x="1314" y="657" type="line"/>
      <point x="1314" y="761" type="line"/>
      <point x="287" y="761" type="line"/>
    </contour>
    <contour>
      <point x="1314" y="1136" type="line"/>
      <point x="287" y="1136" type="line"/>
      <point x="287" y="1032" type="line"/>
      <point x="1314" y="1032" type="line"/>
    </contour>
    <contour>
      <point x="854" y="1705" type="line"/>
      <point x="748" y="1705" type="line"/>
      <point x="748" y="1120" type="line"/>
      <point x="854" y="1120" type="line"/>
    </contour>
    <contour>
      <point x="1314" y="104" type="line"/>
      <point x="287" y="104" type="line"/>
      <point x="287" y="0" type="line"/>
      <point x="1314" y="0" type="line"/>
    </contour>
    <contour>
      <point x="748" y="88" type="line"/>
      <point x="854" y="88" type="line"/>
      <point x="854" y="673" type="line"/>
      <point x="748" y="673" type="line"/>
    </contour>
  </outline>
</glyph>
<glyph name="uniA02A" format="2">
  <advance width="1600"/>
  <unicode hex="A02A"/>
  <anchor x="800" y="1900" name="top"/>
  <outline>
    <contour>
      <point x="747" y="843" type="line"/>
      <point x="854" y="843" type="line"/>
      <point x="854" y="1257" type="line" smooth="yes"/>
      <point x="854" y="1397"/>
      <point x="883" y="1711"/>
      <point x="1055" y="1711" type="curve" smooth="yes"/>
      <point x="1197" y="1711"/>
      <point x="1255" y="1579"/>
      <point x="1255" y="1345" type="curve"/>
      <point x="1362" y="1345" type="line"/>
      <point x="1362" y="1576"/>
      <point x="1306" y="1815"/>
      <point x="1055" y="1815" type="curve" smooth="yes"/>
      <point x="904" y="1815"/>
      <point x="830" y="1704"/>
      <point x="790" y="1574" type="curve"/>
      <point x="810" y="1574" type="line"/>
      <point x="770" y="1704"/>
      <point x="696" y="1815"/>
      <point x="545" y="1815" type="curve" smooth="yes"/>
      <point x="294" y="1815"/>
      <point x="238" y="1576"/>
      <point x="238" y="1345" type="curve"/>
      <point x="345" y="1345" type="line"/>
      <point x="345" y="1579"/>
      <point x="403" y="1711"/>
      <point x="545" y="1711" type="curve" smooth="yes"/>
      <point x="718" y="1711"/>
      <point x="747" y="1397"/>
      <point x="747" y="1257" type="curve" smooth="yes"/>
    </contour>
    <contour>
      <point x="800" y="-20" type="curve" smooth="yes"/>
      <point x="1068" y="-20"/>
      <point x="1287" y="194"/>
      <point x="1287" y="458" type="curve"/>
      <point x="1180" y="458" type="line"/>
      <point x="1180" y="253"/>
      <point x="1010" y="85"/>
      <point x="800" y="85" type="curve" smooth="yes"/>
      <point x="590" y="85"/>
      <point x="420" y="253"/>
      <point x="420" y="458" type="curve"/>
      <point x="313" y="458" type="line"/>
      <point x="313" y="194"/>
      <point x="532" y="-20"/>
    </contour>
    <contour>
      <point x="748" y="393" type="line"/>
      <point x="855" y="393" type="line"/>
      <point x="855" y="709" type="line"/>
      <point x="748" y="709" type="line"/>
    </contour>
  </outline>
</glyph>
<glyph name="uniA02B" format="2">
  <advance width="1600"/>
  <unicode hex="A02B"/>
  <outline>
    <contour>
      <point x="278" y="1689" type="line"/>
      <point x="1305" y="1689" type="line"/>
      <point x="1305" y="1793" type="line"/>
      <point x="278" y="1793" type="line"/>
    </contour>
    <contour>
      <point x="1305" y="104" type="line"/>
      <point x="278" y="104" type="line"/>
      <point x="278" y="0" type="line"/>
      <point x="1305" y="0" type="line"/>
    </contour>
    <contour>
      <point x="739" y="88" type="line"/>
      <point x="845" y="88" type="line"/>
      <point x="845" y="1705" type="line"/>
      <point x="739" y="1705" type="line"/>
    </contour>
    <contour>
      <point x="1271" y="460" type="line"/>
      <point x="1338" y="541" type="line"/>
      <point x="313" y="1360" type="line"/>
      <point x="246" y="1279" type="line"/>
    </contour>
    <contour>
      <point x="313" y="460" type="line"/>
      <point x="1338" y="1279" type="line"/>
      <point x="1271" y="1360" type="line"/>
      <point x="246" y="541" type="line"/>
    </contour>
  </outline>
</glyph>
<glyph name="uniA02C" format="2">
  <advance width="1600"/>
  <unicode hex="A02C"/>
  <outline>
    <contour>
      <point x="1131" y="322" type="line"/>
      <point x="1238" y="322" type="line"/>
      <point x="1238" y="681" type="line"/>
      <point x="1131" y="681" type="line"/>
    </contour>
    <contour>
      <point x="845" y="920" type="line"/>
      <point x="739" y="920" type="line"/>
      <point x="739" y="0" type="line"/>
      <point x="845" y="0" type="line"/>
    </contour>
    <contour>
      <point x="213" y="1361" type="curve" smooth="yes"/>
      <point x="213" y="1120"/>
      <point x="439" y="901"/>
      <point x="792" y="901" type="curve" smooth="yes"/>
      <point x="1145" y="901"/>
      <point x="1371" y="1120"/>
      <point x="1371" y="1361" type="curve" smooth="yes"/>
      <point x="1371" y="1602"/>
      <point x="1145" y="1821"/>
      <point x="792" y="1821" type="curve" smooth="yes"/>
      <point x="439" y="1821"/>
      <point x="213" y="1602"/>
    </contour>
    <contour>
      <point x="1264" y="1361" type="curve" smooth="yes"/>
      <point x="1264" y="1180"/>
      <point x="1086" y="1005"/>
      <point x="792" y="1005" type="curve" smooth="yes"/>
      <point x="498" y="1005"/>
      <point x="320" y="1180"/>
      <point x="320" y="1361" type="curve" smooth="yes"/>
      <point x="320" y="1542"/>
      <point x="498" y="1717"/>
      <point x="792" y="1717" type="curve" smooth="yes"/>
      <point x="1086" y="1717"/>
      <point x="1264" y="1542"/>
    </contour>
  </outline>
</glyph>
<glyph name="uniA02D" format="2">
  <advance width="1600"/>
  <unicode hex="A02D"/>
  <outline>
    <contour>
      <point x="847" y="-37" type="line"/>
      <point x="847" y="1793" type="line"/>
      <point x="740" y="1793" type="line"/>
      <point x="740" y="167" type="line"/>
      <point x="312" y="469" type="line"/>
      <point x="248" y="386" type="line"/>
    </contour>
    <contour>
      <point x="1211" y="146" type="line"/>
      <point x="1318" y="146" type="line"/>
      <point x="1318" y="1033" type="line"/>
      <point x="1211" y="1033" type="line"/>
    </contour>
    <contour>
      <point x="568" y="1945" type="line"/>
      <point x="601" y="1983"/>
      <point x="699" y="2045"/>
      <point x="793" y="2045" type="curve" smooth="yes"/>
      <point x="892" y="2045"/>
      <point x="993" y="1982"/>
      <point x="1016" y="1951" type="curve"/>
      <point x="1104" y="2012" type="line"/>
      <point x="1061" y="2071"/>
      <point x="924" y="2150"/>
      <point x="793" y="2150" type="curve" smooth="yes"/>
      <point x="664" y="2150"/>
      <point x="535" y="2071"/>
      <point x="485" y="2012" type="curve"/>
    </contour>
  </outline>
</glyph>
<glyph name="uniA02E" format="2">
  <advance width="1600"/>
  <unicode hex="A02E"/>
  <anchor x="800" y="1900" name="top"/>
  <outline>
    <contour>
      <point x="847" y="-37" type="line"/>
      <point x="847" y="1793" type="line"/>
      <point x="740" y="1793" type="line"/>
      <point x="740" y="122" type="line"/>
      <point x="777" y="141" type="line"/>
      <point x="312" y="469" type="line"/>
      <point x="248" y="386" type="line"/>
    </contour>
    <contour>
      <point x="1211" y="146" type="line"/>
      <point x="1318" y="146" type="line"/>
      <point x="1318" y="1033" type="line"/>
      <point x="1211" y="1033" type="line"/>
    </contour>
  </outline>
</glyph>
<glyph name="uniA02F" format="2">
  <advance width="1600"/>
  <unicode hex="A02F"/>
  <outline>
    <contour>
      <point x="1239" y="10" type="curve"/>
      <point x="1239" y="115" type="line"/>
      <point x="753" y="115"/>
      <point x="426" y="499"/>
      <point x="426" y="900" type="curve" smooth="yes"/>
      <point x="426" y="1301"/>
      <point x="753" y="1685"/>
      <point x="1239" y="1685" type="curve"/>
      <point x="1239" y="1790" type="line"/>
      <point x="690" y="1790"/>
      <point x="319" y="1358"/>
      <point x="319" y="900" type="curve" smooth="yes"/>
      <point x="319" y="442"/>
      <point x="690" y="10"/>
    </contour>
    <contour>
      <point x="1239" y="400" type="curve"/>
      <point x="1239" y="505" type="line"/>
      <point x="972" y="505"/>
      <point x="816" y="696"/>
      <point x="816" y="900" type="curve" smooth="yes"/>
      <point x="816" y="1104"/>
      <point x="972" y="1295"/>
      <point x="1239" y="1295" type="curve"/>
      <point x="1239" y="1400" type="line"/>
      <point x="914" y="1400"/>
      <point x="709" y="1167"/>
      <point x="709" y="900" type="curve" smooth="yes"/>
      <point x="709" y="633"/>
      <point x="914" y="400"/>
    </contour>
  </outline>
</glyph>
<glyph name="uniA032" format="2">
  <advance width="1600"/>
  <unicode hex="A032"/>
  <outline>
    <contour>
      <point x="694" y="140" type="line"/>
      <point x="348" y="369" type="line"/>
      <point x="286" y="284" type="line"/>
      <point x="764" y="-33" type="line"/>
      <point x="764" y="1674" type="line"/>
      <point x="729" y="1652" type="line"/>
      <point x="1076" y="1422" type="line"/>
      <point x="1135" y="1509" type="line"/>
      <point x="657" y="1826" type="line"/>
      <point x="657" y="118" type="line"/>
    </contour>
    <contour>
      <point x="1216" y="435" type="curve"/>
      <point x="1323" y="435" type="line"/>
      <point x="1323" y="884"/>
      <point x="1110" y="1318"/>
      <point x="697" y="1318" type="curve"/>
      <point x="697" y="1213" type="line"/>
      <point x="1039" y="1213"/>
      <point x="1216" y="832"/>
    </contour>
    <contour>
      <point x="1216" y="1369" type="line"/>
      <point x="1216" y="972"/>
      <point x="1039" y="591"/>
      <point x="697" y="591" type="curve"/>
      <point x="697" y="486" type="line"/>
      <point x="1110" y="486"/>
      <point x="1323" y="920"/>
      <point x="1323" y="1369" type="curve"/>
    </contour>
  </outline>
</glyph>
<glyph name="uniA034" format="2">
  <advance width="1600"/>
  <unicode hex="A034"/>
  <anchor x="800" y="1900" name="top"/>
  <outline>
    <contour>
      <point x="845" y="-25" type="line"/>
      <point x="845" y="1686" type="line"/>
      <point x="805" y="1660" type="line"/>
      <point x="1278" y="1395" type="line"/>
      <point x="1330" y="1486" type="line"/>
      <point x="738" y="1818" type="line"/>
      <point x="738" y="110" type="line"/>
      <point x="778" y="133" type="line"/>
      <point x="305" y="398" type="line"/>
      <point x="253" y="307" type="line"/>
    </contour>
    <contour>
      <point x="1243" y="779" type="line"/>
      <point x="1243" y="817" type="line"/>
      <point x="830" y="626" type="line"/>
      <point x="830" y="514" type="line"/>
      <point x="1350" y="278" type="line"/>
      <point x="1396" y="370" type="line"/>
      <point x="916" y="589" type="line"/>
      <point x="916" y="551" type="line"/>
      <point x="1366" y="759" type="line"/>
      <point x="1366" y="836" type="line"/>
      <point x="916" y="1042" type="line"/>
      <point x="916" y="1005" type="line"/>
      <point x="1396" y="1218" type="line"/>
      <point x="1350" y="1312" type="line"/>
      <point x="830" y="1079" type="line"/>
      <point x="830" y="968" type="line"/>
    </contour>
  </outline>
</glyph>
<glyph name="uniA035" format="2">
  <advance width="1600"/>
  <unicode hex="A035"/>
  <outline>
    <contour>
      <point x="980" y="1827" type="line"/>
      <point x="980" y="0" type="line"/>
      <point x="1086" y="0" type="line"/>
      <point x="1086" y="1674" type="line"/>
      <point x="1049" y="1654" type="line"/>
      <point x="1346" y="1452" type="line"/>
      <point x="1408" y="1537" type="line"/>
    </contour>
    <contour>
      <point x="993" y="1339" type="line"/>
      <point x="993" y="1465" type="line"/>
      <point x="457" y="1829" type="line"/>
      <point x="457" y="280" type="line"/>
      <point x="563" y="280" type="line"/>
      <point x="563" y="1674" type="line"/>
      <point x="526" y="1654" type="line"/>
    </contour>
    <contour>
      <point x="823" y="291" type="curve"/>
      <point x="717" y="291" type="line"/>
      <point x="717" y="179"/>
      <point x="625" y="85"/>
      <point x="510" y="85" type="curve" smooth="yes"/>
      <point x="395" y="85"/>
      <point x="303" y="179"/>
      <point x="303" y="291" type="curve"/>
      <point x="197" y="291" type="line"/>
      <point x="197" y="120"/>
      <point x="337" y="-20"/>
      <point x="510" y="-20" type="curve" smooth="yes"/>
      <point x="682" y="-20"/>
      <point x="823" y="120"/>
    </contour>
    <contour>
      <point x="801" y="948" type="line"/>
      <point x="219" y="948" type="line"/>
      <point x="219" y="843" type="line"/>
      <point x="801" y="843" type="line"/>
    </contour>
  </outline>
</glyph>
<glyph name="uniA037" format="2">
  <advance width="1600"/>
  <unicode hex="A037"/>
  <anchor x="800" y="1900" name="top"/>
  <outline>
    <contour>
      <point x="843" y="653" type="line"/>
      <point x="950" y="653" type="line"/>
      <point x="950" y="859" type="line"/>
      <point x="843" y="859" type="line"/>
    </contour>
    <contour>
      <point x="753" y="1108" type="line"/>
      <point x="646" y="1077" type="line"/>
      <point x="646" y="134" type="line"/>
      <point x="753" y="103" type="line"/>
    </contour>
    <contour>
      <point x="1146" y="0" type="line"/>
      <point x="1146" y="1663" type="line"/>
      <point x="1111" y="1646" type="line"/>
      <point x="1356" y="1452" type="line"/>
      <point x="1424" y="1533" type="line"/>
      <point x="1039" y="1838" type="line"/>
      <point x="1039" y="59" type="line"/>
      <point x="1098" y="104" type="line"/>
      <point x="951" y="104" type="line" smooth="yes"/>
      <point x="548" y="104"/>
      <point x="308" y="321"/>
      <point x="308" y="606" type="curve" smooth="yes"/>
      <point x="308" y="891"/>
      <point x="550" y="1108"/>
      <point x="951" y="1108" type="curve" smooth="yes"/>
      <point x="1071" y="1108" type="line"/>
      <point x="1071" y="1213" type="line"/>
      <point x="951" y="1213" type="line" smooth="yes"/>
      <point x="500" y="1213"/>
      <point x="201" y="967"/>
      <point x="201" y="606" type="curve" smooth="yes"/>
      <point x="201" y="245"/>
      <point x="499" y="-3"/>
      <point x="951" y="-1" type="curve" smooth="yes"/>
    </contour>
    <contour>
      <point x="843" y="352" type="line"/>
      <point x="950" y="352" type="line"/>
      <point x="950" y="557" type="line"/>
      <point x="843" y="557" type="line"/>
    </contour>
    <contour>
      <point x="449" y="352" type="line"/>
      <point x="555" y="352" type="line"/>
      <point x="555" y="557" type="line"/>
      <point x="449" y="557" type="line"/>
    </contour>
    <contour>
      <point x="449" y="653" type="line"/>
      <point x="555" y="653" type="line"/>
      <point x="555" y="859" type="line"/>
      <point x="449" y="859" type="line"/>
    </contour>
  </outline>
</glyph>
<glyph name="uniA03A" format="2">
  <advance width="1600"/>
  <unicode hex="A03A"/>
  <anchor x="800" y="1900" name="top"/>
  <outline>
    <contour>
      <point x="510" y="900" type="curve" smooth="yes"/>
      <point x="510" y="250"/>
      <point x="665" y="-23"/>
      <point x="915" y="-20" type="curve" smooth="yes"/>
      <point x="1165" y="-23"/>
      <point x="1320" y="250"/>
      <point x="1320" y="900" type="curve" smooth="yes"/>
      <point x="1320" y="1550"/>
      <point x="1165" y="1823"/>
      <point x="915" y="1820" type="curve" smooth="yes"/>
      <point x="665" y="1823"/>
      <point x="510" y="1550"/>
    </contour>
    <contour>
      <point x="915" y="85" type="curve" smooth="yes"/>
      <point x="764" y="82"/>
      <point x="616" y="265"/>
      <point x="616" y="900" type="curve" smooth="yes"/>
      <point x="616" y="1535"/>
      <point x="764" y="1718"/>
      <point x="915" y="1715" type="curve" smooth="yes"/>
      <point x="1066" y="1718"/>
      <point x="1213" y="1535"/>
      <point x="1213" y="900" type="curve" smooth="yes"/>
      <point x="1213" y="265"/>
      <point x="1066" y="82"/>
    </contour>
    <contour>
      <point x="1229" y="942" type="line"/>
      <point x="273" y="782" type="line"/>
      <point x="317" y="744" type="line"/>
      <point x="319" y="1497" type="line"/>
      <point x="210" y="1497" type="line"/>
      <point x="210" y="664" type="line"/>
      <point x="1229" y="835" type="line"/>
    </contour>
  </outline>
</glyph>
<glyph name="uniA03D" format="2">
  <advance width="1600"/>
  <unicode hex="A03D"/>
  <anchor x="800" y="1900" name="top"/>
  <outline>
    <contour>
      <point x="1037" y="410" type="line"/>
      <point x="1143" y="410" type="line"/>
      <point x="1143" y="1383" type="line"/>
      <point x="1037" y="1383" type="line"/>
    </contour>
    <contour>
      <point x="1267" y="410" type="line"/>
      <point x="1374" y="410" type="line"/>
      <point x="1374" y="1383" type="line"/>
      <point x="1267" y="1383" type="line"/>
    </contour>
    <contour>
      <point x="248" y="900" type="curve" smooth="yes"/>
      <point x="248" y="250"/>
      <point x="368" y="-22"/>
      <point x="585" y="-20" type="curve" smooth="yes"/>
      <point x="802" y="-22"/>
      <point x="923" y="250"/>
      <point x="923" y="900" type="curve" smooth="yes"/>
      <point x="923" y="1550"/>
      <point x="802" y="1822"/>
      <point x="585" y="1820" type="curve" smooth="yes"/>
      <point x="368" y="1822"/>
      <point x="248" y="1550"/>
    </contour>
    <contour>
      <point x="585" y="85" type="curve" smooth="yes"/>
      <point x="467" y="83"/>
      <point x="354" y="265"/>
      <point x="354" y="900" type="curve" smooth="yes"/>
      <point x="354" y="1535"/>
      <point x="467" y="1717"/>
      <point x="585" y="1715" type="curve" smooth="yes"/>
      <point x="702" y="1717"/>
      <point x="816" y="1535"/>
      <point x="816" y="900" type="curve" smooth="yes"/>
      <point x="816" y="265"/>
      <point x="702" y="83"/>
    </contour>
    <contour>
      <point x="340" y="948" type="line"/>
      <point x="340" y="844" type="line"/>
      <point x="829" y="844" type="line"/>
      <point x="829" y="948" type="line"/>
    </contour>
  </outline>
</glyph>
<glyph name="uniA03E" format="2">
  <advance width="1600"/>
  <unicode hex="A03E"/>
  <outline>
    <contour>
      <point x="282" y="1304" type="curve" smooth="yes"/>
      <point x="282" y="1028"/>
      <point x="482" y="788"/>
      <point x="800" y="788" type="curve" smooth="yes"/>
      <point x="1118" y="788"/>
      <point x="1318" y="1028"/>
      <point x="1318" y="1304" type="curve" smooth="yes"/>
      <point x="1318" y="1580"/>
      <point x="1118" y="1820"/>
      <point x="800" y="1820" type="curve" smooth="yes"/>
      <point x="482" y="1820"/>
      <point x="282" y="1580"/>
    </contour>
    <contour>
      <point x="1211" y="1304" type="curve" smooth="yes"/>
      <point x="1211" y="1093"/>
      <point x="1057" y="891"/>
      <point x="800" y="891" type="curve" smooth="yes"/>
      <point x="543" y="891"/>
      <point x="389" y="1093"/>
      <point x="389" y="1304" type="curve" smooth="yes"/>
      <point x="389" y="1515"/>
      <point x="543" y="1717"/>
      <point x="800" y="1717" type="curve" smooth="yes"/>
      <point x="1057" y="1717"/>
      <point x="1211" y="1515"/>
    </contour>
    <contour>
      <point x="747" y="803" type="line"/>
      <point x="747" y="538" type="line" smooth="yes"/>
      <point x="747" y="398"/>
      <point x="718" y="84"/>
      <point x="545" y="84" type="curve" smooth="yes"/>
      <point x="403" y="84"/>
      <point x="345" y="216"/>
      <point x="345" y="450" type="curve"/>
      <point x="238" y="450" type="line"/>
      <point x="238" y="219"/>
      <point x="294" y="-20"/>
      <point x="545" y="-20" type="curve" smooth="yes"/>
      <point x="696" y="-20"/>
      <point x="770" y="91"/>
      <point x="810" y="221" type="curve"/>
      <point x="790" y="221" type="line"/>
      <point x="830" y="91"/>
      <point x="904" y="-20"/>
      <point x="1055" y="-20" type="curve" smooth="yes"/>
      <point x="1306" y="-20"/>
      <point x="1362" y="219"/>
      <point x="1362" y="450" type="curve"/>
      <point x="1255" y="450" type="line"/>
      <point x="1255" y="216"/>
      <point x="1197" y="84"/>
      <point x="1055" y="84" type="curve" smooth="yes"/>
      <point x="882" y="84"/>
      <point x="853" y="398"/>
      <point x="853" y="538" type="curve" smooth="yes"/>
      <point x="853" y="803" type="line"/>
    </contour>
    <contour>
      <point x="747" y="1127" type="line"/>
      <point x="853" y="1127" type="line"/>
      <point x="853" y="1486" type="line"/>
      <point x="747" y="1486" type="line"/>
    </contour>
  </outline>
</glyph>
<glyph name="uniA03F" format="2">
  <advance width="1600"/>
  <unicode hex="A03F"/>
  <outline>
    <contour>
      <point x="1166" y="1793" type="line"/>
      <point x="1166" y="0" type="line"/>
      <point x="1273" y="0" type="line"/>
      <point x="1273" y="1793" type="line"/>
    </contour>
    <contour>
      <point x="434" y="0" type="line"/>
      <point x="434" y="1793" type="line"/>
      <point x="327" y="1793" type="line"/>
      <point x="327" y="0" type="line"/>
    </contour>
    <contour>
      <point x="418" y="981" type="line"/>
      <point x="418" y="876" type="line"/>
      <point x="1182" y="876" type="line"/>
      <point x="1182" y="981" type="line"/>
    </contour>
  </outline>
</glyph>
<glyph name="uniA042" format="2">
  <advance width="1600"/>
  <unicode hex="A042"/>
  <outline>
    <contour>
      <point x="652" y="85" type="curve" smooth="yes"/>
      <point x="439" y="85"/>
      <point x="387" y="342"/>
      <point x="387" y="714" type="curve" smooth="yes"/>
      <point x="387" y="1800" type="line"/>
      <point x="280" y="1800" type="line"/>
      <point x="280" y="714" type="line" smooth="yes"/>
      <point x="280" y="357"/>
      <point x="332" y="-20"/>
      <point x="652" y="-20" type="curve" smooth="yes"/>
      <point x="972" y="-20"/>
      <point x="1024" y="357"/>
      <point x="1024" y="714" type="curve" smooth="yes"/>
      <point x="1024" y="1800" type="line"/>
      <point x="917" y="1800" type="line"/>
      <point x="917" y="714" type="line" smooth="yes"/>
      <point x="917" y="342"/>
      <point x="865" y="85"/>
    </contour>
    <contour>
      <point x="1265" y="1645" type="line"/>
      <point x="1265" y="261" type="line"/>
      <point x="1372" y="261" type="line"/>
      <point x="1372" y="1645" type="line"/>
    </contour>
    <contour>
      <point x="1281" y="916" type="line"/>
      <point x="1281" y="1020" type="line"/>
      <point x="1004" y="1020" type="line"/>
      <point x="1004" y="916" type="line"/>
    </contour>
  </outline>
</glyph>
<glyph name="uniA046" format="2">
  <advance width="1600"/>
  <unicode hex="A046"/>
  <outline>
    <contour>
      <point x="955" y="948" type="line"/>
      <point x="955" y="844" type="line"/>
      <point x="979" y="844" type="line" smooth="yes"/>
      <point x="1141" y="844"/>
      <point x="1301" y="695"/>
      <point x="1301" y="505" type="curve" smooth="yes"/>
      <point x="1301" y="383"/>
      <point x="1232" y="275"/>
      <point x="1128" y="213" type="curve"/>
      <point x="1183" y="125" type="line"/>
      <point x="1317" y="204"/>
      <point x="1407" y="345"/>
      <point x="1407" y="505" type="curve" smooth="yes"/>
      <point x="1407" y="686"/>
      <point x="1297" y="839"/>
      <point x="1149" y="909" type="curve"/>
      <point x="1149" y="882" type="line"/>
      <point x="1297" y="954"/>
      <point x="1407" y="1108"/>
      <point x="1407" y="1286" type="curve" smooth="yes"/>
      <point x="1407" y="1447"/>
      <point x="1317" y="1588"/>
      <point x="1183" y="1667" type="curve"/>
      <point x="1128" y="1579" type="line"/>
      <point x="1232" y="1517"/>
      <point x="1301" y="1409"/>
      <point x="1301" y="1286" type="curve" smooth="yes"/>
      <point x="1301" y="1097"/>
      <point x="1142" y="948"/>
      <point x="979" y="948" type="curve" smooth="yes"/>
    </contour>
    <contour>
      <point x="695" y="1184" type="line"/>
      <point x="210" y="1184" type="line"/>
      <point x="210" y="1080" type="line"/>
      <point x="695" y="1080" type="line"/>
    </contour>
    <contour>
      <point x="695" y="713" type="line"/>
      <point x="210" y="713" type="line"/>
      <point x="210" y="609" type="line"/>
      <point x="695" y="609" type="line"/>
    </contour>
    <contour>
      <point x="389" y="900" type="curve" smooth="yes"/>
      <point x="389" y="250"/>
      <point x="486" y="-21"/>
      <point x="680" y="-20" type="curve" smooth="yes"/>
      <point x="874" y="-21"/>
      <point x="971" y="250"/>
      <point x="971" y="900" type="curve" smooth="yes"/>
      <point x="971" y="1550"/>
      <point x="874" y="1821"/>
      <point x="680" y="1820" type="curve" smooth="yes"/>
      <point x="486" y="1821"/>
      <point x="389" y="1550"/>
    </contour>
    <contour>
      <point x="680" y="1715" type="curve" smooth="yes"/>
      <point x="773" y="1719"/>
      <point x="864" y="1535"/>
      <point x="864" y="900" type="curve" smooth="yes"/>
      <point x="864" y="265"/>
      <point x="773" y="81"/>
      <point x="680" y="85" type="curve" smooth="yes"/>
      <point x="586" y="84"/>
      <point x="495" y="265"/>
      <point x="495" y="900" type="curve" smooth="yes"/>
      <point x="495" y="1535"/>
      <point x="586" y="1716"/>
    </contour>
  </outline>
</glyph>
<glyph name="uniA048" format="2">
  <advance width="1600"/>
  <unicode hex="A048"/>
  <anchor x="800" y="1900" name="top"/>
  <outline>
    <contour>
      <point x="747" y="1005" type="line"/>
      <point x="853" y="1005" type="line"/>
      <point x="853" y="1800" type="line"/>
      <point x="747" y="1800" type="line"/>
    </contour>
    <contour>
      <point x="286" y="0" type="line"/>
      <point x="1313" y="0" type="line"/>
      <point x="1313" y="105" type="line"/>
      <point x="286" y="105" type="line"/>
    </contour>
    <contour>
      <point x="286" y="474" type="line"/>
      <point x="1313" y="474" type="line"/>
      <point x="1313" y="579" type="line"/>
      <point x="286" y="579" type="line"/>
    </contour>
    <contour>
      <point x="790" y="1021" type="line" smooth="yes"/>
      <point x="502" y="1021"/>
      <point x="311" y="1372"/>
      <point x="311" y="1734" type="curve"/>
      <point x="204" y="1734" type="line"/>
      <point x="204" y="1305"/>
      <point x="437" y="914"/>
      <point x="800" y="914" type="curve" smooth="yes"/>
      <point x="1163" y="914"/>
      <point x="1396" y="1305"/>
      <point x="1396" y="1734" type="curve"/>
      <point x="1289" y="1734" type="line"/>
      <point x="1289" y="1372"/>
      <point x="1102" y="1021"/>
      <point x="810" y="1021" type="curve"/>
    </contour>
  </outline>
</glyph>
<glyph name="uniA053" format="2">
  <advance width="1600"/>
  <unicode hex="A053"/>
  <outline>
    <contour>
      <point x="980" y="1827" type="line"/>
      <point x="980" y="0" type="line"/>
      <point x="1086" y="0" type="line"/>
      <point x="1086" y="1674" type="line"/>
      <point x="1049" y="1654" type="line"/>
      <point x="1378" y="1430" type="line"/>
      <point x="1440" y="1515" type="line"/>
    </contour>
    <contour>
      <point x="993" y="1339" type="line"/>
      <point x="993" y="1465" type="line"/>
      <point x="457" y="1829" type="line"/>
      <point x="457" y="280" type="line"/>
      <point x="563" y="280" type="line"/>
      <point x="563" y="1674" type="line"/>
      <point x="526" y="1654" type="line"/>
    </contour>
    <contour>
      <point x="823" y="291" type="curve"/>
      <point x="717" y="291" type="line"/>
      <point x="717" y="179"/>
      <point x="625" y="85"/>
      <point x="510" y="85" type="curve" smooth="yes"/>
      <point x="395" y="85"/>
      <point x="303" y="179"/>
      <point x="303" y="291" type="curve"/>
      <point x="197" y="291" type="line"/>
      <point x="197" y="120"/>
      <point x="337" y="-20"/>
      <point x="510" y="-20" type="curve" smooth="yes"/>
      <point x="682" y="-20"/>
      <point x="823" y="120"/>
    </contour>
    <contour>
      <point x="801" y="948" type="line"/>
      <point x="219" y="948" type="line"/>
      <point x="219" y="843" type="line"/>
      <point x="801" y="843" type="line"/>
    </contour>
    <contour>
      <point x="1199" y="987" type="line"/>
      <point x="1199" y="460" type="line"/>
      <point x="1306" y="460" type="line"/>
      <point x="1306" y="987" type="line"/>
    </contour>
  </outline>
</glyph>
<glyph name="uniA056" format="2">
  <advance width="1600"/>
  <unicode hex="A056"/>
  <outline>
    <contour>
      <point x="375" y="1041" type="line"/>
      <point x="408" y="937" type="line"/>
      <point x="1196" y="937" type="line"/>
      <point x="1229" y="1041" type="line"/>
    </contour>
    <contour>
      <point x="1227" y="1319" type="line"/>
      <point x="1194" y="1423" type="line"/>
      <point x="408" y="1423" type="line"/>
      <point x="375" y="1319" type="line"/>
    </contour>
    <contour>
      <point x="272" y="1180" type="curve" smooth="yes"/>
      <point x="272" y="839"/>
      <point x="476" y="540"/>
      <point x="800" y="540" type="curve" smooth="yes"/>
      <point x="1124" y="540"/>
      <point x="1328" y="839"/>
      <point x="1328" y="1180" type="curve" smooth="yes"/>
      <point x="1328" y="1521"/>
      <point x="1124" y="1820"/>
      <point x="800" y="1820" type="curve" smooth="yes"/>
      <point x="476" y="1820"/>
      <point x="272" y="1521"/>
    </contour>
    <contour>
      <point x="1221" y="1180" type="curve" smooth="yes"/>
      <point x="1221" y="906"/>
      <point x="1063" y="643"/>
      <point x="800" y="643" type="curve" smooth="yes"/>
      <point x="537" y="643"/>
      <point x="379" y="906"/>
      <point x="379" y="1180" type="curve" smooth="yes"/>
      <point x="379" y="1454"/>
      <point x="537" y="1717"/>
      <point x="800" y="1717" type="curve" smooth="yes"/>
      <point x="1063" y="1717"/>
      <point x="1221" y="1454"/>
    </contour>
    <contour>
      <point x="853" y="548" type="curve"/>
      <point x="747" y="548" type="line"/>
      <point x="747" y="405"/>
      <point x="721" y="84"/>
      <point x="565" y="84" type="curve" smooth="yes"/>
      <point x="437" y="84"/>
      <point x="385" y="222"/>
      <point x="385" y="466" type="curve"/>
      <point x="278" y="466" type="line"/>
      <point x="278" y="227"/>
      <point x="330" y="-20"/>
      <point x="565" y="-20" type="curve" smooth="yes"/>
      <point x="705" y="-20"/>
      <point x="773" y="91"/>
      <point x="810" y="221" type="curve"/>
      <point x="790" y="221" type="line"/>
      <point x="827" y="91"/>
      <point x="895" y="-20"/>
      <point x="1035" y="-20" type="curve" smooth="yes"/>
      <point x="1270" y="-20"/>
      <point x="1322" y="227"/>
      <point x="1322" y="466" type="curve"/>
      <point x="1215" y="466" type="line"/>
      <point x="1215" y="222"/>
      <point x="1163" y="84"/>
      <point x="1035" y="84" type="curve" smooth="yes"/>
      <point x="879" y="84"/>
      <point x="853" y="405"/>
    </contour>
  </outline>
</glyph>
<glyph name="uniA058" format="2">
  <advance width="1600"/>
  <unicode hex="A058"/>
  <anchor x="800" y="1900" name="top"/>
  <outline>
    <contour>
      <point x="739" y="0" type="line"/>
      <point x="845" y="0" type="line"/>
      <point x="845" y="773" type="line"/>
      <point x="1271" y="364" type="line"/>
      <point x="1346" y="436" type="line"/>
      <point x="1189" y="588"/>
      <point x="1025" y="745"/>
      <point x="867" y="897" type="curve"/>
      <point x="1341" y="1361" type="line"/>
      <point x="1266" y="1435" type="line"/>
      <point x="845" y="1023" type="line"/>
      <point x="845" y="1793" type="line"/>
      <point x="739" y="1793" type="line"/>
      <point x="739" y="1020" type="line"/>
      <point x="313" y="1429" type="line"/>
      <point x="238" y="1357" type="line"/>
      <point x="395" y="1205"/>
      <point x="559" y="1048"/>
      <point x="717" y="896" type="curve"/>
      <point x="243" y="432" type="line"/>
      <point x="318" y="358" type="line"/>
      <point x="739" y="770" type="line"/>
    </contour>
  </outline>
</glyph>
<glyph name="uniA059" format="2">
  <advance width="1600"/>
  <unicode hex="A059"/>
  <outline>
    <contour>
      <point x="345" y="900" type="curve" smooth="yes"/>
      <point x="345" y="260"/>
      <point x="529" y="-23"/>
      <point x="800" y="-20" type="curve" smooth="yes"/>
      <point x="1071" y="-23"/>
      <point x="1255" y="260"/>
      <point x="1255" y="900" type="curve" smooth="yes"/>
      <point x="1255" y="1540"/>
      <point x="1071" y="1823"/>
      <point x="800" y="1820" type="curve" smooth="yes"/>
      <point x="529" y="1823"/>
      <point x="345" y="1540"/>
    </contour>
    <contour>
      <point x="800" y="1715" type="curve"/>
      <point x="977" y="1718"/>
      <point x="1149" y="1525"/>
      <point x="1149" y="900" type="curve" smooth="yes"/>
      <point x="1149" y="275"/>
      <point x="977" y="82"/>
      <point x="800" y="85" type="curve"/>
      <point x="623" y="82"/>
      <point x="451" y="275"/>
      <point x="451" y="900" type="curve" smooth="yes"/>
      <point x="451" y="1525"/>
      <point x="623" y="1718"/>
    </contour>
    <contour>
      <point x="876" y="896" type="curve" smooth="yes"/>
      <point x="876" y="535"/>
      <point x="1028" y="186"/>
      <point x="1278" y="21" type="curve"/>
      <point x="1333" y="106" type="line"/>
      <point x="1112" y="250"/>
      <point x="985" y="568"/>
      <point x="985" y="896" type="curve" smooth="yes"/>
      <point x="985" y="1224"/>
      <point x="1112" y="1542"/>
      <point x="1333" y="1686" type="curve"/>
      <point x="1278" y="1771" type="line"/>
      <point x="1028" y="1606"/>
      <point x="876" y="1257"/>
    </contour>
    <contour>
      <point x="724" y="896" type="curve" smooth="yes"/>
      <point x="724" y="1257"/>
      <point x="572" y="1606"/>
      <point x="322" y="1771" type="curve"/>
      <point x="267" y="1686" type="line"/>
      <point x="488" y="1542"/>
      <point x="615" y="1224"/>
      <point x="615" y="896" type="curve" smooth="yes"/>
      <point x="615" y="568"/>
      <point x="488" y="250"/>
      <point x="267" y="106" type="curve"/>
      <point x="322" y="21" type="line"/>
      <point x="572" y="186"/>
      <point x="724" y="535"/>
    </contour>
  </outline>
</glyph>
<glyph name="uniA05A" format="2">
  <advance width="1600"/>
  <unicode hex="A05A"/>
  <outline>
    <contour>
      <point x="853" y="836" type="curve"/>
      <point x="747" y="836" type="line"/>
      <point x="747" y="697"/>
      <point x="718" y="384"/>
      <point x="545" y="384" type="curve" smooth="yes"/>
      <point x="403" y="384"/>
      <point x="345" y="516"/>
      <point x="345" y="750" type="curve"/>
      <point x="238" y="750" type="line"/>
      <point x="238" y="519"/>
      <point x="294" y="280"/>
      <point x="545" y="280" type="curve" smooth="yes"/>
      <point x="696" y="280"/>
      <point x="770" y="391"/>
      <point x="810" y="521" type="curve"/>
      <point x="790" y="521" type="line"/>
      <point x="830" y="391"/>
      <point x="904" y="280"/>
      <point x="1055" y="280" type="curve" smooth="yes"/>
      <point x="1306" y="280"/>
      <point x="1362" y="519"/>
      <point x="1362" y="750" type="curve"/>
      <point x="1255" y="750" type="line"/>
      <point x="1255" y="516"/>
      <point x="1197" y="384"/>
      <point x="1055" y="384" type="curve" smooth="yes"/>
      <point x="882" y="384"/>
      <point x="853" y="697"/>
    </contour>
    <contour>
      <point x="747" y="20" type="line"/>
      <point x="853" y="20" type="line"/>
      <point x="853" y="267" type="line"/>
      <point x="747" y="267" type="line"/>
    </contour>
    <contour>
      <point x="282" y="1324" type="curve" smooth="yes"/>
      <point x="282" y="1059"/>
      <point x="482" y="828"/>
      <point x="800" y="828" type="curve" smooth="yes"/>
      <point x="1118" y="828"/>
      <point x="1318" y="1059"/>
      <point x="1318" y="1324" type="curve" smooth="yes"/>
      <point x="1318" y="1589"/>
      <point x="1118" y="1820"/>
      <point x="800" y="1820" type="curve" smooth="yes"/>
      <point x="482" y="1820"/>
      <point x="282" y="1589"/>
    </contour>
    <contour>
      <point x="1211" y="1324" type="curve" smooth="yes"/>
      <point x="1211" y="1120"/>
      <point x="1057" y="931"/>
      <point x="800" y="931" type="curve" smooth="yes"/>
      <point x="543" y="931"/>
      <point x="389" y="1120"/>
      <point x="389" y="1324" type="curve" smooth="yes"/>
      <point x="389" y="1528"/>
      <point x="543" y="1717"/>
      <point x="800" y="1717" type="curve" smooth="yes"/>
      <point x="1057" y="1717"/>
      <point x="1211" y="1528"/>
    </contour>
  </outline>
</glyph>
<glyph name="uniA05D" format="2">
  <advance width="1600"/>
  <unicode hex="A05D"/>
  <outline>
    <contour>
      <point x="286" y="844" type="line"/>
      <point x="1314" y="844" type="line"/>
      <point x="1314" y="949" type="line"/>
      <point x="286" y="949" type="line"/>
    </contour>
    <contour>
      <point x="954" y="896" type="curve" smooth="yes"/>
      <point x="954" y="519"/>
      <point x="1102" y="153"/>
      <point x="1346" y="-31" type="curve"/>
      <point x="1406" y="50" type="line"/>
      <point x="1188" y="212"/>
      <point x="1064" y="548"/>
      <point x="1064" y="896" type="curve" smooth="yes"/>
      <point x="1064" y="1244"/>
      <point x="1188" y="1580"/>
      <point x="1406" y="1742" type="curve"/>
      <point x="1346" y="1823" type="line"/>
      <point x="1102" y="1639"/>
      <point x="954" y="1273"/>
    </contour>
    <contour>
      <point x="646" y="896" type="curve" smooth="yes"/>
      <point x="646" y="1273"/>
      <point x="498" y="1639"/>
      <point x="254" y="1823" type="curve"/>
      <point x="194" y="1742" type="line"/>
      <point x="412" y="1580"/>
      <point x="536" y="1244"/>
      <point x="536" y="896" type="curve" smooth="yes"/>
      <point x="536" y="548"/>
      <point x="412" y="212"/>
      <point x="194" y="50" type="curve"/>
      <point x="254" y="-31" type="line"/>
      <point x="498" y="153"/>
      <point x="646" y="519"/>
    </contour>
  </outline>
</glyph>
<glyph name="uniA05E" format="2">
  <advance width="1600"/>
  <unicode hex="A05E"/>
  <outline>
    <contour>
      <point x="568" y="844" type="line"/>
      <point x="1032" y="844" type="line"/>
      <point x="1032" y="949" type="line"/>
      <point x="568" y="949" type="line"/>
    </contour>
    <contour>
      <point x="477" y="1322" type="line"/>
      <point x="1123" y="1322" type="line"/>
      <point x="1123" y="1427" type="line"/>
      <point x="477" y="1427" type="line"/>
    </contour>
    <contour>
      <point x="477" y="366" type="line"/>
      <point x="1123" y="366" type="line"/>
      <point x="1123" y="471" type="line"/>
      <point x="477" y="471" type="line"/>
    </contour>
    <contour>
      <point x="994" y="896" type="curve" smooth="yes"/>
      <point x="994" y="519"/>
      <point x="1142" y="153"/>
      <point x="1386" y="-31" type="curve"/>
      <point x="1446" y="50" type="line"/>
      <point x="1228" y="212"/>
      <point x="1104" y="548"/>
      <point x="1104" y="896" type="curve" smooth="yes"/>
      <point x="1104" y="1244"/>
      <point x="1228" y="1580"/>
      <point x="1446" y="1742" type="curve"/>
      <point x="1386" y="1823" type="line"/>
      <point x="1142" y="1639"/>
      <point x="994" y="1273"/>
    </contour>
    <contour>
      <point x="606" y="896" type="curve" smooth="yes"/>
      <point x="606" y="1273"/>
      <point x="458" y="1639"/>
      <point x="214" y="1823" type="curve"/>
      <point x="154" y="1742" type="line"/>
      <point x="372" y="1580"/>
      <point x="496" y="1244"/>
      <point x="496" y="896" type="curve" smooth="yes"/>
      <point x="496" y="548"/>
      <point x="372" y="212"/>
      <point x="154" y="50" type="curve"/>
      <point x="214" y="-31" type="line"/>
      <point x="458" y="153"/>
      <point x="606" y="519"/>
    </contour>
  </outline>
</glyph>
<glyph name="uniA064" format="2">
  <advance width="1600"/>
  <unicode hex="A064"/>
  <outline>
    <contour>
      <point x="218" y="151" type="line"/>
      <point x="325" y="151" type="line"/>
      <point x="325" y="597" type="line"/>
      <point x="218" y="597" type="line"/>
    </contour>
    <contour>
      <point x="218" y="1190" type="line"/>
      <point x="325" y="1190" type="line"/>
      <point x="325" y="1636" type="line"/>
      <point x="218" y="1636" type="line"/>
    </contour>
    <contour>
      <point x="1275" y="151" type="line"/>
      <point x="1382" y="151" type="line"/>
      <point x="1382" y="597" type="line"/>
      <point x="1275" y="597" type="line"/>
    </contour>
    <contour>
      <point x="1275" y="1190" type="line"/>
      <point x="1382" y="1190" type="line"/>
      <point x="1382" y="1636" type="line"/>
      <point x="1275" y="1636" type="line"/>
    </contour>
    <contour>
      <point x="463" y="896" type="curve" smooth="yes"/>
      <point x="463" y="266"/>
      <point x="561" y="-27"/>
      <point x="800" y="-27" type="curve" smooth="yes"/>
      <point x="1039" y="-27"/>
      <point x="1137" y="266"/>
      <point x="1137" y="896" type="curve" smooth="yes"/>
      <point x="1137" y="1527"/>
      <point x="1039" y="1820"/>
      <point x="800" y="1820" type="curve" smooth="yes"/>
      <point x="561" y="1820"/>
      <point x="463" y="1518"/>
    </contour>
    <contour>
      <point x="800" y="1716" type="curve" smooth="yes"/>
      <point x="917" y="1716"/>
      <point x="1031" y="1560"/>
      <point x="1031" y="896" type="curve" smooth="yes"/>
      <point x="1031" y="233"/>
      <point x="917" y="77"/>
      <point x="800" y="77" type="curve" smooth="yes"/>
      <point x="683" y="77"/>
      <point x="570" y="233"/>
      <point x="570" y="896" type="curve" smooth="yes"/>
      <point x="570" y="1552"/>
      <point x="683" y="1716"/>
    </contour>
  </outline>
</glyph>
<glyph name="uniA068" format="2">
  <advance width="1600"/>
  <unicode hex="A068"/>
  <outline>
    <contour>
      <point x="747" y="1093" type="line"/>
      <point x="853" y="1093" type="line"/>
      <point x="853" y="1257" type="line" smooth="yes"/>
      <point x="854" y="1397"/>
      <point x="882" y="1711"/>
      <point x="1055" y="1711" type="curve" smooth="yes"/>
      <point x="1197" y="1711"/>
      <point x="1255" y="1579"/>
      <point x="1255" y="1345" type="curve"/>
      <point x="1362" y="1345" type="line"/>
      <point x="1362" y="1576"/>
      <point x="1306" y="1815"/>
      <point x="1055" y="1815" type="curve" smooth="yes"/>
      <point x="904" y="1815"/>
      <point x="830" y="1704"/>
      <point x="790" y="1574" type="curve"/>
      <point x="810" y="1574" type="line"/>
      <point x="770" y="1704"/>
      <point x="696" y="1815"/>
      <point x="545" y="1815" type="curve" smooth="yes"/>
      <point x="294" y="1815"/>
      <point x="238" y="1576"/>
      <point x="238" y="1345" type="curve"/>
      <point x="345" y="1345" type="line"/>
      <point x="345" y="1579"/>
      <point x="403" y="1711"/>
      <point x="545" y="1711" type="curve" smooth="yes"/>
      <point x="718" y="1711"/>
      <point x="746" y="1397"/>
      <point x="747" y="1257" type="curve" smooth="yes"/>
    </contour>
    <contour>
      <point x="799" y="-14" type="curve" smooth="yes"/>
      <point x="1055" y="-14"/>
      <point x="1264" y="195"/>
      <point x="1264" y="451" type="curve"/>
      <point x="1157" y="451" type="line"/>
      <point x="1157" y="252"/>
      <point x="996" y="92"/>
      <point x="799" y="92" type="curve" smooth="yes"/>
      <point x="600" y="92"/>
      <point x="441" y="252"/>
      <point x="441" y="451" type="curve"/>
      <point x="334" y="451" type="line"/>
      <point x="334" y="195"/>
      <point x="541" y="-14"/>
    </contour>
    <contour>
      <point x="747" y="410" type="line"/>
      <point x="853" y="410" type="line"/>
      <point x="853" y="769" type="line"/>
      <point x="747" y="769" type="line"/>
    </contour>
    <contour>
      <point x="223" y="546" type="curve"/>
      <point x="330" y="546" type="line"/>
      <point x="330" y="799"/>
      <point x="539" y="1005"/>
      <point x="799" y="1005" type="curve" smooth="yes"/>
      <point x="1058" y="1005"/>
      <point x="1270" y="801"/>
      <point x="1270" y="546" type="curve"/>
      <point x="1377" y="546" type="line"/>
      <point x="1377" y="845"/>
      <point x="1135" y="1110"/>
      <point x="803" y="1110" type="curve" smooth="yes"/>
      <point x="462" y="1110"/>
      <point x="223" y="845"/>
    </contour>
  </outline>
</glyph>
<glyph name="uniA06A" format="2">
  <advance width="1600"/>
  <unicode hex="A06A"/>
  <anchor x="800" y="1900" name="top"/>
  <outline>
    <contour>
      <point x="1246" y="735" type="line"/>
      <point x="286" y="1269" type="line"/>
      <point x="286" y="593" type="line"/>
      <point x="393" y="593" type="line"/>
      <point x="393" y="1135" type="line"/>
      <point x="354" y="1112" type="line"/>
      <point x="1313" y="577" type="line"/>
      <point x="1313" y="1238" type="line"/>
      <point x="1206" y="1238" type="line"/>
      <point x="1206" y="712" type="line"/>
    </contour>
    <contour>
      <point x="1088" y="1487" type="line"/>
      <point x="451" y="1842" type="line"/>
      <point x="451" y="1369" type="line"/>
      <point x="557" y="1369" type="line"/>
      <point x="557" y="1707" type="line"/>
      <point x="519" y="1684" type="line"/>
      <point x="1156" y="1329" type="line"/>
      <point x="1156" y="1792" type="line"/>
      <point x="1050" y="1792" type="line"/>
      <point x="1050" y="1464" type="line"/>
    </contour>
    <contour>
      <point x="451" y="0" type="line"/>
      <point x="1156" y="0" type="line"/>
      <point x="1156" y="104" type="line"/>
      <point x="451" y="104" type="line"/>
    </contour>
    <contour>
      <point x="451" y="382" type="line"/>
      <point x="1156" y="382" type="line"/>
      <point x="1156" y="485" type="line"/>
      <point x="451" y="485" type="line"/>
    </contour>
  </outline>
</glyph>
<glyph name="uniA06B" format="2">
  <advance width="1600"/>
  <unicode hex="A06B"/>
  <outline>
    <contour>
      <point x="1002" y="-33" type="line"/>
      <point x="1002" y="843" type="line"/>
      <point x="1348" y="1321" type="line"/>
      <point x="1259" y="1380" type="line"/>
      <point x="1002" y="1025" type="line"/>
      <point x="1002" y="1793" type="line"/>
      <point x="895" y="1793" type="line"/>
      <point x="895" y="164" type="line"/>
      <point x="308" y="556" type="line"/>
      <point x="247" y="471" type="line"/>
    </contour>
    <contour>
      <point x="210" y="844" type="line"/>
      <point x="719" y="844" type="line"/>
      <point x="719" y="948" type="line"/>
      <point x="210" y="948" type="line"/>
    </contour>
    <contour>
      <point x="719" y="1140" type="line"/>
      <point x="719" y="1669" type="line"/>
      <point x="612" y="1669" type="line"/>
      <point x="612" y="1368" type="line"/>
      <point x="210" y="1705" type="line"/>
      <point x="210" y="1175" type="line"/>
      <point x="317" y="1175" type="line"/>
      <point x="317" y="1477" type="line"/>
    </contour>
  </outline>
</glyph>
<glyph name="uniA06E" format="2">
  <advance width="1600"/>
  <unicode hex="A06E"/>
  <anchor x="800" y="1900" name="top"/>
  <outline>
    <contour>
      <point x="853" y="1033" type="line"/>
      <point x="853" y="1158" type="line"/>
      <point x="485" y="1407" type="line"/>
      <point x="485" y="305" type="line"/>
      <point x="520" y="321" type="line"/>
      <point x="312" y="492" type="line"/>
      <point x="243" y="411" type="line"/>
      <point x="592" y="128" type="line"/>
      <point x="592" y="1254" type="line"/>
      <point x="555" y="1234" type="line"/>
    </contour>
    <contour>
      <point x="1199" y="298" type="line"/>
      <point x="1305" y="298" type="line"/>
      <point x="1305" y="1003" type="line"/>
      <point x="1199" y="1003" type="line"/>
    </contour>
    <contour>
      <point x="840" y="1739" type="line"/>
      <point x="840" y="0" type="line"/>
      <point x="946" y="0" type="line"/>
      <point x="946" y="1563" type="line"/>
      <point x="911" y="1546" type="line"/>
      <point x="1305" y="1231" type="line"/>
      <point x="1305" y="1800" type="line"/>
      <point x="1199" y="1800" type="line"/>
      <point x="1199" y="1405" type="line"/>
      <point x="1234" y="1422" type="line"/>
    </contour>
  </outline>
</glyph>
<glyph name="uniA06F" format="2">
  <advance width="1600"/>
  <unicode hex="A06F"/>
  <outline>
    <contour>
      <point x="1199" y="633" type="line"/>
      <point x="1305" y="633" type="line"/>
      <point x="1305" y="1159" type="line"/>
      <point x="1199" y="1159" type="line"/>
    </contour>
    <contour>
      <point x="858" y="1820" type="line"/>
      <point x="858" y="361" type="line"/>
      <point x="899" y="388" type="line"/>
      <point x="279" y="670" type="line"/>
      <point x="279" y="0" type="line"/>
      <point x="385" y="0" type="line"/>
      <point x="385" y="552" type="line"/>
      <point x="344" y="525" type="line"/>
      <point x="964" y="243" type="line"/>
      <point x="964" y="1703" type="line"/>
      <point x="922" y="1675" type="line"/>
      <point x="1296" y="1504" type="line"/>
      <point x="1340" y="1599" type="line"/>
    </contour>
    <contour>
      <point x="355" y="1415" type="line"/>
      <point x="872" y="1180" type="line"/>
      <point x="872" y="1295" type="line"/>
      <point x="279" y="1565" type="line"/>
      <point x="279" y="968" type="line"/>
      <point x="385" y="968" type="line"/>
      <point x="385" y="1434" type="line"/>
    </contour>
  </outline>
</glyph>
<glyph name="uniA071" format="2">
  <advance width="1600"/>
  <unicode hex="A071"/>
  <anchor x="800" y="1900" name="top"/>
  <outline>
    <contour>
      <point x="976" y="649" type="line"/>
      <point x="976" y="1800" type="line"/>
      <point x="869" y="1800" type="line"/>
      <point x="869" y="849" type="line"/>
      <point x="903" y="863" type="line"/>
      <point x="279" y="1457" type="line"/>
      <point x="279" y="593" type="line"/>
      <point x="386" y="593" type="line"/>
      <point x="386" y="1257" type="line"/>
      <point x="352" y="1243" type="line"/>
    </contour>
    <contour>
      <point x="874" y="0" type="line"/>
      <point x="981" y="0" type="line"/>
      <point x="981" y="358" type="line"/>
      <point x="874" y="358" type="line"/>
    </contour>
    <contour>
      <point x="1385" y="61" type="line"/>
      <point x="1385" y="421"/>
      <point x="1205" y="725"/>
      <point x="926" y="725" type="curve" smooth="yes"/>
      <point x="647" y="725"/>
      <point x="467" y="421"/>
      <point x="467" y="61" type="curve"/>
      <point x="574" y="61" type="line"/>
      <point x="574" y="346"/>
      <point x="706" y="620"/>
      <point x="926" y="620" type="curve" smooth="yes"/>
      <point x="1146" y="620"/>
      <point x="1278" y="346"/>
      <point x="1278" y="61" type="curve"/>
    </contour>
  </outline>
</glyph>
<glyph name="uniA074" format="2">
  <advance width="1600"/>
  <unicode hex="A074"/>
  <anchor x="800" y="1900" name="top"/>
  <outline>
    <contour>
      <point x="385" y="0" type="line"/>
      <point x="385" y="700" type="line"/>
      <point x="278" y="700" type="line"/>
      <point x="278" y="0" type="line"/>
    </contour>
    <contour>
      <point x="1198" y="1800" type="line"/>
      <point x="1198" y="1094" type="line"/>
      <point x="1305" y="1094" type="line"/>
      <point x="1305" y="1800" type="line"/>
    </contour>
    <contour>
      <point x="1212" y="1393" type="line"/>
      <point x="1212" y="1518" type="line"/>
      <point x="738" y="1829" type="line"/>
      <point x="738" y="122" type="line"/>
      <point x="777" y="142" type="line"/>
      <point x="372" y="407" type="line"/>
      <point x="372" y="282" type="line"/>
      <point x="845" y="-29" type="line"/>
      <point x="845" y="1679" type="line"/>
      <point x="807" y="1658" type="line"/>
    </contour>
  </outline>
</glyph>
<glyph name="uniA078" format="2">
  <advance width="1600"/>
  <unicode hex="A078"/>
  <anchor x="800" y="1900" name="top"/>
  <outline>
    <contour>
      <point x="188" y="1250" type="curve" smooth="yes"/>
      <point x="188" y="949"/>
      <point x="405" y="680"/>
      <point x="746" y="680" type="curve" smooth="yes"/>
      <point x="1087" y="680"/>
      <point x="1304" y="949"/>
      <point x="1304" y="1250" type="curve" smooth="yes"/>
      <point x="1304" y="1551"/>
      <point x="1087" y="1820"/>
      <point x="746" y="1820" type="curve" smooth="yes"/>
      <point x="405" y="1820"/>
      <point x="188" y="1551"/>
    </contour>
    <contour>
      <point x="1197" y="1250" type="curve" smooth="yes"/>
      <point x="1197" y="1012"/>
      <point x="1027" y="783"/>
      <point x="746" y="783" type="curve" smooth="yes"/>
      <point x="465" y="783"/>
      <point x="295" y="1012"/>
      <point x="295" y="1250" type="curve" smooth="yes"/>
      <point x="295" y="1488"/>
      <point x="465" y="1717"/>
      <point x="746" y="1717" type="curve" smooth="yes"/>
      <point x="1027" y="1717"/>
      <point x="1197" y="1488"/>
    </contour>
    <contour>
      <point x="984" y="280" type="line"/>
      <point x="1090" y="280" type="line"/>
      <point x="1090" y="586" type="line"/>
      <point x="984" y="586" type="line"/>
    </contour>
    <contour>
      <point x="1210" y="1295" type="line"/>
      <point x="282" y="1295" type="line"/>
      <point x="282" y="1191" type="line"/>
      <point x="1210" y="1191" type="line"/>
    </contour>
    <contour>
      <point x="799" y="328" type="curve" smooth="yes"/>
      <point x="799" y="1736" type="line"/>
      <point x="693" y="1736" type="line"/>
      <point x="693" y="328" type="line" smooth="yes"/>
      <point x="693" y="101"/>
      <point x="881" y="-27"/>
      <point x="1046" y="-27" type="curve" smooth="yes"/>
      <point x="1220" y="-27"/>
      <point x="1400" y="113"/>
      <point x="1400" y="307" type="curve"/>
      <point x="1294" y="307" type="line"/>
      <point x="1294" y="180"/>
      <point x="1172" y="77"/>
      <point x="1046" y="77" type="curve" smooth="yes"/>
      <point x="931" y="77"/>
      <point x="799" y="166"/>
    </contour>
  </outline>
</glyph>
<glyph name="uniA079" format="2">
  <advance width="1600"/>
  <unicode hex="A079"/>
  <outline>
    <contour>
      <point x="279" y="0" type="line"/>
      <point x="385" y="0" type="line"/>
      <point x="385" y="1628" type="line"/>
      <point x="529" y="1531"/>
      <point x="664" y="1437"/>
      <point x="806" y="1340" type="curve"/>
      <point x="806" y="948" type="line"/>
      <point x="537" y="948" type="line"/>
      <point x="537" y="844" type="line"/>
      <point x="806" y="844" type="line"/>
      <point x="806" y="554" type="line"/>
      <point x="537" y="554" type="line"/>
      <point x="537" y="450" type="line"/>
      <point x="806" y="450" type="line"/>
      <point x="806" y="0" type="line"/>
      <point x="913" y="0" type="line"/>
      <point x="913" y="450" type="line"/>
      <point x="1184" y="450" type="line"/>
      <point x="1184" y="554" type="line"/>
      <point x="913" y="554" type="line"/>
      <point x="913" y="844" type="line"/>
      <point x="1184" y="844" type="line"/>
      <point x="1184" y="948" type="line"/>
      <point x="913" y="948" type="line"/>
      <point x="913" y="1639" type="line"/>
      <point x="1346" y="1401" type="line"/>
      <point x="1399" y="1490" type="line"/>
      <point x="806" y="1817" type="line"/>
      <point x="806" y="1466" type="line"/>
      <point x="279" y="1829" type="line"/>
    </contour>
  </outline>
</glyph>
<glyph name="uniA07B" format="2">
  <advance width="1600"/>
  <unicode hex="A07B"/>
  <outline>
    <contour>
      <point x="739" y="0" type="line"/>
      <point x="845" y="0" type="line"/>
      <point x="845" y="506" type="line"/>
      <point x="1238" y="506" type="line"/>
      <point x="1238" y="610" type="line"/>
      <point x="845" y="610" type="line"/>
      <point x="845" y="1059" type="line"/>
      <point x="1238" y="1059" type="line"/>
      <point x="1238" y="1162" type="line"/>
      <point x="845" y="1162" type="line"/>
      <point x="845" y="1689" type="line"/>
      <point x="1202" y="1689" type="line"/>
      <point x="1319" y="1355" type="line"/>
      <point x="1420" y="1388" type="line"/>
      <point x="1279" y="1793" type="line"/>
      <point x="210" y="1793" type="line"/>
      <point x="210" y="1689" type="line"/>
      <point x="739" y="1689" type="line"/>
      <point x="739" y="1162" type="line"/>
      <point x="346" y="1162" type="line"/>
      <point x="346" y="1059" type="line"/>
      <point x="739" y="1059" type="line"/>
      <point x="739" y="610" type="line"/>
      <point x="346" y="610" type="line"/>
      <point x="346" y="506" type="line"/>
      <point x="739" y="506" type="line"/>
    </contour>
  </outline>
</glyph>
<glyph name="uniA07C" format="2">
  <advance width="1600"/>
  <unicode hex="A07C"/>
  <outline>
    <contour>
      <point x="1374" y="584" type="line"/>
      <point x="210" y="584" type="line"/>
      <point x="210" y="479" type="line"/>
      <point x="1374" y="479" type="line"/>
    </contour>
    <contour>
      <point x="1305" y="1314" type="line"/>
      <point x="278" y="1314" type="line"/>
      <point x="278" y="1210" type="line"/>
      <point x="1305" y="1210" type="line"/>
    </contour>
    <contour>
      <point x="845" y="0" type="line"/>
      <point x="845" y="1793" type="line"/>
      <point x="739" y="1793" type="line"/>
      <point x="739" y="0" type="line"/>
    </contour>
  </outline>
</glyph>
<glyph name="uniA07D" format="2">
  <advance width="1600"/>
  <unicode hex="A07D"/>
  <outline>
    <contour>
      <point x="1059" y="410" type="line"/>
      <point x="1166" y="410" type="line"/>
      <point x="1166" y="725" type="line"/>
      <point x="1059" y="725" type="line"/>
    </contour>
    <contour>
      <point x="1059" y="1080" type="line"/>
      <point x="1166" y="1080" type="line"/>
      <point x="1166" y="1396" type="line"/>
      <point x="1059" y="1396" type="line"/>
    </contour>
    <contour>
      <point x="423" y="-20" type="curve" smooth="yes"/>
      <point x="511" y="-20"/>
      <point x="570" y="45"/>
      <point x="600" y="185" type="curve"/>
      <point x="574" y="185" type="line"/>
      <point x="606" y="45"/>
      <point x="660" y="-20"/>
      <point x="750" y="-20" type="curve" smooth="yes"/>
      <point x="898" y="-20"/>
      <point x="967" y="153"/>
      <point x="967" y="635" type="curve" smooth="yes"/>
      <point x="967" y="1132"/>
      <point x="860" y="1822"/>
      <point x="587" y="1822" type="curve" smooth="yes"/>
      <point x="314" y="1822"/>
      <point x="207" y="1128"/>
      <point x="207" y="635" type="curve" smooth="yes"/>
      <point x="207" y="152"/>
      <point x="278" y="-20"/>
    </contour>
    <contour>
      <point x="423" y="84" type="curve" smooth="yes"/>
      <point x="370" y="84"/>
      <point x="314" y="143"/>
      <point x="314" y="635" type="curve" smooth="yes"/>
      <point x="314" y="1109"/>
      <point x="426" y="1718"/>
      <point x="587" y="1718" type="curve" smooth="yes"/>
      <point x="748" y="1718"/>
      <point x="860" y="1113"/>
      <point x="860" y="635" type="curve" smooth="yes"/>
      <point x="860" y="145"/>
      <point x="804" y="84"/>
      <point x="750" y="84" type="curve" smooth="yes"/>
      <point x="693" y="84"/>
      <point x="640" y="167"/>
      <point x="640" y="466" type="curve"/>
      <point x="534" y="466" type="line"/>
      <point x="534" y="165"/>
      <point x="482" y="79"/>
    </contour>
    <contour>
      <point x="1267" y="1407" type="line"/>
      <point x="1267" y="385" type="line"/>
      <point x="1374" y="385" type="line"/>
      <point x="1374" y="1407" type="line"/>
    </contour>
    <contour>
      <point x="1283" y="844" type="line"/>
      <point x="1283" y="948" type="line"/>
      <point x="936" y="948" type="line"/>
      <point x="945" y="844" type="line"/>
    </contour>
  </outline>
</glyph>
<glyph name="uniA084" format="2">
  <advance width="1600"/>
  <unicode hex="A084"/>
  <outline>
    <contour>
      <point x="545" y="1046" type="curve" smooth="yes"/>
      <point x="706" y="1046"/>
      <point x="776" y="1223"/>
      <point x="808" y="1353" type="curve"/>
      <point x="792" y="1353" type="line"/>
      <point x="824" y="1224"/>
      <point x="896" y="1046"/>
      <point x="1054" y="1046" type="curve" smooth="yes"/>
      <point x="1347" y="1046"/>
      <point x="1371" y="1607"/>
      <point x="1371" y="1800" type="curve"/>
      <point x="1264" y="1800" type="line"/>
      <point x="1264" y="1680"/>
      <point x="1247" y="1151"/>
      <point x="1054" y="1151" type="curve" smooth="yes"/>
      <point x="870" y="1151"/>
      <point x="853" y="1680"/>
      <point x="853" y="1800" type="curve"/>
      <point x="747" y="1800" type="line"/>
      <point x="747" y="1680"/>
      <point x="730" y="1151"/>
      <point x="545" y="1151" type="curve" smooth="yes"/>
      <point x="354" y="1151"/>
      <point x="336" y="1680"/>
      <point x="336" y="1800" type="curve"/>
      <point x="229" y="1800" type="line"/>
      <point x="229" y="1607"/>
      <point x="254" y="1046"/>
    </contour>
    <contour>
      <point x="747" y="420" type="line"/>
      <point x="854" y="420" type="line"/>
      <point x="854" y="880" type="line"/>
      <point x="747" y="880" type="line"/>
    </contour>
    <contour>
      <point x="1330" y="534" type="curve"/>
      <point x="1223" y="534" type="line"/>
      <point x="1223" y="284"/>
      <point x="1019" y="85"/>
      <point x="801" y="85" type="curve" smooth="yes"/>
      <point x="584" y="85"/>
      <point x="376" y="285"/>
      <point x="376" y="534" type="curve"/>
      <point x="270" y="534" type="line"/>
      <point x="270" y="229"/>
      <point x="521" y="-20"/>
      <point x="801" y="-20" type="curve" smooth="yes"/>
      <point x="1082" y="-20"/>
      <point x="1330" y="229"/>
    </contour>
  </outline>
</glyph>
<glyph name="uniA085" format="2">
  <advance width="1600"/>
  <unicode hex="A085"/>
  <outline>
    <contour>
      <point x="780" y="1521" type="curve"/>
      <point x="820" y="1521" type="line" smooth="yes"/>
      <point x="970" y="1521"/>
      <point x="1117" y="1457"/>
      <point x="1206" y="1273" type="curve"/>
      <point x="1304" y="1274" type="line"/>
      <point x="1304" y="1800" type="line"/>
      <point x="1198" y="1800" type="line"/>
      <point x="1198" y="1428" type="line"/>
      <point x="1219" y="1438" type="line"/>
      <point x="1113" y="1569"/>
      <point x="967" y="1628"/>
      <point x="800" y="1626" type="curve" smooth="yes"/>
      <point x="452" y="1631"/>
      <point x="198" y="1380"/>
      <point x="198" y="803" type="curve" smooth="yes"/>
      <point x="198" y="226"/>
      <point x="452" y="-25"/>
      <point x="800" y="-20" type="curve" smooth="yes"/>
      <point x="1044" y="-24"/>
      <point x="1242" y="99"/>
      <point x="1338" y="371" type="curve"/>
      <point x="1239" y="410" type="line"/>
      <point x="1156" y="166"/>
      <point x="1002" y="85"/>
      <point x="820" y="85" type="curve" smooth="yes"/>
      <point x="780" y="85" type="line" smooth="yes"/>
      <point x="539" y="85"/>
      <point x="304" y="254"/>
      <point x="304" y="803" type="curve" smooth="yes"/>
      <point x="304" y="1352"/>
      <point x="539" y="1521"/>
    </contour>
    <contour>
      <point x="829" y="852" type="line"/>
      <point x="829" y="748" type="line"/>
      <point x="1377" y="748" type="line"/>
      <point x="1377" y="852" type="line"/>
    </contour>
    <contour>
      <point x="853" y="65" type="line"/>
      <point x="853" y="1533" type="line"/>
      <point x="747" y="1533" type="line"/>
      <point x="747" y="65" type="line"/>
    </contour>
  </outline>
</glyph>
<glyph name="uniA087" format="2">
  <advance width="1600"/>
  <unicode hex="A087"/>
  <anchor x="800" y="1900" name="top"/>
  <outline>
    <contour>
      <point x="414" y="59" type="line"/>
      <point x="520" y="59" type="line"/>
      <point x="520" y="418" type="line"/>
      <point x="414" y="418" type="line"/>
    </contour>
    <contour>
      <point x="414" y="1375" type="line"/>
      <point x="520" y="1375" type="line"/>
      <point x="520" y="1734" type="line"/>
      <point x="414" y="1734" type="line"/>
    </contour>
    <contour>
      <point x="653" y="900" type="curve" smooth="yes"/>
      <point x="653" y="250"/>
      <point x="773" y="-22"/>
      <point x="990" y="-20" type="curve" smooth="yes"/>
      <point x="1207" y="-22"/>
      <point x="1327" y="250"/>
      <point x="1327" y="900" type="curve" smooth="yes"/>
      <point x="1327" y="1550"/>
      <point x="1207" y="1822"/>
      <point x="990" y="1820" type="curve" smooth="yes"/>
      <point x="773" y="1822"/>
      <point x="653" y="1550"/>
    </contour>
    <contour>
      <point x="990" y="1715" type="curve" smooth="yes"/>
      <point x="1106" y="1717"/>
      <point x="1220" y="1535"/>
      <point x="1220" y="900" type="curve" smooth="yes"/>
      <point x="1220" y="265"/>
      <point x="1106" y="83"/>
      <point x="990" y="85" type="curve" smooth="yes"/>
      <point x="873" y="83"/>
      <point x="759" y="265"/>
      <point x="759" y="900" type="curve" smooth="yes"/>
      <point x="759" y="1535"/>
      <point x="873" y="1717"/>
    </contour>
    <contour>
      <point x="684" y="1080" type="curve"/>
      <point x="684" y="1185" type="line"/>
      <point x="391" y="1185"/>
      <point x="210" y="1056"/>
      <point x="210" y="896" type="curve" smooth="yes"/>
      <point x="210" y="736"/>
      <point x="391" y="607"/>
      <point x="684" y="607" type="curve"/>
      <point x="684" y="712" type="line"/>
      <point x="454" y="712"/>
      <point x="316" y="802"/>
      <point x="316" y="896" type="curve" smooth="yes"/>
      <point x="316" y="990"/>
      <point x="454" y="1080"/>
    </contour>
  </outline>
</glyph>
<glyph name="uniA088" format="2">
  <advance width="1600"/>
  <unicode hex="A088"/>
  <outline>
    <contour>
      <point x="853" y="0" type="line"/>
      <point x="853" y="1793" type="line"/>
      <point x="747" y="1793" type="line"/>
      <point x="747" y="0" type="line"/>
    </contour>
    <contour>
      <point x="1007" y="750" type="line"/>
      <point x="1113" y="750" type="line"/>
      <point x="1113" y="1041" type="line"/>
      <point x="1007" y="1041" type="line"/>
    </contour>
    <contour>
      <point x="222" y="896" type="curve" smooth="yes"/>
      <point x="222" y="603"/>
      <point x="448" y="337"/>
      <point x="800" y="337" type="curve" smooth="yes"/>
      <point x="1152" y="337"/>
      <point x="1378" y="603"/>
      <point x="1378" y="896" type="curve" smooth="yes"/>
      <point x="1378" y="1189"/>
      <point x="1152" y="1455"/>
      <point x="800" y="1455" type="curve" smooth="yes"/>
      <point x="448" y="1455"/>
      <point x="222" y="1189"/>
    </contour>
    <contour>
      <point x="1271" y="896" type="curve" smooth="yes"/>
      <point x="1271" y="663"/>
      <point x="1093" y="440"/>
      <point x="800" y="440" type="curve" smooth="yes"/>
      <point x="507" y="440"/>
      <point x="329" y="663"/>
      <point x="329" y="896" type="curve" smooth="yes"/>
      <point x="329" y="1129"/>
      <point x="507" y="1352"/>
      <point x="800" y="1352" type="curve" smooth="yes"/>
      <point x="1093" y="1352"/>
      <point x="1271" y="1129"/>
    </contour>
  </outline>
</glyph>
<glyph name="uniA08A" format="2">
  <advance width="1600"/>
  <unicode hex="A08A"/>
  <anchor x="800" y="1900" name="top"/>
  <outline>
    <contour>
      <point x="911" y="900" type="curve" smooth="yes"/>
      <point x="911" y="250"/>
      <point x="984" y="-21"/>
      <point x="1155" y="-20" type="curve" smooth="yes"/>
      <point x="1326" y="-21"/>
      <point x="1399" y="250"/>
      <point x="1399" y="900" type="curve" smooth="yes"/>
      <point x="1399" y="1550"/>
      <point x="1326" y="1821"/>
      <point x="1155" y="1820" type="curve" smooth="yes"/>
      <point x="984" y="1821"/>
      <point x="911" y="1550"/>
    </contour>
    <contour>
      <point x="1155" y="1715" type="curve" smooth="yes"/>
      <point x="1224" y="1720"/>
      <point x="1292" y="1535"/>
      <point x="1292" y="900" type="curve" smooth="yes"/>
      <point x="1292" y="265"/>
      <point x="1224" y="80"/>
      <point x="1155" y="85" type="curve" smooth="yes"/>
      <point x="1085" y="84"/>
      <point x="1017" y="265"/>
      <point x="1017" y="900" type="curve" smooth="yes"/>
      <point x="1017" y="1535"/>
      <point x="1085" y="1716"/>
    </contour>
    <contour>
      <point x="445" y="1715" type="curve" smooth="yes"/>
      <point x="514" y="1720"/>
      <point x="582" y="1535"/>
      <point x="582" y="900" type="curve" smooth="yes"/>
      <point x="582" y="265"/>
      <point x="514" y="80"/>
      <point x="445" y="85" type="curve" smooth="yes"/>
      <point x="375" y="84"/>
      <point x="307" y="265"/>
      <point x="307" y="900" type="curve" smooth="yes"/>
      <point x="307" y="1535"/>
      <point x="375" y="1716"/>
    </contour>
    <contour>
      <point x="748" y="59" type="line"/>
      <point x="854" y="59" type="line"/>
      <point x="854" y="418" type="line"/>
      <point x="748" y="418" type="line"/>
    </contour>
    <contour>
      <point x="676" y="948" type="line"/>
      <point x="676" y="844" type="line"/>
      <point x="927" y="844" type="line"/>
      <point x="927" y="948" type="line"/>
    </contour>
    <contour>
      <point x="201" y="900" type="curve" smooth="yes"/>
      <point x="201" y="250"/>
      <point x="274" y="-21"/>
      <point x="445" y="-20" type="curve" smooth="yes"/>
      <point x="616" y="-21"/>
      <point x="689" y="250"/>
      <point x="689" y="900" type="curve" smooth="yes"/>
      <point x="689" y="1550"/>
      <point x="616" y="1821"/>
      <point x="445" y="1820" type="curve" smooth="yes"/>
      <point x="274" y="1821"/>
      <point x="201" y="1550"/>
    </contour>
    <contour>
      <point x="748" y="1733" type="line"/>
      <point x="748" y="1374" type="line"/>
      <point x="854" y="1374" type="line"/>
      <point x="854" y="1733" type="line"/>
    </contour>
  </outline>
</glyph>
<glyph name="uniA08B" format="2">
  <advance width="1600"/>
  <unicode hex="A08B"/>
  <outline>
    <contour>
      <point x="1373" y="102" type="curve"/>
      <point x="1373" y="207" type="line"/>
      <point x="989" y="207"/>
      <point x="740" y="547"/>
      <point x="740" y="896" type="curve" smooth="yes"/>
      <point x="740" y="1245"/>
      <point x="989" y="1585"/>
      <point x="1373" y="1585" type="curve"/>
      <point x="1373" y="1690" type="line"/>
      <point x="956" y="1690"/>
      <point x="635" y="1331"/>
      <point x="635" y="896" type="curve" smooth="yes"/>
      <point x="635" y="461"/>
      <point x="956" y="102"/>
    </contour>
    <contour>
      <point x="685" y="1820" type="curve" smooth="yes"/>
      <point x="461" y="1822"/>
      <point x="279" y="1550"/>
      <point x="279" y="900" type="curve" smooth="yes"/>
      <point x="279" y="250"/>
      <point x="461" y="-22"/>
      <point x="685" y="-20" type="curve" smooth="yes"/>
      <point x="909" y="-22"/>
      <point x="1092" y="250"/>
      <point x="1092" y="900" type="curve" smooth="yes"/>
      <point x="1092" y="1550"/>
      <point x="909" y="1822"/>
    </contour>
    <contour>
      <point x="685" y="85" type="curve" smooth="yes"/>
      <point x="557" y="82"/>
      <point x="385" y="265"/>
      <point x="385" y="900" type="curve" smooth="yes"/>
      <point x="385" y="1535"/>
      <point x="557" y="1718"/>
      <point x="685" y="1715" type="curve" smooth="yes"/>
      <point x="810" y="1718"/>
      <point x="985" y="1535"/>
      <point x="985" y="900" type="curve" smooth="yes"/>
      <point x="985" y="265"/>
      <point x="810" y="82"/>
    </contour>
    <contour>
      <point x="1199" y="338" type="line"/>
      <point x="1306" y="338" type="line"/>
      <point x="1306" y="697" type="line"/>
      <point x="1199" y="697" type="line"/>
    </contour>
    <contour>
      <point x="1199" y="1095" type="line"/>
      <point x="1306" y="1095" type="line"/>
      <point x="1306" y="1454" type="line"/>
      <point x="1199" y="1454" type="line"/>
    </contour>
    <contour>
      <point x="731" y="948" type="line"/>
      <point x="731" y="844" type="line"/>
      <point x="1384" y="844" type="line"/>
      <point x="1384" y="948" type="line"/>
    </contour>
  </outline>
</glyph>
<glyph name="uniA08D" format="2">
  <advance width="1600"/>
  <unicode hex="A08D"/>
  <anchor x="800" y="1900" name="top"/>
  <outline>
    <contour>
      <point x="814" y="85" type="curve"/>
      <point x="786" y="85" type="line" smooth="yes"/>
      <point x="466" y="85"/>
      <point x="387" y="342"/>
      <point x="387" y="714" type="curve" smooth="yes"/>
      <point x="387" y="1800" type="line"/>
      <point x="280" y="1800" type="line"/>
      <point x="280" y="714" type="line" smooth="yes"/>
      <point x="280" y="357"/>
      <point x="353" y="-20"/>
      <point x="800" y="-20" type="curve" smooth="yes"/>
      <point x="1247" y="-20"/>
      <point x="1320" y="357"/>
      <point x="1320" y="714" type="curve" smooth="yes"/>
      <point x="1320" y="1800" type="line"/>
      <point x="1213" y="1800" type="line"/>
      <point x="1213" y="714" type="line" smooth="yes"/>
      <point x="1213" y="342"/>
      <point x="1134" y="85"/>
    </contour>
    <contour>
      <point x="794" y="1159" type="line"/>
      <point x="374" y="1159" type="line"/>
      <point x="374" y="1054" type="line"/>
      <point x="794" y="1054" type="line"/>
    </contour>
    <contour>
      <point x="747" y="65" type="line"/>
      <point x="853" y="65" type="line"/>
      <point x="853" y="1800" type="line"/>
      <point x="747" y="1800" type="line"/>
    </contour>
    <contour>
      <point x="979" y="954" type="line"/>
      <point x="1085" y="954" type="line"/>
      <point x="1085" y="1211" type="line"/>
      <point x="979" y="1211" type="line"/>
    </contour>
    <contour>
      <point x="979" y="1413" type="line"/>
      <point x="1085" y="1413" type="line"/>
      <point x="1085" y="1670" type="line"/>
      <point x="979" y="1670" type="line"/>
    </contour>
    <contour>
      <point x="979" y="495" type="line"/>
      <point x="1085" y="495" type="line"/>
      <point x="1085" y="752" type="line"/>
      <point x="979" y="752" type="line"/>
    </contour>
  </outline>
</glyph>
<glyph name="uniA091" format="2">
  <advance width="1600"/>
  <unicode hex="A091"/>
  <outline>
    <contour>
      <point x="854" y="-45" type="line"/>
      <point x="854" y="1662" type="line"/>
      <point x="818" y="1645" type="line"/>
      <point x="1279" y="1277" type="line"/>
      <point x="1346" y="1358" type="line"/>
      <point x="747" y="1836" type="line"/>
      <point x="747" y="130" type="line"/>
      <point x="782" y="147" type="line"/>
      <point x="321" y="516" type="line"/>
      <point x="254" y="435" type="line"/>
    </contour>
    <contour>
      <point x="286" y="633" type="line"/>
      <point x="393" y="633" type="line"/>
      <point x="393" y="1159" type="line"/>
      <point x="286" y="1159" type="line"/>
    </contour>
    <contour>
      <point x="1206" y="633" type="line"/>
      <point x="1313" y="633" type="line"/>
      <point x="1313" y="1159" type="line"/>
      <point x="1206" y="1159" type="line"/>
    </contour>
  </outline>
</glyph>
<glyph name="uniA093" format="2">
  <advance width="1600"/>
  <unicode hex="A093"/>
  <anchor x="800" y="1900" name="top"/>
  <outline>
    <contour>
      <point x="747" y="1800" type="line"/>
      <point x="747" y="0" type="line"/>
      <point x="853" y="0" type="line"/>
      <point x="853" y="1800" type="line"/>
    </contour>
    <contour>
      <point x="800" y="573" type="curve" smooth="yes"/>
      <point x="486" y="573"/>
      <point x="279" y="369"/>
      <point x="279" y="59" type="curve"/>
      <point x="386" y="59" type="line"/>
      <point x="386" y="317"/>
      <point x="559" y="468"/>
      <point x="800" y="468" type="curve" smooth="yes"/>
      <point x="1041" y="468"/>
      <point x="1214" y="317"/>
      <point x="1214" y="59" type="curve"/>
      <point x="1321" y="59" type="line"/>
      <point x="1321" y="369"/>
      <point x="1114" y="573"/>
    </contour>
    <contour>
      <point x="800" y="1227" type="curve" smooth="yes"/>
      <point x="1114" y="1227"/>
      <point x="1321" y="1431"/>
      <point x="1321" y="1741" type="curve"/>
      <point x="1214" y="1741" type="line"/>
      <point x="1214" y="1483"/>
      <point x="1041" y="1332"/>
      <point x="800" y="1332" type="curve" smooth="yes"/>
      <point x="559" y="1332"/>
      <point x="386" y="1483"/>
      <point x="386" y="1741" type="curve"/>
      <point x="279" y="1741" type="line"/>
      <point x="279" y="1431"/>
      <point x="486" y="1227"/>
    </contour>
    <contour>
      <point x="1314" y="949" type="line"/>
      <point x="287" y="949" type="line"/>
      <point x="287" y="844" type="line"/>
      <point x="1314" y="844" type="line"/>
    </contour>
  </outline>
</glyph>
<glyph name="uniA094" format="2">
  <advance width="1600"/>
  <unicode hex="A094"/>
  <outline>
    <contour>
      <point x="222" y="900" type="curve" smooth="yes"/>
      <point x="222" y="254"/>
      <point x="460" y="-20"/>
      <point x="800" y="-20" type="curve" smooth="yes"/>
      <point x="1140" y="-20"/>
      <point x="1378" y="254"/>
      <point x="1378" y="900" type="curve" smooth="yes"/>
      <point x="1378" y="1546"/>
      <point x="1140" y="1820"/>
      <point x="800" y="1820" type="curve" smooth="yes"/>
      <point x="460" y="1820"/>
      <point x="222" y="1546"/>
    </contour>
    <contour>
      <point x="790" y="1716" type="curve"/>
      <point x="810" y="1716" type="line" smooth="yes"/>
      <point x="1045" y="1716"/>
      <point x="1271" y="1532"/>
      <point x="1271" y="900" type="curve" smooth="yes"/>
      <point x="1271" y="268"/>
      <point x="1041" y="84"/>
      <point x="800" y="84" type="curve" smooth="yes"/>
      <point x="560" y="84"/>
      <point x="328" y="268"/>
      <point x="328" y="900" type="curve" smooth="yes"/>
      <point x="328" y="1532"/>
      <point x="555" y="1716"/>
    </contour>
    <contour>
      <point x="747" y="1223" type="line"/>
      <point x="853" y="1223" type="line"/>
      <point x="853" y="1730" type="line"/>
      <point x="747" y="1730" type="line"/>
    </contour>
    <contour>
      <point x="928" y="900" type="curve" smooth="yes"/>
      <point x="928" y="712"/>
      <point x="865" y="658"/>
      <point x="800" y="658" type="curve" smooth="yes"/>
      <point x="734" y="658"/>
      <point x="671" y="712"/>
      <point x="671" y="900" type="curve" smooth="yes"/>
      <point x="671" y="1088"/>
      <point x="734" y="1142"/>
      <point x="800" y="1142" type="curve" smooth="yes"/>
      <point x="865" y="1142"/>
      <point x="928" y="1088"/>
    </contour>
    <contour>
      <point x="565" y="900" type="curve" smooth="yes"/>
      <point x="565" y="668"/>
      <point x="662" y="553"/>
      <point x="800" y="553" type="curve" smooth="yes"/>
      <point x="938" y="553"/>
      <point x="1035" y="668"/>
      <point x="1035" y="900" type="curve" smooth="yes"/>
      <point x="1035" y="1132"/>
      <point x="938" y="1247"/>
      <point x="800" y="1247" type="curve" smooth="yes"/>
      <point x="662" y="1247"/>
      <point x="565" y="1132"/>
    </contour>
    <contour>
      <point x="599" y="765" type="line"/>
      <point x="356" y="481" type="line"/>
      <point x="399" y="371" type="line"/>
      <point x="651" y="661" type="line"/>
    </contour>
    <contour>
      <point x="1000" y="765" type="line"/>
      <point x="948" y="661" type="line"/>
      <point x="1200" y="371" type="line"/>
      <point x="1243" y="481" type="line"/>
    </contour>
  </outline>
</glyph>
<glyph name="uniA096" format="2">
  <advance width="1600"/>
  <unicode hex="A096"/>
  <anchor x="800" y="1900" name="top"/>
  <outline>
    <contour>
      <point x="790" y="1020" type="line" smooth="yes"/>
      <point x="502" y="1020"/>
      <point x="311" y="1371"/>
      <point x="311" y="1734" type="curve"/>
      <point x="204" y="1734" type="line"/>
      <point x="204" y="1305"/>
      <point x="437" y="914"/>
      <point x="800" y="914" type="curve" smooth="yes"/>
      <point x="1163" y="914"/>
      <point x="1396" y="1305"/>
      <point x="1396" y="1734" type="curve"/>
      <point x="1289" y="1734" type="line"/>
      <point x="1289" y="1371"/>
      <point x="1102" y="1020"/>
      <point x="810" y="1020" type="curve"/>
    </contour>
    <contour>
      <point x="984" y="1290" type="line"/>
      <point x="1091" y="1290" type="line"/>
      <point x="1091" y="1605" type="line"/>
      <point x="984" y="1605" type="line"/>
    </contour>
    <contour>
      <point x="511" y="1290" type="line"/>
      <point x="618" y="1290" type="line"/>
      <point x="618" y="1605" type="line"/>
      <point x="511" y="1605" type="line"/>
    </contour>
    <contour>
      <point x="555" y="-20" type="curve" smooth="yes"/>
      <point x="739" y="-20"/>
      <point x="853" y="118"/>
      <point x="853" y="400" type="curve" smooth="yes"/>
      <point x="853" y="1800" type="line"/>
      <point x="747" y="1800" type="line"/>
      <point x="747" y="400" type="line" smooth="yes"/>
      <point x="747" y="148"/>
      <point x="653" y="85"/>
      <point x="555" y="85" type="curve" smooth="yes"/>
      <point x="472" y="85"/>
      <point x="363" y="180"/>
      <point x="363" y="314" type="curve"/>
      <point x="257" y="314" type="line"/>
      <point x="257" y="128"/>
      <point x="407" y="-20"/>
    </contour>
  </outline>
</glyph>
<glyph name="uniA098" format="2">
  <advance width="1600"/>
  <unicode hex="A098"/>
  <outline>
    <contour>
      <point x="752" y="979" type="line"/>
      <point x="981" y="979"/>
      <point x="1119" y="657"/>
      <point x="1119" y="322" type="curve"/>
      <point x="1226" y="322" type="line"/>
      <point x="1226" y="730"/>
      <point x="1044" y="1084"/>
      <point x="752" y="1084" type="curve"/>
    </contour>
    <contour>
      <point x="1029" y="1084" type="curve"/>
      <point x="1100" y="1162" type="line"/>
      <point x="1039" y="1214"/>
      <point x="970" y="1255"/>
      <point x="895" y="1279" type="curve"/>
      <point x="860" y="1180" type="line"/>
      <point x="920" y="1160"/>
      <point x="977" y="1127"/>
    </contour>
    <contour>
      <point x="1214" y="839" type="curve"/>
      <point x="1310" y="886" type="line"/>
      <point x="1269" y="969"/>
      <point x="1218" y="1040"/>
      <point x="1162" y="1104" type="curve"/>
      <point x="1082" y="1034" type="line"/>
      <point x="1131" y="979"/>
      <point x="1177" y="913"/>
    </contour>
    <contour>
      <point x="1308" y="564" type="curve"/>
      <point x="1413" y="585" type="line"/>
      <point x="1395" y="667"/>
      <point x="1372" y="742"/>
      <point x="1345" y="810" type="curve"/>
      <point x="1246" y="770" type="line"/>
      <point x="1271" y="708"/>
      <point x="1293" y="639"/>
    </contour>
    <contour>
      <point x="785" y="-25" type="line"/>
      <point x="785" y="1684" type="line"/>
      <point x="745" y="1660" type="line"/>
      <point x="1219" y="1399" type="line"/>
      <point x="1270" y="1491" type="line"/>
      <point x="678" y="1817" type="line"/>
      <point x="678" y="110" type="line"/>
      <point x="717" y="134" type="line"/>
      <point x="243" y="402" type="line"/>
      <point x="190" y="311" type="line"/>
    </contour>
  </outline>
</glyph>
<glyph name="uniA09A" format="2">
  <advance width="1600"/>
  <unicode hex="A09A"/>
  <anchor x="800" y="1900" name="top"/>
  <outline>
    <contour>
      <point x="542" y="394" type="curve" smooth="yes"/>
      <point x="542" y="163"/>
      <point x="720" y="-20"/>
      <point x="962" y="-20" type="curve" smooth="yes"/>
      <point x="1204" y="-20"/>
      <point x="1382" y="163"/>
      <point x="1382" y="394" type="curve" smooth="yes"/>
      <point x="1382" y="625"/>
      <point x="1204" y="808"/>
      <point x="962" y="808" type="curve" smooth="yes"/>
      <point x="720" y="808"/>
      <point x="542" y="625"/>
    </contour>
    <contour>
      <point x="1275" y="394" type="curve" smooth="yes"/>
      <point x="1275" y="237"/>
      <point x="1165" y="86"/>
      <point x="962" y="86" type="curve"/>
      <point x="759" y="86"/>
      <point x="649" y="237"/>
      <point x="649" y="394" type="curve" smooth="yes"/>
      <point x="649" y="551"/>
      <point x="759" y="702"/>
      <point x="962" y="702" type="curve" smooth="yes"/>
      <point x="1165" y="702"/>
      <point x="1275" y="551"/>
    </contour>
    <contour>
      <point x="1068" y="719" type="line"/>
      <point x="1068" y="1800" type="line"/>
      <point x="962" y="1800" type="line"/>
      <point x="962" y="869" type="line"/>
      <point x="999" y="891" type="line"/>
      <point x="230" y="1402" type="line"/>
      <point x="230" y="386" type="line"/>
      <point x="337" y="386" type="line"/>
      <point x="337" y="1250" type="line"/>
      <point x="300" y="1230" type="line"/>
    </contour>
  </outline>
</glyph>
<glyph name="uniA09E" format="2">
  <advance width="1600"/>
  <unicode hex="A09E"/>
  <outline>
    <contour>
      <point x="886" y="1138" type="line"/>
      <point x="886" y="1018" type="line"/>
      <point x="1289" y="793" type="line"/>
      <point x="1341" y="884" type="line"/>
    </contour>
    <contour>
      <point x="288" y="1044" type="line"/>
      <point x="395" y="1044" type="line"/>
      <point x="395" y="1620" type="line"/>
      <point x="288" y="1620" type="line"/>
    </contour>
    <contour>
      <point x="900" y="300" type="line"/>
      <point x="900" y="1696" type="line"/>
      <point x="862" y="1670" type="line"/>
      <point x="1290" y="1432" type="line"/>
      <point x="1341" y="1524" type="line"/>
      <point x="793" y="1829" type="line"/>
      <point x="793" y="434" type="line"/>
      <point x="833" y="457" type="line"/>
      <point x="288" y="761" type="line"/>
      <point x="288" y="0" type="line"/>
      <point x="395" y="0" type="line"/>
      <point x="395" y="629" type="line"/>
      <point x="356" y="603" type="line"/>
    </contour>
  </outline>
</glyph>
<glyph name="uniA09F" format="2">
  <advance width="1600"/>
  <unicode hex="A09F"/>
  <outline>
    <contour>
      <point x="1123" y="0" type="line"/>
      <point x="1123" y="1662" type="line"/>
      <point x="1088" y="1645" type="line"/>
      <point x="1326" y="1452" type="line"/>
      <point x="1394" y="1533" type="line"/>
      <point x="1016" y="1839" type="line"/>
      <point x="1016" y="59" type="line"/>
      <point x="1061" y="105" type="line"/>
      <point x="891" y="105" type="line" smooth="yes"/>
      <point x="567" y="105"/>
      <point x="301" y="298"/>
      <point x="301" y="605" type="curve" smooth="yes"/>
      <point x="301" y="913"/>
      <point x="567" y="1106"/>
      <point x="891" y="1106" type="curve" smooth="yes"/>
      <point x="1032" y="1106" type="line"/>
      <point x="1032" y="1211" type="line"/>
      <point x="891" y="1211" type="line" smooth="yes"/>
      <point x="527" y="1211"/>
      <point x="194" y="988"/>
      <point x="194" y="605" type="curve" smooth="yes"/>
      <point x="194" y="222"/>
      <point x="527" y="0"/>
      <point x="891" y="0" type="curve" smooth="yes"/>
    </contour>
    <contour>
      <point x="500" y="604" type="curve" smooth="yes"/>
      <point x="500" y="490"/>
      <point x="570" y="371"/>
      <point x="691" y="371" type="curve" smooth="yes"/>
      <point x="812" y="371"/>
      <point x="882" y="490"/>
      <point x="882" y="604" type="curve" smooth="yes"/>
      <point x="882" y="718"/>
      <point x="812" y="837"/>
      <point x="691" y="837" type="curve" smooth="yes"/>
      <point x="570" y="837"/>
      <point x="500" y="718"/>
    </contour>
    <contour>
      <point x="775" y="604" type="curve" smooth="yes"/>
      <point x="775" y="518"/>
      <point x="728" y="476"/>
      <point x="691" y="476" type="curve" smooth="yes"/>
      <point x="654" y="476"/>
      <point x="607" y="518"/>
      <point x="607" y="604" type="curve" smooth="yes"/>
      <point x="607" y="690"/>
      <point x="654" y="732"/>
      <point x="691" y="732" type="curve" smooth="yes"/>
      <point x="728" y="732"/>
      <point x="775" y="690"/>
    </contour>
  </outline>
</glyph>
<glyph name="uniA0A1" format="2">
  <advance width="1600"/>
  <unicode hex="A0A1"/>
  <anchor x="800" y="1900" name="top"/>
  <outline>
    <contour>
      <point x="578" y="299" type="line"/>
      <point x="685" y="299" type="line"/>
      <point x="685" y="658" type="line"/>
      <point x="578" y="658" type="line"/>
    </contour>
    <contour>
      <point x="387" y="1251" type="line"/>
      <point x="494" y="1251" type="line"/>
      <point x="494" y="1610" type="line"/>
      <point x="387" y="1610" type="line"/>
    </contour>
    <contour>
      <point x="1209" y="872" type="line"/>
      <point x="1316" y="872" type="line"/>
      <point x="1316" y="1231" type="line"/>
      <point x="1209" y="1231" type="line"/>
    </contour>
    <contour>
      <point x="893" y="59" type="line"/>
      <point x="938" y="105" type="line"/>
      <point x="796" y="105" type="line" smooth="yes"/>
      <point x="486" y="105"/>
      <point x="343" y="267"/>
      <point x="343" y="501" type="curve" smooth="yes"/>
      <point x="343" y="733"/>
      <point x="465" y="843"/>
      <point x="694" y="843" type="curve" smooth="yes"/>
      <point x="914" y="843"/>
      <point x="1171" y="609"/>
      <point x="1267" y="386" type="curve"/>
      <point x="1364" y="428" type="line"/>
      <point x="1246" y="700"/>
      <point x="950" y="948"/>
      <point x="694" y="948" type="curve" smooth="yes"/>
      <point x="406" y="948"/>
      <point x="236" y="795"/>
      <point x="236" y="501" type="curve" smooth="yes"/>
      <point x="236" y="206"/>
      <point x="428" y="0"/>
      <point x="790" y="0" type="curve" smooth="yes"/>
      <point x="1000" y="0" type="line"/>
      <point x="1000" y="1674" type="line"/>
      <point x="962" y="1654" type="line"/>
      <point x="1275" y="1442" type="line"/>
      <point x="1334" y="1529" type="line"/>
      <point x="893" y="1827" type="line"/>
    </contour>
  </outline>
</glyph>
